<?xml version="1.0" standalone="no"?>
<!DOCTYPE svg PUBLIC "-//W3C//DTD SVG 20010904//EN"
 "http://www.w3.org/TR/2001/REC-SVG-20010904/DTD/svg10.dtd">
<svg version="1.0" xmlns="http://www.w3.org/2000/svg"
 width="200.000000pt" height="200.000000pt" viewBox="0 0 200.000000 200.000000"
 preserveAspectRatio="xMidYMid meet">

<g transform="translate(0.000000,200.000000) scale(0.100000,-0.100000)"
fill="#000000" stroke="none">
<path d="M1557 1986 c-153 -43 -258 -196 -244 -353 13 -135 147 -380 304 -554
35 -38 36 -39 56 -22 77 69 240 318 293 448 40 99 41 215 2 297 -32 68 -92
129 -163 163 -65 32 -176 42 -248 21z m164 -211 c40 -21 69 -71 69 -120 0 -76
-59 -135 -135 -135 -103 0 -167 109 -120 201 32 62 121 87 186 54z"/>
<path d="M405 1579 c-191 -28 -361 -193 -396 -384 -38 -207 96 -520 370 -864
113 -141 95 -139 192 -19 178 222 324 475 369 641 68 247 -30 478 -246 582
-59 29 -177 58 -219 54 -5 -1 -37 -5 -70 -10z m153 -285 c76 -32 131 -111 132
-190 0 -58 -43 -139 -92 -172 -53 -34 -148 -43 -199 -17 -78 40 -119 104 -119
186 0 149 144 249 278 193z"/>
<path d="M1450 935 l0 -34 66 -3 65 -3 -571 -412 -572 -413 -114 0 -114 0 0
-35 0 -35 275 0 275 0 0 35 0 34 -99 3 -98 3 568 410 567 410 81 3 81 3 0 34
0 35 -205 0 -205 0 0 -35z"/>
</g>
</svg>
