<?xml version="1.0" standalone="no"?>
<!DOCTYPE svg PUBLIC "-//W3C//DTD SVG 20010904//EN"
 "http://www.w3.org/TR/2001/REC-SVG-20010904/DTD/svg10.dtd">
<svg version="1.0" xmlns="http://www.w3.org/2000/svg"
 width="512.000000pt" height="512.000000pt" viewBox="0 0 512.000000 512.000000"
 preserveAspectRatio="xMidYMid meet">

<g transform="translate(0.000000,512.000000) scale(0.100000,-0.100000)"
fill="#000000" stroke="none">
<path d="M2360 5094 c-164 -20 -220 -28 -323 -49 -423 -87 -849 -299 -1158
-576 -479 -429 -759 -948 -855 -1579 -25 -164 -25 -532 0 -690 96 -611 345
-1101 762 -1499 350 -334 751 -551 1216 -657 59 -13 124 -24 145 -24 103 1
203 101 203 205 0 66 -51 150 -111 180 -15 8 -71 24 -126 36 -827 178 -1467
816 -1648 1644 -36 163 -47 280 -47 475 0 328 65 612 208 909 317 658 924
1096 1664 1202 127 18 443 15 575 -5 298 -46 552 -138 803 -288 l82 -49 -90
-132 c-49 -72 -90 -141 -90 -152 0 -12 9 -30 20 -40 19 -17 33 -17 382 14 200
18 375 34 391 37 41 8 85 50 92 88 5 25 -19 126 -95 397 -55 200 -108 371
-117 381 -22 25 -55 23 -80 -4 -11 -13 -53 -70 -93 -128 -40 -58 -76 -109 -80
-113 -4 -5 -32 7 -61 26 -292 187 -643 317 -999 372 -100 16 -490 29 -570 19z"/>
<path d="M2349 4177 c-18 -12 -44 -38 -56 -56 l-23 -34 0 -856 1 -856 762
-393 c435 -225 778 -396 799 -399 59 -9 105 5 143 42 66 66 68 170 4 231 -16
15 -331 184 -701 375 l-673 348 -5 759 -5 759 -28 36 c-15 20 -41 44 -57 52
-44 23 -121 19 -161 -8z"/>
<path d="M4665 3601 c-80 -36 -132 -124 -122 -205 7 -60 65 -213 94 -247 84
-100 249 -92 325 16 44 63 47 122 10 229 -46 130 -72 169 -134 200 -61 31
-117 33 -173 7z"/>
<path d="M4856 2830 c-42 -13 -90 -49 -117 -88 -21 -32 -24 -48 -27 -156 -4
-133 5 -179 45 -226 87 -104 248 -95 327 18 28 39 31 51 34 144 6 140 -9 199
-61 252 -58 57 -129 77 -201 56z"/>
<path d="M4699 2012 c-54 -35 -69 -56 -103 -151 -54 -149 -52 -214 6 -286 92
-110 271 -95 335 29 30 58 73 197 73 236 0 116 -88 200 -208 200 -47 0 -67 -6
-103 -28z"/>
<path d="M4354 1311 c-46 -21 -150 -138 -184 -207 -61 -124 23 -279 158 -292
95 -9 149 24 246 151 66 86 85 147 67 215 -14 50 -67 113 -115 136 -45 21
-121 20 -172 -3z"/>
<path d="M3757 756 c-132 -71 -192 -125 -215 -195 -54 -157 118 -310 274 -245
64 26 188 113 211 147 29 43 41 102 31 157 -9 52 -29 81 -82 124 -31 26 -47
31 -104 34 -57 3 -74 0 -115 -22z"/>
<path d="M2995 439 c-44 -10 -90 -24 -103 -31 -58 -30 -111 -113 -112 -173 0
-113 97 -215 205 -215 35 0 206 40 234 54 146 76 147 286 2 363 -54 28 -115
29 -226 2z"/>
</g>
</svg>
