<?xml version="1.0" standalone="no"?>
<!DOCTYPE svg PUBLIC "-//W3C//DTD SVG 20010904//EN"
 "http://www.w3.org/TR/2001/REC-SVG-20010904/DTD/svg10.dtd">
<svg version="1.0" xmlns="http://www.w3.org/2000/svg"
 width="200.000000pt" height="200.000000pt" viewBox="0 0 200.000000 200.000000"
 preserveAspectRatio="xMidYMid meet">

<g transform="translate(0.000000,200.000000) scale(0.100000,-0.100000)"
fill="#000000" stroke="none">
<path d="M1293 1794 c-7 -3 -31 -53 -54 -112 -56 -143 -56 -173 3 -291 l45
-91 -31 0 c-36 1 -109 16 -148 31 -28 11 -61 79 -103 207 -18 57 -44 79 -74
63 -32 -18 -31 -38 5 -143 64 -185 89 -211 234 -239 58 -11 76 -21 175 -98 61
-47 111 -86 112 -86 2 -1 -2 -26 -8 -57 -9 -44 -8 -66 5 -119 28 -110 97 -179
129 -128 8 13 3 28 -21 64 -75 113 -49 250 60 322 36 25 51 28 117 27 42 0 92
-4 112 -8 33 -7 38 -6 44 13 10 31 -9 49 -73 67 -66 20 -130 14 -201 -17 l-50
-21 -95 73 c-89 69 -99 80 -142 162 -54 104 -54 116 -3 255 26 72 31 96 23
110 -11 17 -39 25 -61 16z"/>
<path d="M680 1323 c0 -10 17 -28 39 -40 l39 -22 -27 -100 c-21 -83 -30 -101
-47 -105 -12 -3 -29 -8 -37 -11 -9 -4 -19 5 -27 25 -20 47 -104 118 -163 135
-65 19 -110 19 -173 -3 -193 -67 -250 -315 -106 -460 99 -98 265 -106 370 -17
41 35 42 36 69 20 27 -15 35 -13 252 60 124 41 227 73 229 70 2 -2 1 -26 -3
-53 l-7 -50 -51 -6 c-154 -21 -252 -131 -251 -281 2 -250 293 -367 471 -190
62 63 89 136 80 222 -10 96 -82 196 -164 225 -26 9 -33 18 -33 38 1 29 36 219
41 224 2 1 29 12 59 23 77 28 74 49 -12 84 -54 22 -69 25 -78 14 -12 -15 1
-28 45 -46 l30 -11 -48 -21 c-42 -17 -48 -24 -53 -58 -4 -22 -12 -39 -18 -39
-9 0 -346 109 -353 114 -3 3 39 159 43 165 2 2 14 0 26 -6 27 -12 48 -7 48 12
0 16 -146 105 -172 105 -11 0 -18 -7 -18 -17z m-243 -165 c49 -12 143 -91 143
-119 0 -11 -32 -25 -107 -47 -59 -18 -111 -36 -117 -42 -13 -13 -1 -25 107
-98 l88 -60 -37 -30 c-88 -73 -217 -66 -298 14 -94 95 -92 238 6 331 58 56
129 73 215 51z m476 -194 l148 -49 -187 -62 c-103 -35 -189 -61 -191 -59 -3 3
39 175 53 215 2 7 10 11 17 8 6 -2 79 -26 160 -53z m-229 19 c-4 -16 -13 -46
-20 -68 l-12 -40 -1 62 c-1 58 4 69 32 72 4 1 4 -11 1 -26z m-84 -47 c0 -45
-18 -109 -29 -104 -18 9 -141 94 -141 98 0 5 136 48 158 49 8 1 12 -14 12 -43z
m45 -98 c-7 -31 -25 -63 -25 -43 0 12 23 75 28 75 2 0 1 -15 -3 -32z m425
-137 c0 -11 -7 -55 -15 -98 -21 -107 -20 -133 4 -133 23 0 24 2 46 128 20 115
25 119 87 77 47 -32 86 -98 94 -158 19 -133 -90 -257 -225 -257 -202 0 -303
245 -160 389 58 58 169 92 169 52z"/>
<path d="M1608 1065 c-54 -30 -57 -113 -6 -149 48 -34 111 -15 134 39 18 44 3
90 -37 110 -35 18 -56 18 -91 0z"/>
</g>
</svg>
