<?xml version="1.0" standalone="no"?>
<!DOCTYPE svg PUBLIC "-//W3C//DTD SVG 20010904//EN"
 "http://www.w3.org/TR/2001/REC-SVG-20010904/DTD/svg10.dtd">
<svg version="1.0" xmlns="http://www.w3.org/2000/svg"
 width="750.000000pt" height="500.000000pt" viewBox="0 0 750.000000 500.000000"
 preserveAspectRatio="xMidYMid meet">

<g transform="translate(0.000000,500.000000) scale(0.100000,-0.100000)"
fill="#000000" stroke="none">
<path d="M3285 3740 c-267 -48 -490 -277 -522 -536 -5 -46 -9 -51 -60 -84
-111 -71 -211 -202 -260 -342 -35 -96 -44 -298 -19 -398 47 -187 175 -350 338
-429 47 -23 111 -47 143 -54 52 -11 58 -10 71 8 17 23 18 89 2 103 -7 5 -33
15 -58 22 -136 36 -258 137 -320 264 -49 100 -64 174 -57 291 12 193 104 347
263 440 36 21 70 48 74 59 4 12 12 56 18 99 31 243 238 426 482 427 123 0 219
-31 309 -98 46 -35 76 -32 146 15 90 60 137 75 251 81 76 3 115 0 160 -13 190
-54 332 -219 356 -412 5 -43 12 -88 14 -100 2 -13 25 -33 61 -53 315 -178 381
-614 130 -865 -65 -65 -125 -101 -217 -131 -30 -9 -61 -21 -67 -27 -17 -13
-16 -79 1 -102 13 -18 19 -19 73 -7 169 35 343 171 421 332 56 114 72 183 72
311 0 129 -23 229 -77 332 -43 82 -150 200 -222 247 -46 29 -49 33 -55 85 -14
122 -83 260 -179 356 -71 72 -149 119 -252 155 -68 23 -97 27 -190 28 -126 0
-191 -15 -297 -71 l-68 -35 -67 35 c-38 19 -93 42 -123 51 -67 20 -207 28
-275 16z"/>
<path d="M3310 3118 c-76 -29 -160 -114 -188 -191 -60 -158 -26 -349 77 -439
46 -40 123 -75 187 -83 58 -7 159 8 210 32 34 17 34 17 34 85 0 75 -6 81 -55
48 -16 -11 -54 -25 -82 -31 -165 -34 -282 108 -244 294 32 153 178 222 320
151 28 -15 54 -24 57 -21 3 3 6 36 6 72 0 47 -4 70 -13 76 -55 36 -225 39
-309 7z"/>
<path d="M3932 3122 c-66 -24 -118 -65 -159 -126 -46 -68 -58 -116 -58 -236 0
-99 2 -110 33 -172 60 -122 157 -181 301 -182 118 -1 179 22 252 94 80 79 103
142 103 280 -1 84 -5 116 -22 161 -29 73 -82 133 -146 166 -69 36 -223 44
-304 15z m234 -137 c74 -44 110 -165 85 -287 -23 -111 -82 -162 -185 -162 -71
1 -110 18 -153 67 -77 88 -67 284 19 364 33 31 65 42 132 42 46 1 69 -5 102
-24z"/>
<path d="M4523 2736 c-36 -16 -73 -69 -73 -103 0 -20 5 -23 43 -23 36 0 44 4
59 31 15 26 20 28 38 19 34 -18 23 -46 -40 -101 -62 -53 -100 -116 -100 -162
l0 -27 129 0 129 0 6 31 c3 17 6 35 6 40 0 5 -29 9 -65 9 -39 0 -65 4 -65 11
0 6 27 36 60 67 52 50 60 62 60 94 0 47 -17 83 -46 103 -35 23 -103 28 -141
11z"/>
<path d="M3127 2153 c-4 -3 -7 -92 -7 -198 0 -205 -2 -215 -51 -215 -34 0 -42
-20 -21 -52 43 -65 174 -208 191 -208 21 0 201 209 201 234 0 17 -5 20 -52 30
l-28 6 0 189 c0 104 -3 196 -6 205 -5 13 -25 16 -113 16 -59 0 -111 -3 -114
-7z"/>
<path d="M4146 2144 c-3 -8 -6 -101 -6 -205 l0 -189 -27 -6 c-48 -10 -53 -13
-53 -30 0 -18 172 -229 193 -237 8 -3 18 -2 23 1 12 9 156 180 176 211 20 29
13 51 -16 51 -53 0 -56 10 -58 220 l-3 195 -111 3 c-95 2 -113 0 -118 -14z"/>
<path d="M3642 1928 c-9 -9 -12 -68 -12 -205 l0 -193 -27 -6 c-50 -10 -54 -14
-51 -35 3 -22 164 -224 186 -233 6 -3 18 -3 25 0 21 9 182 211 185 233 3 21
-1 25 -50 35 l-28 6 0 193 c0 137 -3 196 -12 205 -8 8 -47 12 -108 12 -61 0
-100 -4 -108 -12z"/>
</g>
</svg>
