<?xml version="1.0" standalone="no"?>
<!DOCTYPE svg PUBLIC "-//W3C//DTD SVG 20010904//EN"
 "http://www.w3.org/TR/2001/REC-SVG-20010904/DTD/svg10.dtd">
<svg version="1.0" xmlns="http://www.w3.org/2000/svg"
 width="612.000000pt" height="367.000000pt" viewBox="0 0 612.000000 367.000000"
 preserveAspectRatio="xMidYMid meet">

<g transform="translate(0.000000,367.000000) scale(0.100000,-0.100000)"
fill="#000000" stroke="none">
<path d="M2778 2821 c-29 -8 -48 -36 -48 -67 0 -44 38 -74 94 -74 l42 0 45
-144 46 -144 -84 -148 c-45 -82 -84 -152 -85 -156 -2 -3 -41 2 -87 13 -99 24
-128 20 -145 -23 -25 -59 -4 -85 88 -109 33 -9 60 -20 59 -25 -1 -5 -62 -118
-137 -250 -75 -133 -136 -253 -136 -266 0 -14 10 -34 23 -46 23 -21 30 -22
295 -22 223 0 272 -2 272 -14 0 -33 -74 -156 -124 -207 -310 -313 -846 -97
-846 340 0 185 53 280 252 454 173 150 243 380 164 542 -76 154 -259 251 -426
224 -76 -12 -143 -44 -208 -98 -49 -41 -164 -101 -194 -101 -11 0 -18 8 -18
18 0 35 -52 121 -101 167 -27 25 -75 58 -107 73 -51 24 -71 27 -198 30 -176 5
-184 2 -184 -73 l0 -55 -138 0 c-154 0 -182 -9 -182 -59 0 -47 12 -51 172 -51
l149 0 -3 -121 -3 -121 -141 -2 c-158 -1 -177 -8 -172 -60 5 -47 34 -56 173
-56 66 1 126 1 133 1 8 -1 12 -19 12 -56 0 -43 4 -56 19 -65 28 -14 235 -12
302 4 112 26 219 117 255 216 17 48 20 50 73 66 68 19 192 84 238 125 79 69
160 90 246 65 156 -45 221 -174 167 -332 -27 -79 -74 -141 -158 -208 -98 -78
-157 -149 -202 -241 -50 -106 -64 -169 -63 -290 1 -209 103 -399 276 -517 113
-77 220 -109 363 -109 282 -1 525 180 610 454 17 55 19 57 52 57 19 0 59 -12
88 -26 41 -20 62 -25 88 -20 77 15 136 83 136 157 0 32 27 66 300 377 165 188
302 342 304 342 2 0 13 -27 24 -60 l20 -59 -56 -33 c-31 -17 -91 -66 -133
-107 -116 -116 -174 -244 -185 -411 -20 -299 189 -582 486 -656 96 -24 272
-15 362 18 252 94 413 309 425 568 8 166 -35 303 -134 427 -135 169 -307 248
-523 241 l-109 -3 -14 50 c-8 28 -42 135 -76 238 -33 104 -61 191 -61 193 0 2
69 4 153 4 177 0 186 -3 194 -72 5 -40 2 -50 -20 -72 -22 -22 -35 -26 -81 -26
-47 0 -57 -4 -75 -26 -26 -34 -26 -54 0 -88 18 -23 27 -26 87 -26 81 0 134 22
179 73 42 48 56 96 51 177 -3 57 -9 77 -34 112 -16 24 -50 54 -74 68 -44 25
-48 25 -276 25 -218 0 -233 -1 -254 -20 -27 -24 -24 -61 14 -177 l24 -78 -477
0 -478 0 -32 99 c-17 54 -31 101 -31 105 0 3 27 6 61 6 88 0 119 19 119 76 0
60 -17 65 -224 67 -102 1 -192 0 -198 -2z m1260 -500 c-3 -10 -194 -230 -470
-542 -137 -156 -148 -166 -177 -161 l-30 4 -111 339 c-61 187 -113 346 -117
354 -4 13 55 15 452 15 276 0 455 -4 453 -9z m-908 -451 c81 -250 100 -320 93
-340 -16 -46 -37 -30 -45 35 -18 141 -82 269 -189 376 l-77 77 51 91 c28 50
54 88 57 84 4 -5 53 -150 110 -323z m1423 95 c164 -43 305 -176 353 -333 24
-78 24 -220 0 -292 -100 -299 -437 -438 -710 -292 -79 42 -167 135 -209 222
-108 219 -36 489 167 626 28 18 53 30 57 26 4 -4 41 -113 83 -243 42 -130 83
-242 92 -249 40 -34 114 -1 114 50 0 15 -34 131 -75 257 -41 127 -75 234 -75
237 0 12 147 6 203 -9z m-1651 -143 c31 -32 67 -81 82 -110 28 -54 56 -150 56
-189 l0 -23 -206 0 c-192 0 -206 1 -200 18 13 31 201 362 207 362 3 0 31 -26
61 -58z"/>
</g>
</svg>
