<?xml version="1.0" standalone="no"?>
<!DOCTYPE svg PUBLIC "-//W3C//DTD SVG 20010904//EN"
 "http://www.w3.org/TR/2001/REC-SVG-20010904/DTD/svg10.dtd">
<svg version="1.0" xmlns="http://www.w3.org/2000/svg"
 width="400.000000pt" height="400.000000pt" viewBox="0 0 400.000000 400.000000"
 preserveAspectRatio="xMidYMid meet">

<g transform="translate(0.000000,400.000000) scale(0.100000,-0.100000)"
fill="#000000" stroke="none">
<path d="M0 2000 l0 -2000 2000 0 2000 0 0 2000 0 2000 -2000 0 -2000 0 0
-2000z m2228 820 c148 -42 270 -111 384 -218 l60 -57 -126 -108 -126 -108 -47
45 c-96 93 -223 140 -373 139 -204 -2 -367 -99 -459 -273 -42 -80 -54 -150
-49 -277 4 -101 7 -116 41 -187 23 -49 57 -99 94 -137 192 -202 547 -206 751
-9 38 37 45 40 60 28 9 -8 64 -54 122 -103 58 -49 107 -90 109 -92 8 -6 -83
-94 -149 -143 -84 -62 -168 -103 -277 -137 -79 -24 -104 -27 -243 -27 -171 -1
-259 16 -385 73 -192 87 -364 264 -438 451 -63 160 -75 395 -28 558 88 303
350 535 676 598 101 20 309 12 403 -16z m559 -488 c8 -5 15 -44 19 -100 8
-106 0 -101 119 -76 42 9 78 14 80 12 1 -1 5 -12 9 -23 5 -16 -7 -32 -59 -75
-35 -30 -65 -62 -65 -71 0 -8 29 -39 65 -69 65 -54 72 -64 56 -88 -7 -11 -23
-11 -91 2 -45 9 -88 16 -95 16 -8 0 -14 -29 -19 -92 -6 -87 -14 -108 -41 -108
-5 0 -29 36 -53 80 -24 44 -48 80 -54 80 -6 0 -41 -22 -78 -50 -73 -54 -82
-57 -99 -37 -8 11 -2 34 25 97 43 99 44 97 -71 125 -71 18 -76 21 -73 44 3 23
12 28 91 50 48 13 87 28 87 33 0 6 -16 46 -35 91 -26 61 -32 83 -24 94 17 20
26 17 99 -37 37 -27 72 -50 78 -50 6 0 30 36 54 80 43 79 51 87 75 72z"/>
<path d="M2656 2038 c-9 -12 -16 -29 -16 -38 0 -30 30 -60 60 -60 36 0 60 24
60 60 0 16 -7 36 -16 44 -23 24 -70 20 -88 -6z"/>
</g>
</svg>
