<svg id="svg" xmlns="http://www.w3.org/2000/svg" xmlns:xlink="http://www.w3.org/1999/xlink" width="400" height="400" viewBox="0, 0, 400,400"><g id="svgg"><path id="path0" d="M181.633 113.491 C 130.403 124.127,99.618 170.790,111.116 220.376 C 126.531 286.856,212.381 310.793,262.750 262.656 C 271.759 254.046,271.671 253.727,256.889 241.235 C 243.222 229.685,241.267 229.002,236.437 234.100 C 221.568 249.793,191.793 253.059,173.078 241.050 C 147.463 224.613,144.057 186.132,166.327 164.780 C 184.843 147.026,218.407 147.347,235.946 165.444 C 241.275 170.942,242.774 170.440,256.750 158.465 C 271.564 145.774,271.596 145.658,262.556 137.201 C 241.051 117.084,209.233 107.762,181.633 113.491 M274.817 163.688 C 273.891 163.926,271.434 167.424,269.356 171.460 L 265.578 178.800 259.237 174.275 C 247.158 165.655,241.572 170.000,247.500 183.404 C 250.822 190.916,251.059 190.483,242.327 192.856 C 234.223 195.059,233.031 195.976,233.031 200.000 C 233.031 204.024,234.223 204.941,242.327 207.144 C 251.071 209.521,250.829 209.069,247.454 216.701 C 241.418 230.348,247.869 234.535,260.304 225.042 L 265.500 221.075 269.196 228.407 C 275.967 241.836,284.000 239.101,284.000 223.368 C 284.000 217.647,284.210 216.927,285.750 217.377 C 296.298 220.461,302.689 220.017,303.718 216.131 C 304.821 211.966,304.241 210.824,298.195 205.250 L 292.500 200.000 298.195 194.750 C 304.241 189.176,304.821 188.034,303.718 183.869 C 302.635 179.778,300.431 179.609,286.356 182.539 C 284.328 182.961,284.191 182.553,283.849 175.022 C 283.415 165.463,280.778 162.154,274.817 163.688 M272.500 200.000 C 272.500 202.952,268.402 204.211,267.389 201.570 C 266.393 198.975,267.788 196.831,270.246 197.180 C 271.898 197.415,272.500 198.167,272.500 200.000 " stroke="none" fill="#000000" fill-rule="evenodd"></path></g></svg>