<?xml version="1.0" standalone="no"?>
<!DOCTYPE svg PUBLIC "-//W3C//DTD SVG 20010904//EN"
 "http://www.w3.org/TR/2001/REC-SVG-20010904/DTD/svg10.dtd">
<svg version="1.0" xmlns="http://www.w3.org/2000/svg"
 width="560.000000pt" height="374.000000pt" viewBox="0 0 560.000000 374.000000"
 preserveAspectRatio="xMidYMid meet">

<g transform="translate(0.000000,374.000000) scale(0.100000,-0.100000)"
fill="#000000" stroke="none">
<path d="M3952 3424 c-15 -10 -22 -25 -22 -46 0 -23 -9 -39 -32 -60 -52 -47
-117 -81 -170 -89 -28 -5 -61 -15 -73 -23 l-23 -15 34 -98 c28 -78 33 -102 25
-120 -6 -13 -8 -37 -4 -54 4 -21 1 -34 -8 -40 -17 -10 -1599 -12 -1615 -1 -6
4 -16 25 -22 47 -29 101 -76 232 -90 248 -14 16 -13 17 12 17 15 0 55 12 89
26 60 26 65 26 143 15 111 -15 114 -15 114 13 0 24 -32 54 -75 70 -49 18 -134
27 -333 36 -117 5 -256 17 -308 25 -123 21 -148 18 -152 -18 -4 -36 19 -63 61
-71 44 -8 143 -50 165 -68 26 -23 58 -38 82 -38 12 0 35 -9 50 -20 16 -11 42
-23 59 -26 26 -6 32 -14 50 -67 12 -34 21 -66 21 -73 0 -8 -32 -13 -100 -16
-54 -2 -102 -7 -106 -10 -3 -4 -1 -21 5 -39 9 -26 8 -35 -4 -49 -13 -14 -11
-32 19 -154 32 -136 33 -139 67 -157 31 -15 38 -27 59 -94 23 -72 23 -77 7
-104 -9 -16 -14 -30 -12 -33 3 -2 -10 -18 -28 -34 l-32 -29 30 35 c16 19 -5 1
-47 -39 l-77 -75 -43 32 c-130 96 -272 160 -428 192 -131 27 -320 24 -441 -9
-465 -122 -771 -543 -746 -1025 24 -458 334 -835 787 -958 71 -19 110 -23 240
-23 187 0 281 20 435 95 174 84 318 214 418 377 27 46 54 83 60 83 5 0 27 -5
48 -11 32 -10 37 -15 29 -30 -14 -26 -13 -29 20 -40 16 -6 32 -19 35 -30 9
-27 50 -35 80 -15 16 10 34 14 50 10 14 -3 32 -1 40 6 11 9 33 7 101 -10 143
-36 259 -10 359 81 126 116 156 296 75 447 l-29 54 39 42 c38 41 42 43 88 38
50 -4 64 3 76 44 5 17 1 24 -24 34 -16 7 -30 16 -30 20 0 12 860 855 876 858
9 2 20 -12 30 -35 8 -21 26 -59 40 -85 l25 -47 -61 -41 c-296 -201 -475 -559
-456 -910 23 -425 296 -788 703 -933 213 -77 494 -77 706 0 274 98 483 283
608 538 277 566 -13 1242 -618 1441 -91 29 -241 54 -333 54 -91 0 -247 -25
-330 -53 l-70 -24 -26 46 c-14 25 -27 55 -28 66 -2 11 -11 44 -20 73 -10 29
-15 64 -12 77 4 14 1 56 -5 94 l-12 69 56 83 c63 96 142 246 159 302 10 32 15
37 34 33 14 -4 24 -1 28 10 8 22 10 20 -29 43 -20 11 -35 27 -33 34 5 21 -53
64 -95 72 -27 5 -42 15 -52 35 -13 25 -33 40 -54 40 -3 0 -17 -7 -29 -16z
m-1872 -163 c0 -4 -29 -16 -64 -25 -49 -14 -81 -16 -132 -11 -45 5 -62 10 -51
16 38 22 247 39 247 20z m2089 -30 c20 -13 9 -47 -56 -175 -75 -151 -171 -289
-148 -215 14 43 47 103 116 207 76 114 86 140 69 171 -11 22 -4 27 19 12z
m-2392 -17 c-3 -3 -12 -4 -19 -1 -8 3 -5 6 6 6 11 1 17 -2 13 -5z m2283 -65
l43 -51 -50 -71 c-28 -40 -59 -90 -71 -112 -18 -37 -23 -40 -58 -39 -38 1 -39
2 -61 63 -13 34 -34 72 -49 84 -17 15 -26 33 -27 57 -2 34 0 36 83 77 115 57
136 56 190 -8z m90 39 c0 -7 -7 -22 -15 -32 -12 -16 -17 -17 -30 -6 -8 7 -15
21 -15 31 0 14 7 19 30 19 18 0 30 -5 30 -12z m-420 -178 c0 -5 -4 -10 -10
-10 -5 0 -10 5 -10 10 0 6 5 10 10 10 6 0 10 -4 10 -10z m8 -132 c16 -16 15
-28 -2 -28 -17 0 -38 24 -29 33 9 10 17 9 31 -5z m-1493 -52 c11 -1 28 2 38 7
12 5 23 4 32 -3 9 -8 15 -8 20 0 4 6 16 8 28 4 12 -4 30 -7 40 -6 12 0 17 -4
13 -14 -3 -8 -1 -14 4 -14 6 0 10 -4 10 -8 0 -15 -40 -8 -40 8 -1 12 -2 12
-11 -2 -11 -19 -75 -23 -96 -5 -9 6 -13 6 -13 -2 0 -12 -27 -10 -47 2 -7 5
-13 4 -13 -2 0 -16 -90 -11 -97 5 -14 37 23 45 132 30z m1470 -106 c8 -25 -3
-96 -19 -128 -6 -12 -243 -254 -526 -538 -421 -421 -519 -514 -535 -509 -56
18 -94 25 -132 25 l-42 0 -26 88 c-15 48 -94 305 -176 572 -82 267 -147 491
-144 498 3 9 173 12 799 12 791 0 795 0 801 -20z m47 -17 c6 -46 -4 -95 -26
-128 -19 -29 -42 -34 -31 -7 6 15 12 46 31 150 7 34 21 26 26 -15z m163 -317
c9 -14 15 -37 13 -53 -3 -28 -4 -28 -26 14 -12 23 -22 47 -22 53 0 18 19 11
35 -14z m-1886 -457 c61 -199 110 -364 107 -366 -2 -2 -20 -6 -40 -10 -26 -4
-37 -2 -39 8 -2 8 -12 48 -22 89 -36 149 -111 298 -211 416 -30 35 -54 66 -54
70 0 8 133 153 141 154 3 0 56 -163 118 -361z m-229 338 c0 -1 -33 -34 -72
-72 l-73 -70 70 73 c64 67 75 77 75 69z m-730 -29 c0 -10 3 -9 9 1 7 10 23 12
70 6 33 -4 64 -11 67 -16 3 -5 9 -7 13 -4 5 2 36 -5 69 -16 48 -16 60 -24 55
-37 -4 -14 -3 -15 6 -2 9 13 18 11 66 -15 42 -23 55 -34 51 -48 -3 -14 -2 -16
9 -7 11 9 22 6 50 -16 l36 -27 -58 -61 c-191 -198 -283 -298 -279 -305 3 -4
-11 -23 -31 -42 -21 -19 -31 -26 -24 -16 7 9 12 17 10 18 -2 0 -19 3 -36 5
-27 4 -33 2 -34 -13 0 -14 -2 -14 -9 5 -10 23 -29 29 -46 12 -7 -7 -19 -4 -38
11 -28 22 -28 22 -22 2 5 -16 0 -23 -23 -33 -17 -7 -36 -18 -42 -26 -16 -20
-27 -17 -32 9 -3 17 -5 14 -7 -10 -3 -43 -3 -41 -30 -95 -25 -49 -37 -57 -58
-36 -7 7 -12 8 -12 2 0 -6 8 -18 18 -27 16 -15 24 -49 26 -119 1 -14 3 -25 6
-23 3 2 14 -9 24 -24 32 -47 96 -81 172 -90 38 -5 78 -5 89 -1 23 9 60 6 95
-8 14 -5 28 -10 33 -11 4 0 20 -7 36 -15 16 -9 32 -12 35 -8 4 4 16 -4 27 -18
13 -17 17 -19 13 -6 -6 16 -4 17 17 11 13 -5 109 -34 213 -66 104 -32 193 -62
198 -67 12 -12 -14 -53 -72 -115 -39 -43 -48 -48 -75 -43 -25 5 -27 4 -12 -5
18 -10 18 -12 1 -30 -23 -25 -28 -24 -63 14 -37 39 -42 17 -6 -25 l26 -31 -22
-15 c-18 -12 -23 -13 -31 -1 -7 11 -8 9 -6 -6 2 -14 -11 -29 -47 -52 -44 -30
-51 -31 -62 -17 -10 14 -12 13 -15 -7 -4 -30 -105 -71 -119 -48 -7 11 -9 11
-9 -3 0 -12 -15 -20 -57 -28 -51 -11 -58 -10 -70 6 -11 15 -13 15 -13 2 0 -9
-10 -18 -22 -22 -29 -7 -93 -8 -100 0 -3 3 -33 7 -66 9 -33 1 -66 6 -74 11 -7
4 -19 9 -28 10 -44 4 -103 30 -108 47 -3 13 -7 15 -12 7 -11 -18 -115 40 -114
63 2 14 -1 15 -12 6 -11 -9 -24 -4 -60 26 -26 21 -43 43 -40 51 3 8 0 11 -10
7 -18 -7 -97 75 -90 94 3 7 -1 13 -8 13 -8 0 -28 23 -46 50 -25 39 -30 53 -21
64 9 11 8 14 -5 12 -23 -2 -67 103 -51 122 8 10 7 12 -4 10 -19 -4 -47 111
-30 122 10 5 9 9 -3 13 -12 5 -16 21 -16 71 0 58 2 65 18 60 16 -5 16 -5 -1 6
-28 18 -18 140 12 140 13 0 14 2 2 9 -12 8 -12 16 0 62 11 42 19 55 39 60 16
4 19 7 8 8 -24 1 -23 13 8 72 16 32 30 49 38 46 10 -4 12 1 9 14 -3 12 6 33
23 56 16 20 32 42 37 47 4 7 11 6 18 -4 8 -12 9 -11 4 6 -4 17 5 31 41 63 40
35 49 39 63 29 14 -11 14 -11 3 3 -11 14 -6 21 39 50 41 26 55 30 69 21 15 -9
17 -8 13 7 -3 14 7 23 46 39 58 25 67 27 74 10 3 -8 6 -6 6 4 2 29 123 53 134
26 3 -8 6 -6 6 5 1 14 11 17 66 17 45 0 65 -4 65 -12z m3461 -5 c0 -11 3 -13
6 -5 6 15 55 16 106 1 32 -9 37 -13 32 -32 l-6 -22 13 21 13 22 60 -22 c44
-16 60 -26 59 -39 -2 -14 1 -15 12 -6 11 9 25 4 66 -19 42 -24 53 -35 51 -53
-1 -13 1 -18 3 -11 9 21 30 13 78 -29 36 -32 44 -44 36 -54 -9 -11 -7 -12 8
-8 24 6 95 -73 89 -99 -3 -10 0 -15 8 -12 8 3 26 -17 45 -51 26 -45 30 -58 20
-71 -11 -12 -10 -13 3 -9 11 5 20 -8 36 -50 25 -68 26 -71 4 -85 -17 -11 -17
-11 -1 -6 22 7 25 1 36 -68 9 -54 8 -58 -12 -66 -21 -9 -21 -9 2 -9 20 -1 22
-5 22 -66 0 -50 -4 -66 -17 -74 -10 -6 -12 -11 -5 -11 15 0 15 -28 1 -86 -9
-34 -16 -44 -33 -45 -17 -1 -17 -2 -3 -6 22 -6 21 -10 -4 -77 -12 -31 -28 -56
-35 -56 -7 0 -11 -6 -8 -14 7 -19 -55 -118 -71 -112 -8 3 -11 -2 -9 -12 5 -23
-71 -106 -90 -99 -10 4 -13 1 -10 -7 8 -21 -76 -88 -104 -83 -16 3 -20 1 -12
-8 7 -9 -6 -21 -51 -45 -56 -30 -61 -31 -73 -14 -12 15 -13 15 -12 -6 1 -19
-8 -26 -58 -43 -48 -16 -60 -17 -67 -6 -7 11 -9 11 -9 -2 0 -13 -16 -20 -62
-28 -56 -10 -64 -9 -75 6 -12 16 -13 16 -13 0 0 -14 -11 -17 -65 -17 -36 0
-65 4 -65 9 0 4 -11 6 -25 3 -14 -2 -45 -1 -70 3 -34 5 -48 12 -55 28 -7 18
-9 19 -9 4 -1 -21 -15 -18 -90 14 -30 13 -42 23 -37 34 4 12 2 13 -12 4 -25
-16 -126 45 -117 70 5 13 4 13 -6 4 -10 -10 -16 -9 -31 4 -23 21 -23 34 2 56
20 17 27 37 13 37 -4 0 -17 -12 -29 -27 -19 -23 -26 -26 -41 -17 -10 7 -17 21
-15 34 2 18 -1 20 -11 12 -10 -9 -20 -4 -43 21 -55 59 -58 65 -43 85 12 15 12
16 -2 4 -19 -14 -21 -12 -62 60 -25 44 -26 48 -10 58 17 11 17 11 0 6 -14 -4
-22 3 -34 32 -27 63 -33 92 -20 92 9 0 8 3 -1 8 -15 10 -32 66 -32 109 0 22 5
33 18 36 13 4 11 5 -5 6 -21 1 -23 6 -23 61 0 54 3 62 23 70 17 7 18 9 5 9
-11 1 -18 9 -18 21 0 35 22 120 31 120 4 0 6 6 3 13 -3 8 5 40 17 71 16 43 25
56 36 51 12 -4 13 -2 5 8 -14 16 41 117 63 117 8 0 12 6 9 13 -3 8 15 36 39
63 41 45 46 47 63 34 18 -14 18 -14 4 4 -14 17 -11 22 35 63 27 24 55 41 62
38 7 -2 13 2 13 9 0 19 27 28 37 13 4 -7 61 -111 125 -232 117 -219 117 -220
98 -240 -11 -12 -20 -28 -20 -36 0 -28 -25 -67 -52 -84 -25 -15 -30 -43 -7
-46 5 -1 14 -2 21 -3 6 0 13 -7 16 -13 2 -9 -8 -13 -30 -14 l-33 -1 31 -10
c29 -9 32 -15 36 -57 3 -26 12 -62 21 -80 l16 -33 -29 -11 c-17 -6 -30 -15
-30 -19 0 -8 27 0 45 12 22 15 44 19 39 6 -3 -7 18 -28 50 -49 43 -29 53 -40
49 -57 -3 -11 0 -20 6 -20 6 0 11 8 11 19 0 16 10 19 68 23 42 3 70 1 74 -6 5
-7 8 -4 8 7 0 10 4 16 9 13 5 -4 11 -3 13 1 1 5 22 23 46 41 35 27 46 31 57
22 11 -9 15 -9 15 -1 0 6 -4 11 -10 11 -5 0 -10 7 -10 16 0 12 7 14 33 10 27
-5 28 -4 10 4 -13 5 -23 16 -23 24 0 8 -8 17 -17 19 -11 2 -9 3 4 2 17 -1 23
5 27 31 4 18 12 35 19 38 9 5 9 7 0 12 -19 9 -16 42 5 47 14 4 13 5 -3 6 -14
1 -25 12 -34 36 -7 19 -24 48 -37 65 -14 16 -23 34 -19 40 3 5 0 7 -9 4 -8 -3
-32 4 -55 15 -22 12 -47 21 -56 21 -8 0 -15 8 -16 18 0 10 -3 12 -6 5 -6 -16
-33 -17 -33 -1 0 6 -6 3 -14 -8 -10 -12 -18 -16 -25 -9 -5 6 -48 96 -94 200
-47 105 -101 225 -121 268 -25 55 -32 79 -23 82 6 2 24 9 39 14 18 7 29 7 34
0 4 -6 10 -4 17 5 8 10 36 18 74 22 54 6 62 5 66 -12 4 -16 5 -15 6 4 1 21 5
22 71 22 60 0 70 -3 71 -17z m-4288 -230 c-62 -92 -117 -209 -148 -324 -34
-120 -36 -124 -29 -64 15 127 94 307 180 412 52 63 50 52 -3 -24z m1430 -48
c25 -31 27 -38 15 -53 -12 -15 -11 -16 4 -4 15 12 21 7 54 -43 31 -46 35 -58
23 -66 -11 -7 -11 -9 4 -9 16 0 52 -63 61 -109 2 -9 7 -24 11 -34 4 -11 8 -35
9 -55 l1 -37 -232 -9 c-127 -5 -243 -6 -258 -2 -23 6 -27 11 -23 37 4 24 1 30
-19 35 -17 5 -28 1 -38 -12 -8 -11 -15 -15 -15 -10 0 10 43 60 135 156 34 36
99 107 144 158 45 50 85 92 89 92 4 0 20 -16 35 -35z m1416 -22 c-30 -32 -109
-114 -174 -183 -104 -109 -165 -162 -165 -143 0 7 383 383 390 383 2 0 -20
-26 -51 -57z m447 -104 c-25 -52 -57 -138 -72 -191 -15 -54 -31 -98 -36 -98
-11 0 -11 4 12 100 21 84 82 225 117 267 10 12 19 20 20 19 2 -2 -17 -45 -41
-97z m-2516 -199 c0 -5 -4 -10 -10 -10 -5 0 -10 5 -10 10 0 6 5 10 10 10 6 0
10 -4 10 -10z m-55 -20 c3 -5 -1 -10 -10 -10 -9 0 -13 5 -10 10 3 6 8 10 10
10 2 0 7 -4 10 -10z m138 -67 c-32 -32 -47 -45 -33 -28 43 52 84 95 87 91 2
-2 -22 -30 -54 -63z m3365 39 c2 -7 -1 -12 -7 -12 -6 0 -8 -8 -5 -17 4 -13 0
-11 -15 6 -12 13 -21 27 -21 32 0 13 43 4 48 -9z m79 -19 c30 -20 36 -42 15
-61 -11 -10 -12 -13 -2 -8 8 6 5 0 -6 -13 -18 -20 -25 -21 -43 -11 -14 7 -21
19 -19 33 2 13 -2 21 -9 20 -14 -3 -16 10 -7 45 7 24 28 23 71 -5z m-1582 7
c8 -13 -15 -13 -35 0 -12 8 -11 10 7 10 12 0 25 -4 28 -10z m-255 -20 c0 -14
-7 -20 -22 -20 -20 0 -21 1 -3 20 10 11 20 20 22 20 1 0 3 -9 3 -20z m249 -6
c2 -2 2 -6 0 -9 -8 -7 -49 7 -49 17 0 8 38 2 49 -8z m1656 -5 c-10 -15 -25
-10 -19 6 4 8 10 12 15 9 5 -3 7 -10 4 -15z m-2448 -63 c18 -60 18 -62 -2 -98
-17 -32 -25 -38 -52 -38 -17 0 -34 3 -36 8 -3 4 -6 48 -8 97 -4 79 -2 90 13
90 9 0 19 3 23 7 3 3 15 4 25 1 13 -3 25 -24 37 -67z m-297 42 c0 -4 -8 -8
-17 -9 -14 0 -13 -2 5 -9 19 -8 22 -16 22 -70 0 -41 -4 -60 -12 -60 -7 1 -78
10 -158 21 -80 11 -172 22 -205 25 -89 7 -120 17 -120 40 0 10 -4 25 -9 32 -4
7 -6 15 -4 18 3 2 66 6 142 8 75 1 138 5 140 7 8 8 216 5 216 -3z m690 -2 c16
-21 -8 -71 -35 -71 -16 0 -21 8 -23 43 -3 39 -1 42 21 42 14 0 30 -7 37 -14z
m375 4 c3 -5 -3 -10 -14 -10 -11 0 -23 5 -26 10 -3 6 3 10 14 10 11 0 23 -4
26 -10z m1679 -36 c3 -9 4 -20 1 -24 -3 -5 -1 -11 5 -15 17 -10 11 -25 -12
-35 l-23 -9 23 0 c19 -1 22 -5 18 -27 -6 -34 -6 -34 -50 -39 -38 -5 -50 9 -16
20 20 6 20 7 0 23 -18 15 -20 21 -11 45 6 15 15 27 21 27 5 0 9 3 8 8 -2 11
13 42 22 42 4 0 11 -7 14 -16z m-288 -29 c-3 -8 -2 -15 2 -15 14 0 11 -41 -3
-46 -8 -3 -12 -11 -10 -17 3 -7 -7 -25 -21 -41 -25 -29 -27 -29 -40 -11 -16
22 -19 110 -4 100 5 -3 18 -1 27 4 16 9 14 10 -9 11 -27 0 -35 9 -21 23 3 4
24 7 46 7 31 0 38 -3 33 -15z m-1567 -151 c-15 -18 -78 -46 -96 -42 -8 2 11
30 45 68 l57 64 3 -38 c2 -20 -2 -44 -9 -52z m-549 35 c0 -5 -4 -9 -10 -9 -5
0 -10 7 -10 16 0 8 5 12 10 9 6 -3 10 -10 10 -16z m2136 6 c8 -8 14 -22 12
-32 -2 -10 4 -18 12 -19 8 0 20 -2 27 -2 6 -1 17 -17 24 -34 7 -18 14 -36 17
-40 2 -5 -3 -8 -12 -8 -9 0 -16 5 -16 11 0 8 -5 8 -15 -1 -12 -10 -15 -9 -15
5 0 13 -3 15 -13 7 -9 -8 -21 -5 -45 10 -39 24 -40 33 -4 47 l27 11 -27 -4
c-30 -3 -38 8 -13 18 8 3 15 9 14 13 -3 15 1 33 7 33 3 0 12 -7 20 -15z m256
-33 c-6 -2 -12 -8 -12 -13 0 -6 -11 -22 -25 -37 -22 -23 -27 -25 -35 -12 -14
22 -13 53 2 44 8 -5 9 -2 5 9 -5 14 0 17 36 15 23 -1 36 -3 29 -6z m-92 -53
c0 -31 -3 -40 -14 -36 -17 7 -28 -16 -20 -38 4 -8 1 -15 -5 -15 -6 0 -12 3
-12 8 -1 4 -3 16 -5 27 -1 11 -6 31 -10 45 l-7 25 23 -20 23 -20 -12 22 c-6
12 -11 24 -11 27 0 4 21 12 43 15 4 0 7 -17 7 -40z m-3065 11 c44 -6 89 -10
100 -10 11 -1 77 -7 147 -15 135 -14 194 -36 182 -65 -4 -8 -9 -28 -12 -43 -5
-29 -42 -53 -65 -42 -7 3 -2 -2 11 -11 27 -20 28 -40 2 -47 -11 -3 -20 -1 -20
5 0 6 -7 8 -15 4 -8 -3 -15 -1 -15 5 0 6 -7 9 -15 5 -8 -3 -15 -1 -15 5 0 6
-7 9 -15 5 -8 -3 -15 -1 -15 5 0 6 -7 9 -15 6 -8 -4 -17 -2 -20 4 -4 5 -10 7
-15 4 -5 -3 -11 -1 -15 5 -4 6 -10 8 -15 5 -5 -3 -11 -1 -15 5 -4 6 -10 8 -15
5 -5 -3 -11 -1 -15 4 -3 6 -12 8 -20 4 -8 -3 -15 0 -15 6 0 6 -7 8 -15 5 -8
-4 -15 -1 -15 5 0 6 -7 8 -15 5 -8 -4 -15 -1 -15 6 0 6 -4 9 -9 6 -8 -5 -63
10 -111 31 -19 8 -39 13 -65 16 -11 1 -23 6 -26 10 -4 5 -18 10 -33 10 -14 1
-26 4 -26 5 0 2 15 18 33 36 35 35 39 36 202 16z m1379 -13 c8 -30 -5 -39 -50
-35 -52 4 -59 33 -13 52 39 16 55 12 63 -17z m-1594 3 c0 -5 -7 -7 -15 -4 -8
4 -15 8 -15 10 0 2 7 4 15 4 8 0 15 -4 15 -10z m876 -60 c6 0 14 -23 17 -51 4
-29 20 -80 36 -115 16 -35 26 -66 22 -68 -4 -3 -26 -5 -48 -4 -23 0 -46 -3
-51 -6 -6 -3 -13 -2 -17 4 -4 6 -10 8 -15 5 -5 -3 -11 -1 -15 4 -3 6 -12 8
-20 4 -8 -3 -15 0 -15 7 0 6 -5 8 -11 4 -7 -4 -9 -2 -6 7 3 8 21 60 39 117 29
91 35 102 53 98 11 -3 25 -6 31 -6z m227 -8 c21 -1 37 -6 35 -12 -1 -5 -31
-41 -66 -79 -58 -65 -64 -69 -87 -59 -27 12 -55 73 -55 121 l0 32 68 0 c37 -1
84 -2 105 -3z m441 -3 c60 -28 58 -119 -4 -181 -45 -45 -76 -49 -118 -14 -42
36 -96 141 -83 163 19 34 154 55 205 32z m-281 -98 c28 -11 87 -118 87 -158 0
-13 -12 -36 -26 -50 -23 -23 -31 -25 -82 -20 -90 8 -132 38 -132 93 0 13 115
144 126 144 1 0 14 -4 27 -9z m166 -137 c27 -34 26 -38 -5 -55 -23 -12 -27
-12 -40 6 -8 10 -14 31 -14 47 0 37 31 38 59 2z m-499 -8 c0 -9 -30 -14 -35
-6 -4 6 3 10 14 10 12 0 21 -2 21 -4z m-40 -51 c0 -8 -7 -15 -15 -15 -8 0 -15
7 -15 15 0 8 7 15 15 15 8 0 15 -7 15 -15z m145 -25 c3 -5 -3 -10 -15 -10 -12
0 -18 5 -15 10 3 6 10 10 15 10 5 0 12 -4 15 -10z"/>
<path d="M2130 2810 c0 -5 7 -10 15 -10 8 0 15 5 15 10 0 6 -7 10 -15 10 -8 0
-15 -4 -15 -10z"/>
<path d="M2180 2804 c0 -8 5 -12 10 -9 6 3 10 10 10 16 0 5 -4 9 -10 9 -5 0
-10 -7 -10 -16z"/>
<path d="M2340 2811 c0 -6 5 -13 10 -16 6 -3 10 1 10 9 0 9 -4 16 -10 16 -5 0
-10 -4 -10 -9z"/>
<path d="M1212 1920 c0 -14 2 -19 5 -12 2 6 2 18 0 25 -3 6 -5 1 -5 -13z"/>
<path d="M851 1920 c0 -8 4 -24 9 -35 5 -13 9 -14 9 -5 0 8 -4 24 -9 35 -5 13
-9 14 -9 5z"/>
<path d="M1150 1825 c0 -8 2 -15 4 -15 2 0 6 7 10 15 3 8 1 15 -4 15 -6 0 -10
-7 -10 -15z"/>
<path d="M917 1810 c3 -11 7 -20 9 -20 2 0 4 9 4 20 0 11 -4 20 -9 20 -5 0 -7
-9 -4 -20z"/>
<path d="M871 1805 c1 -19 18 -51 18 -35 0 8 -4 22 -9 30 -5 8 -9 11 -9 5z"/>
<path d="M1205 1799 c-4 -6 -5 -12 -2 -15 2 -3 7 2 10 11 7 17 1 20 -8 4z"/>
<path d="M1216 1675 c-11 -8 -17 -17 -14 -20 2 -3 13 4 23 15 21 23 18 25 -9
5z"/>
<path d="M580 1676 c0 -3 9 -10 20 -16 11 -6 20 -8 20 -6 0 3 -9 10 -20 16
-11 6 -20 8 -20 6z"/>
<path d="M680 1646 c0 -2 7 -7 16 -10 8 -3 12 -2 9 4 -6 10 -25 14 -25 6z"/>
<path d="M670 1586 c0 -2 9 -6 20 -9 11 -3 18 -1 14 4 -5 9 -34 13 -34 5z"/>
<path d="M638 1363 c7 -3 16 -2 19 1 4 3 -2 6 -13 5 -11 0 -14 -3 -6 -6z"/>
<path d="M675 1300 c-3 -6 1 -7 9 -4 18 7 21 14 7 14 -6 0 -13 -4 -16 -10z"/>
<path d="M1290 1086 c0 -2 7 -9 15 -16 13 -11 14 -10 9 4 -5 14 -24 23 -24 12z"/>
<path d="M1430 996 c0 -2 7 -9 15 -16 13 -11 14 -10 9 4 -5 14 -24 23 -24 12z"/>
<path d="M1080 846 c0 -8 4 -17 9 -20 5 -4 7 3 4 14 -6 23 -13 26 -13 6z"/>
<path d="M4450 1795 c0 -8 5 -15 10 -15 6 0 10 7 10 15 0 8 -4 15 -10 15 -5 0
-10 -7 -10 -15z"/>
<path d="M4450 1746 c0 -8 5 -18 10 -21 6 -3 10 1 10 9 0 8 -4 18 -10 21 -5 3
-10 -1 -10 -9z"/>
<path d="M4712 1689 c-13 -16 -20 -29 -15 -29 9 1 47 50 41 54 -1 2 -13 -10
-26 -25z"/>
<path d="M4215 1660 c10 -11 20 -20 22 -20 2 0 -1 9 -7 20 -6 11 -16 20 -22
20 -6 0 -3 -9 7 -20z"/>
<path d="M4865 1460 c-16 -7 -17 -9 -3 -9 9 -1 20 4 23 9 7 11 7 11 -20 0z"/>
<path d="M4740 1220 c0 -5 5 -10 11 -10 5 0 7 5 4 10 -3 6 -8 10 -11 10 -2 0
-4 -4 -4 -10z"/>
<path d="M4770 1206 c0 -3 9 -10 20 -16 11 -6 20 -8 20 -6 0 3 -9 10 -20 16
-11 6 -20 8 -20 6z"/>
<path d="M4550 1150 c0 -5 5 -10 11 -10 5 0 7 5 4 10 -3 6 -8 10 -11 10 -2 0
-4 -4 -4 -10z"/>
<path d="M4550 1125 c0 -5 5 -17 10 -25 5 -8 10 -10 10 -5 0 6 -5 17 -10 25
-5 8 -10 11 -10 5z"/>
<path d="M4347 1103 c-4 -3 -7 -11 -7 -17 0 -6 5 -5 12 2 6 6 9 14 7 17 -3 3
-9 2 -12 -2z"/>
<path d="M4570 1059 c0 -11 4 -18 10 -14 5 3 7 12 3 20 -7 21 -13 19 -13 -6z"/>
</g>
</svg>
