<?xml version="1.0" standalone="no"?>
<!DOCTYPE svg PUBLIC "-//W3C//DTD SVG 20010904//EN"
 "http://www.w3.org/TR/2001/REC-SVG-20010904/DTD/svg10.dtd">
<svg version="1.0" xmlns="http://www.w3.org/2000/svg"
 width="303.000000pt" height="166.000000pt" viewBox="0 0 303.000000 166.000000"
 preserveAspectRatio="xMidYMid meet">

<g transform="translate(0.000000,166.000000) scale(0.100000,-0.100000)"
fill="#000000" stroke="none">
<path d="M856 1653 c-11 -11 -6 -23 9 -23 8 0 19 -9 25 -19 5 -11 20 -23 32
-26 50 -15 98 -41 103 -56 3 -9 16 -21 28 -26 13 -6 28 -26 34 -47 l11 -36
-60 0 c-59 0 -60 -1 -54 -24 3 -14 2 -27 -3 -30 -15 -10 23 -147 47 -165 12
-9 24 -29 27 -46 6 -26 0 -36 -48 -84 l-55 -53 -34 25 c-92 69 -212 108 -336
110 -189 2 -352 -74 -468 -217 -45 -56 -79 -116 -66 -116 5 0 -3 -33 -16 -72
-33 -95 -36 -253 -8 -338 64 -190 207 -332 391 -386 85 -25 239 -23 325 5 176
56 309 186 370 361 l26 75 41 -8 c35 -7 42 -13 55 -46 l15 -38 -37 -37 c-21
-20 -47 -36 -59 -36 -14 0 -21 -6 -21 -19 0 -22 41 -33 94 -24 30 5 36 10 36
29 0 15 6 24 16 24 8 0 12 5 9 10 -3 6 -2 10 4 10 5 0 14 -7 19 -15 5 -9 29
-18 60 -22 72 -8 134 17 173 69 36 50 45 95 30 155 l-12 46 43 44 c23 23 48
43 55 43 7 0 13 6 13 13 0 7 101 113 225 237 180 180 227 222 235 210 18 -28
10 -46 -40 -83 -128 -95 -220 -282 -220 -445 0 -35 4 -61 9 -58 5 3 11 -13 15
-37 52 -339 398 -558 728 -461 181 53 329 203 384 389 26 88 24 240 -5 325
-69 198 -240 349 -434 383 -42 7 -67 16 -67 24 0 7 -6 13 -13 13 -40 0 -182
-23 -215 -34 l-39 -14 -17 49 c-10 26 -15 53 -11 58 3 6 2 28 -4 48 -5 21 -12
50 -15 66 -4 15 -13 27 -21 27 -14 0 -39 47 -51 96 -11 45 82 69 120 32 9 -9
16 -21 16 -27 0 -16 7 -14 29 8 35 35 34 54 -7 81 -20 13 -40 23 -44 22 -13
-3 -9 5 8 23 9 9 14 18 12 21 -3 2 -56 -14 -119 -36 l-114 -40 -3 -45 c-1 -25
5 -62 13 -82 8 -20 14 -37 13 -38 -6 -6 -824 -13 -849 -8 -18 3 -31 16 -42 42
-10 21 -17 43 -17 49 0 7 -4 12 -10 12 -5 0 -7 7 -4 15 4 8 2 15 -3 15 -5 0
-9 10 -9 22 1 29 50 48 129 48 95 0 68 32 -38 44 -67 8 -266 34 -306 41 -15 2
-29 1 -33 -2z m174 -89 c0 -2 -9 -4 -20 -4 -11 0 -20 4 -20 9 0 5 9 7 20 4 11
-3 20 -7 20 -9z m93 -1 c-7 -2 -21 -2 -30 0 -10 3 -4 5 12 5 17 0 24 -2 18 -5z
m947 -283 c6 -12 10 -32 8 -45 -2 -16 -102 -123 -292 -315 -287 -289 -289
-291 -319 -281 -16 6 -42 11 -58 11 -26 0 -29 5 -59 103 -82 262 -160 523
-160 535 0 9 94 12 435 12 428 0 434 0 445 -20z m-906 -478 c43 -138 74 -257
71 -262 -8 -12 -45 -13 -64 -1 -9 6 -12 24 -10 60 2 28 2 51 -1 51 -4 0 -11
26 -18 58 -16 77 -54 155 -109 225 l-46 59 44 44 c29 30 45 40 50 32 4 -7 41
-127 83 -266z m-459 219 c33 -9 59 -22 58 -29 -2 -6 4 -9 11 -6 19 7 68 -25
59 -39 -3 -6 -1 -7 5 -3 7 4 17 4 22 1 10 -6 -225 -240 -241 -240 -4 0 -71 60
-149 134 l-141 135 38 18 c102 50 228 61 338 29z m1870 4 c83 -22 151 -61 216
-125 145 -143 179 -352 88 -545 -31 -67 -140 -174 -210 -208 -60 -28 -87 -35
-161 -44 -45 -5 -48 -4 -49 18 -2 24 -2 24 -6 1 -5 -27 -43 -29 -118 -7 -73
22 -114 43 -168 86 -150 119 -213 305 -166 492 l10 37 158 0 c190 0 199 -4
151 -72 -30 -43 -33 -78 -6 -78 6 0 13 -12 14 -27 3 -37 36 -88 55 -87 9 1 15
-2 12 -6 -15 -24 74 -26 121 -4 29 14 77 74 59 74 -3 0 -7 0 -10 0 -3 0 -4 -2
-2 -5 1 -2 -13 -16 -32 -30 -19 -13 -39 -31 -43 -37 -5 -8 -6 -1 -3 17 3 20 3
24 -3 12 -4 -10 -12 -19 -17 -19 -6 0 -19 -5 -30 -10 -11 -6 -16 -7 -12 -2 4
4 -3 13 -15 20 l-23 12 30 13 c17 7 38 11 48 10 18 -2 47 21 47 38 0 12 23 15
34 4 13 -13 37 -11 43 3 16 43 -56 144 -93 130 -9 -3 -12 -1 -9 4 3 6 -1 10
-9 10 -26 0 -18 -17 15 -31 30 -12 31 -13 13 -27 -18 -13 -18 -14 4 -7 29 8
51 -17 52 -58 0 -28 0 -28 -25 -10 -13 10 -25 27 -25 37 0 11 -3 16 -7 13 -11
-12 -53 35 -53 60 0 13 -5 23 -10 23 -11 0 -163 301 -156 308 3 2 26 10 53 17
66 18 167 18 238 0z m-2149 -200 c67 -69 120 -125 117 -125 -3 0 0 -7 7 -15 7
-8 10 -15 7 -15 -3 0 -13 -3 -23 -7 -13 -5 -16 -3 -11 9 4 12 1 14 -13 11 -24
-6 -53 -50 -44 -65 4 -7 3 -8 -4 -4 -7 4 -12 1 -13 -6 0 -7 -2 -21 -4 -30 -2
-11 3 -18 13 -18 15 0 15 -2 2 -10 -13 -8 -13 -13 0 -37 35 -63 127 -93 178
-57 12 8 27 12 34 8 8 -5 9 0 5 15 -3 13 -3 20 0 17 3 -3 11 2 18 11 11 15 23
15 156 -1 204 -25 189 -20 178 -59 -24 -87 -108 -215 -132 -200 -5 3 -7 1 -3
-5 3 -6 -10 -24 -30 -40 -183 -151 -469 -131 -638 46 -24 25 -35 45 -31 53 5
8 4 10 -3 5 -7 -4 -22 14 -38 46 -72 141 -72 294 -1 434 33 65 76 116 89 107
6 -3 8 -1 4 5 -5 9 37 52 52 52 3 0 61 -56 128 -125z m1824 40 c28 -47 49 -89
46 -94 -4 -5 -64 -9 -135 -8 l-129 1 10 27 c12 34 125 159 143 159 8 0 37 -38
65 -85z m-1303 -8 c34 -45 76 -133 87 -179 6 -28 6 -28 -46 -30 l-53 -2 51 -3
c51 -4 52 -5 59 -40 3 -19 2 -40 -3 -45 -6 -6 -63 -3 -152 6 -78 9 -146 16
-151 16 -5 0 -9 11 -9 25 0 33 -20 75 -37 75 -7 0 -13 2 -13 5 0 9 215 215
225 214 6 0 24 -19 42 -42z m490 -258 c25 -9 26 -11 10 -20 -18 -11 -47 3 -47
22 0 11 3 11 37 -2z m962 -11 c-2 -13 3 -34 10 -47 11 -19 11 -25 0 -32 -33
-21 -53 -5 -56 41 -2 33 6 44 45 59 2 0 2 -9 1 -21z m-869 -112 c0 -35 -4 -45
-20 -49 -11 -3 -18 -1 -14 4 3 5 2 9 -3 9 -4 0 -15 5 -23 10 -12 8 -10 14 15
40 16 16 32 30 37 30 4 0 8 -20 8 -44z m-873 8 c-3 -3 -12 -4 -19 -1 -8 3 -5
6 6 6 11 1 17 -2 13 -5z m646 -56 c-13 -12 -26 -18 -30 -14 -4 4 1 14 11 22
31 22 43 17 19 -8z m187 -23 c11 -14 10 -19 -6 -36 -24 -24 -81 -42 -90 -28
-3 6 -3 25 0 43 10 54 60 65 96 21z m-120 -22 c0 -28 -15 -44 -34 -37 -16 6
-15 9 5 30 27 29 29 29 29 7z m-210 -103 c0 -5 -4 -10 -10 -10 -5 0 -10 5 -10
10 0 6 5 10 10 10 6 0 10 -4 10 -10z m90 0 c0 -5 -5 -10 -11 -10 -5 0 -7 5 -4
10 3 6 8 10 11 10 2 0 4 -4 4 -10z"/>
<path d="M700 460 c8 -5 22 -10 30 -10 13 0 13 1 0 10 -8 5 -22 10 -30 10 -13
0 -13 -1 0 -10z"/>
<path d="M768 443 c7 -3 16 -2 19 1 4 3 -2 6 -13 5 -11 0 -14 -3 -6 -6z"/>
</g>
</svg>
