<?xml version="1.0" standalone="no"?>
<!DOCTYPE svg PUBLIC "-//W3C//DTD SVG 20010904//EN"
 "http://www.w3.org/TR/2001/REC-SVG-20010904/DTD/svg10.dtd">
<svg version="1.0" xmlns="http://www.w3.org/2000/svg"
 width="1000.000000pt" height="1000.000000pt" viewBox="0 0 1000.000000 1000.000000"
 preserveAspectRatio="xMidYMid meet">

<g transform="translate(0.000000,1000.000000) scale(0.100000,-0.100000)"
fill="#000000" stroke="none">
<path d="M6607 7650 l-58 -40 -122 25 c-154 32 -170 32 -196 -1 -34 -43 -25
-86 24 -112 17 -10 15 -11 -18 -12 -39 0 -76 -14 -89 -34 -18 -26 -8 -75 19
-95 14 -12 24 -23 22 -24 -2 -2 -19 -14 -36 -26 -18 -12 -33 -29 -33 -37 0
-32 32 -23 109 31 45 31 81 53 81 48 0 -4 -35 -32 -76 -62 -139 -98 -139 -117
19 -574 64 -186 117 -350 117 -365 0 -40 -18 -63 -250 -337 -117 -137 -399
-469 -627 -737 -272 -320 -420 -488 -433 -488 -13 0 -17 -5 -13 -18 3 -13 -14
-39 -55 -82 -49 -51 -65 -62 -84 -57 -83 19 -184 37 -209 37 -34 0 20 -166
-433 1326 -64 210 -116 386 -116 392 0 6 -6 17 -14 25 -8 7 -36 85 -64 173
-27 87 -53 167 -57 177 -6 14 -2 17 27 17 24 0 55 13 99 42 l64 42 158 -3
c137 -3 157 -1 157 12 0 31 -24 69 -53 84 -24 12 -381 71 -1065 174 -66 10
-75 10 -93 -7 -31 -28 -21 -57 29 -74 23 -8 42 -20 42 -28 0 -45 152 -166 177
-141 6 6 33 -10 77 -46 63 -51 71 -55 120 -55 l53 0 6 -56 c3 -31 7 -58 10
-60 2 -2 28 -7 57 -11 l54 -8 33 -105 c18 -58 33 -108 33 -112 0 -5 -72 -8
-160 -8 l-159 0 14 -41 c20 -55 19 -86 -2 -97 -15 -9 -13 -25 26 -193 l43
-184 -133 -131 -132 -132 -86 64 c-457 338 -1081 394 -1597 144 -299 -145
-563 -400 -706 -683 l-30 -60 30 6 30 6 -33 -82 c-125 -310 -152 -600 -84
-915 126 -586 602 -1042 1209 -1158 130 -24 388 -25 520 0 470 86 875 389
1086 811 31 60 57 111 58 113 4 4 346 -84 352 -91 4 -3 -13 -29 -36 -56 -42
-50 -44 -51 -99 -51 l-56 0 0 -45 c0 -44 1 -45 35 -51 19 -4 48 -17 63 -30 36
-31 68 -30 96 0 18 19 38 26 88 32 46 5 61 10 54 17 -15 15 -14 50 1 65 9 9 8
12 -7 12 -16 0 -13 6 15 35 18 19 37 32 43 28 24 -15 219 -53 272 -53 349 -1
581 361 438 682 l-26 58 74 86 c41 47 90 106 109 130 25 30 43 43 61 44 22 0
26 4 22 24 -4 19 90 134 527 650 338 398 538 626 550 626 27 0 39 -21 75 -131
l33 -102 -97 -72 c-309 -231 -520 -564 -601 -950 -22 -105 -41 -435 -25 -435
5 0 19 10 32 22 l23 21 0 -35 c0 -65 37 -243 74 -353 75 -223 189 -408 356
-576 58 -58 136 -128 174 -156 193 -142 421 -238 667 -279 147 -24 414 -15
559 19 607 145 1049 612 1155 1222 21 119 21 371 0 490 -112 648 -603 1137
-1243 1240 -153 25 -147 23 -128 44 9 10 16 21 16 26 0 4 -78 5 -172 2 -188
-6 -307 -26 -458 -77 -47 -15 -88 -25 -92 -21 -4 3 -35 85 -68 181 -58 165
-60 177 -47 205 12 27 11 41 -9 130 -12 55 -30 135 -39 178 l-17 77 -37 0
c-24 0 -44 7 -53 18 -17 19 -169 457 -168 484 0 15 135 138 150 137 3 0 15
-13 27 -28 l23 -29 -22 -39 c-24 -44 -19 -73 12 -73 20 0 22 4 24 50 1 19 7
26 28 28 26 3 39 17 144 145 9 11 13 25 10 32 -2 7 2 16 10 19 39 15 -8 58
-78 70 -41 7 -58 24 -37 36 16 11 -2 36 -34 46 -19 6 -19 8 13 34 29 23 33 31
24 49 -9 22 -10 21 -67 -19z m-2628 -756 l164 -6 -24 -20 c-16 -13 -18 -18 -6
-14 24 8 21 -1 -4 -15 -15 -8 -19 -8 -15 0 9 14 -7 14 -21 0 -7 -7 -32 -9 -69
-4 -59 6 -109 7 -236 2 -65 -2 -69 -1 -103 33 l-35 35 93 -2 c50 -2 166 -6
256 -9z m8 -136 c-3 -8 -6 -5 -6 6 -1 11 2 17 5 13 3 -3 4 -12 1 -19z m74
-179 c42 -138 44 -148 30 -133 -10 10 -81 239 -81 260 0 8 -5 14 -11 14 -5 0
-7 5 -3 11 10 18 22 -9 65 -152z m2217 -580 c-2 -4 -14 -1 -28 7 -14 9 -17 13
-7 10 12 -4 17 0 18 17 0 22 0 21 10 -2 5 -13 8 -28 7 -32z m-24 -23 c9 -13 7
-20 -8 -31 -23 -17 -46 -4 -46 25 0 32 36 36 54 6z m-51 -44 c23 -25 7 -48
-22 -33 -23 13 -23 13 -15 35 8 21 17 20 37 -2z m-32 -54 c10 -19 9 -20 -10
-15 -18 4 -21 2 -16 -14 8 -23 -4 -24 -31 -4 -19 15 -19 15 0 8 15 -5 18 -3
13 10 -4 12 -1 17 9 17 11 0 14 6 10 16 -8 21 11 7 25 -18z m-2301 -60 c6 -13
75 -237 154 -498 79 -261 155 -512 169 -557 l25 -83 -91 0 -92 0 -18 93 c-52
267 -187 537 -375 746 l-62 69 133 126 c72 69 135 126 140 126 4 0 12 -10 17
-22z m2245 6 c15 -15 15 -18 -1 -35 -13 -14 -21 -16 -35 -8 -22 11 -24 30 -7
47 16 16 23 15 43 -4z m-75 -49 c-6 -8 -9 -19 -5 -25 8 -13 35 -13 35 0 0 6 5
10 11 10 8 0 8 -5 -1 -15 -7 -8 -18 -15 -25 -15 -7 0 -18 7 -25 15 -10 12 -10
18 0 30 7 8 15 15 17 15 3 0 0 -7 -7 -15z m-3488 -90 l-2 -30 14 31 c11 25 19
31 38 28 12 -2 56 -8 96 -15 l72 -11 1 -51 2 -52 6 42 c4 24 10 45 14 49 6 6
166 -43 179 -55 4 -4 -4 -49 -18 -100 -14 -51 -23 -95 -21 -98 3 -2 8 10 12
29 8 35 45 151 50 156 4 4 134 -62 158 -80 17 -13 8 -26 -129 -181 -82 -91
-149 -165 -150 -164 -2 1 10 50 27 107 16 58 28 109 26 114 -2 5 -18 -47 -37
-115 -35 -128 -42 -142 -129 -234 -93 -100 -181 -202 -181 -211 1 -5 9 1 19
13 22 26 162 181 209 232 36 39 36 39 16 -39 -4 -14 -3 -22 1 -18 4 4 13 31
20 61 11 49 27 70 175 235 l163 181 46 -31 45 -32 -223 -218 c-123 -120 -227
-215 -232 -212 -5 3 -9 -1 -9 -8 0 -12 -79 -98 -90 -98 -4 0 -4 15 -2 33 3 17
2 30 -1 26 -4 -3 -8 -22 -9 -43 -3 -32 -11 -46 -51 -79 l-48 -41 -70 70 c-39
38 -81 90 -95 116 l-24 47 26 112 c13 61 23 116 21 122 -2 6 -11 -30 -22 -79
-29 -141 -28 -140 -70 -49 -35 77 -37 84 -38 195 l-1 115 -5 -100 -6 -100 -92
204 c-51 113 -91 206 -90 208 4 4 115 30 160 38 l37 6 2 -93 2 -93 3 92 c4
106 -2 101 133 99 l75 -1 -3 -30z m4939 -7 c2 -28 2 -29 6 -8 3 14 8 28 12 32
7 8 172 -15 189 -26 5 -3 8 -18 5 -33 l-3 -28 10 25 c6 13 13 26 15 28 4 5
154 -44 174 -57 11 -7 11 -16 -3 -57 -9 -26 -14 -49 -12 -51 2 -2 12 19 22 47
13 37 22 49 34 45 32 -12 160 -89 160 -96 0 -8 -364 -495 -388 -519 -13 -13
-14 -13 -7 5 46 125 175 498 172 501 -2 3 -34 -80 -70 -183 -126 -358 -136
-386 -153 -404 -9 -11 -12 -19 -7 -19 10 0 -25 -111 -40 -126 -3 -4 -13 -1
-22 6 -13 11 -10 19 21 64 33 47 18 34 -27 -23 -18 -23 -19 -23 -64 -7 -60 20
-104 12 -98 -18 3 -11 -4 -3 -16 19 -19 34 -20 46 -12 85 6 25 12 72 15 105 4
45 1 37 -11 -32 -8 -51 -18 -91 -22 -89 -3 2 -5 -18 -4 -45 1 -27 -1 -49 -5
-49 -9 0 -32 49 -32 67 0 7 -4 13 -9 13 -5 0 -16 17 -24 38 -8 20 -78 165
-154 322 -156 318 -198 409 -192 414 13 11 104 35 110 29 4 -5 28 -65 55 -135
26 -70 49 -126 51 -124 2 2 -17 58 -42 125 -25 67 -45 128 -45 136 0 14 114
45 169 45 30 0 30 0 34 -62 l3 -63 2 68 2 67 100 0 100 0 1 -32z m-5259 -238
c53 -118 98 -222 98 -232 0 -9 3 -18 8 -20 4 -1 22 -37 41 -78 18 -41 40 -87
47 -102 24 -45 16 -42 -41 13 -51 50 -55 57 -57 104 l-1 50 -6 -43 -6 -43 -57
58 c-66 67 -322 433 -311 444 14 14 158 69 172 66 8 -1 58 -96 113 -217z
m-285 112 c39 -53 189 -267 197 -282 5 -8 -57 50 -137 130 l-146 144 27 18
c35 23 35 23 59 -10z m93 -337 c151 -151 277 -283 279 -292 7 -33 -11 -163
-22 -163 -7 1 -61 24 -120 53 l-108 52 -159 305 c-135 260 -162 320 -146 320
1 0 125 -124 276 -275z m4712 213 c20 -35 85 -147 146 -250 l110 -186 -87 1
-86 2 -140 150 c-202 216 -184 186 -133 233 24 22 58 52 76 67 40 33 16 60
198 -228 75 -119 139 -216 141 -214 2 3 -62 108 -142 235 -80 127 -145 236
-145 242 0 28 30 3 62 -52z m1426 18 c31 -24 65 -53 75 -64 18 -20 18 -21 -12
-49 -17 -15 -158 -145 -315 -288 -157 -143 -283 -261 -281 -263 3 -3 363 320
603 542 l34 31 64 -70 c35 -38 64 -75 64 -81 0 -14 -664 -594 -679 -594 -6 0
-15 10 -22 21 -6 12 -29 41 -51 65 -30 32 -38 48 -33 61 5 10 9 23 10 29 10
46 53 145 75 174 14 19 111 146 214 283 103 136 189 247 192 247 3 0 31 -20
62 -44z m-6341 -158 c50 -95 124 -236 163 -313 40 -77 81 -155 92 -173 11 -18
18 -35 16 -37 -2 -2 -23 1 -46 7 -34 8 -52 23 -97 79 -30 37 -55 70 -55 74 0
3 27 -9 61 -26 34 -16 63 -28 65 -26 2 2 -31 22 -75 43 l-80 39 -147 189 -148
189 70 63 c38 35 74 64 80 64 6 0 51 -78 101 -172z m1570 30 c61 -64 119 -142
160 -215 l36 -66 -24 -18 c-13 -10 -100 -71 -194 -136 l-170 -117 -90 -12
c-49 -7 -91 -11 -92 -10 -2 1 101 105 227 231 126 126 228 231 226 233 -2 2
-113 -104 -246 -235 l-242 -238 -66 -8 c-64 -8 -67 -8 -85 17 -13 18 -28 26
-48 26 -16 0 -29 3 -29 6 0 7 582 583 590 584 3 0 24 -19 47 -42z m-1687 -170
c74 -95 136 -178 138 -185 2 -7 7 -13 11 -13 8 0 121 -142 121 -152 0 -3 -113
26 -251 64 -139 38 -253 67 -256 65 -3 -4 108 -36 410 -118 l119 -33 78 -100
c44 -56 76 -104 72 -107 -4 -4 -41 -15 -82 -24 -41 -10 -70 -20 -63 -22 6 -2
35 3 64 11 72 22 88 21 82 -4 -3 -12 -26 -32 -52 -45 -25 -13 -41 -24 -36 -24
6 0 21 6 35 14 41 23 50 19 50 -25 0 -22 -3 -40 -7 -40 -18 0 -93 34 -93 42 0
5 -4 7 -9 4 -5 -3 -32 4 -61 16 l-53 22 34 12 c19 7 26 13 16 13 -10 1 -27 -4
-38 -10 -16 -8 -35 -5 -86 16 -36 14 -67 24 -70 22 -2 -3 19 -13 47 -23 27
-10 50 -21 50 -24 0 -11 -180 -51 -212 -47 -18 2 -24 2 -14 0 16 -4 17 -7 5
-15 -10 -7 -6 -8 15 -3 33 7 222 -33 209 -45 -12 -11 -595 -272 -599 -267 -5
4 -31 112 -38 158 l-7 37 87 23 c48 13 83 24 78 26 -5 2 -43 -5 -84 -16 l-75
-19 -6 27 c-4 14 -7 59 -8 99 l-1 72 33 1 32 1 -27 10 c-24 8 -28 16 -28 46 0
62 21 164 34 159 6 -2 22 -7 36 -11 19 -5 18 -2 -7 11 -18 9 -33 20 -33 24 0
13 49 163 58 176 6 10 17 10 46 2 51 -14 57 -5 6 10 -22 6 -40 15 -40 19 0 7
85 161 94 169 2 3 22 -5 45 -16 56 -29 65 -26 14 5 -24 14 -43 28 -43 31 0 11
42 63 51 63 6 0 25 -11 42 -24 69 -51 76 -46 16 12 l-42 39 24 32 c12 17 25
31 28 31 3 -1 67 -78 141 -172z m4950 10 c82 -90 150 -165 150 -168 0 -3 -30
-3 -68 0 -62 5 -79 12 -214 88 -81 45 -149 86 -152 90 -3 5 6 21 20 35 l25 28
37 -29 c50 -39 73 -50 39 -18 -15 14 -24 26 -20 26 4 0 -5 9 -20 19 l-29 18
32 37 c18 20 36 36 41 36 4 0 76 -73 159 -162z m1824 -77 c34 -59 36 -64 19
-76 -29 -22 -596 -352 -615 -358 -10 -4 -18 -11 -18 -17 0 -10 79 25 90 39 10
14 561 333 566 328 7 -6 75 -180 71 -182 -1 -1 -15 -7 -32 -13 l-30 -11 35 2
35 2 18 -93 c11 -52 17 -96 14 -99 -3 -3 -48 -8 -99 -13 l-93 -7 97 -2 97 -1
6 -32 c3 -18 5 -62 3 -98 l-3 -65 -120 -5 -120 -6 119 -2 119 -2 -7 -68 c-11
-112 -17 -126 -57 -133 -28 -5 -29 -7 -8 -8 14 0 28 -4 32 -7 7 -7 -16 -87
-43 -150 l-20 -45 -205 106 c-113 59 -205 104 -205 102 0 -3 88 -51 196 -108
108 -56 198 -108 201 -115 4 -12 -47 -113 -79 -157 -13 -17 -39 1 -353 240
-319 244 -337 258 -309 265 l29 7 -30 -1 c-46 0 -77 12 -71 29 3 8 6 19 6 24
0 17 30 9 98 -26 37 -19 74 -39 82 -44 40 -24 220 -111 220 -107 0 3 -28 20
-62 37 -35 17 -70 37 -78 44 -8 7 -26 16 -40 20 -13 4 -54 24 -90 44 l-65 36
205 5 205 6 -222 1 c-123 1 -226 4 -230 6 -5 3 -7 42 -7 88 1 60 6 84 15 88
23 10 109 63 109 67 0 3 -29 -11 -64 -31 l-64 -36 -8 23 c-4 13 -2 24 4 26 5
1 23 15 39 30 35 34 353 310 521 454 144 122 124 122 196 -1z m-1912 -38 c48
-27 88 -50 88 -53 0 -3 -88 -4 -195 -2 l-195 3 21 42 c12 23 33 61 46 85 l25
43 62 -36 c33 -19 100 -56 148 -82z m-2933 -107 c36 -88 38 -106 11 -106 -11
0 -20 -4 -20 -9 0 -4 11 -6 24 -4 21 4 26 0 35 -33 6 -22 14 -56 17 -76 l7
-38 -312 0 c-171 0 -311 2 -311 4 0 2 26 21 58 42 49 33 71 41 162 55 58 9 94
17 80 18 -14 0 -52 -3 -84 -9 -33 -5 -61 -8 -64 -6 -6 7 350 246 358 241 5 -3
22 -38 39 -79z m-1284 -114 c-8 -26 -15 -56 -15 -67 1 -34 17 4 24 58 4 26 9
47 12 47 2 0 26 -23 53 -52 52 -55 55 -78 12 -79 -14 0 -35 -4 -46 -8 -23 -9
-74 17 -76 39 -2 24 -2 51 0 110 l2 55 24 -28 c23 -26 24 -29 10 -75z m4554
31 c84 -48 152 -116 134 -134 -6 -6 -93 19 -242 71 -129 45 -235 79 -237 77
-2 -2 96 -38 219 -81 122 -42 227 -80 234 -84 8 -5 2 -23 -22 -62 -37 -59 -42
-79 -23 -98 15 -15 1 -16 -41 -1 -18 6 -34 9 -37 6 -3 -3 16 -12 43 -19 29 -9
47 -20 45 -28 -2 -9 5 -11 28 -7 28 6 30 5 30 -23 0 -29 -1 -30 -42 -26 -34 3
-37 2 -13 -4 l30 -7 -33 -13 c-18 -7 -31 -14 -28 -17 2 -3 20 3 40 12 43 21
52 16 59 -32 4 -21 15 -55 26 -76 16 -32 17 -39 5 -44 -8 -3 -14 -10 -14 -15
0 -6 -26 -42 -57 -82 -39 -49 -79 -85 -123 -113 -36 -22 -162 -102 -282 -177
-119 -75 -219 -136 -221 -136 -5 0 -73 105 -96 147 -10 21 -8 24 36 47 55 28
53 34 -2 10 -21 -8 -43 -13 -50 -10 -11 4 -80 175 -73 181 2 2 114 45 250 96
136 51 246 94 244 96 -2 2 -112 -37 -245 -87 -133 -49 -245 -90 -250 -90 -8 0
-41 153 -41 187 0 6 19 16 43 22 l42 11 -43 -4 c-51 -5 -54 2 -50 119 l3 79
50 -1 c54 -3 52 2 -7 12 -35 5 -38 9 -38 39 0 42 19 149 29 159 4 4 81 -15
170 -43 90 -28 165 -50 167 -47 2 2 -73 28 -166 57 -189 60 -176 47 -144 137
l15 42 298 0 298 1 82 -47z m11 22 c28 -30 42 -24 15 6 l-19 20 67 -2 68 -2
30 -45 c20 -29 27 -48 20 -55 -5 -5 -7 -16 -4 -23 3 -8 3 -14 0 -14 -9 0 -102
53 -120 69 -10 8 -23 16 -30 17 -14 2 -87 44 -87 50 0 14 40 0 60 -21z m-4726
-87 c58 -28 106 -57 106 -65 0 -15 -8 -14 -117 14 -58 15 -65 20 -87 59 -14
24 -21 44 -16 44 5 0 56 -23 114 -52z m3176 14 c0 -4 -19 -6 -42 -4 -71 5 -77
10 -15 11 31 0 57 -2 57 -7z m2071 -35 c-16 -16 -26 0 -10 19 9 11 15 12 17 4
2 -6 -1 -17 -7 -23z m-376 -7 c12 -19 -12 -10 -31 11 -19 22 -19 22 3 10 12
-6 25 -16 28 -21z m-4970 -10 c21 -8 102 -157 91 -167 -3 -4 -6 -1 -6 6 0 7
-4 10 -9 7 -5 -3 -24 13 -43 37 -19 23 -51 64 -73 90 l-38 48 29 -7 c16 -4 38
-10 49 -14z m5312 -37 c13 -26 22 -40 19 -30 -19 61 -19 69 0 64 11 -4 31 -9
47 -13 15 -3 27 -11 27 -16 0 -17 -61 -88 -71 -83 -5 4 -6 -1 -3 -9 10 -27 -5
-17 -20 13 -9 16 -13 31 -9 34 3 4 -2 18 -11 31 -9 14 -16 35 -16 47 0 28 6
22 37 -38z m123 48 c0 -12 -20 -25 -27 -18 -7 7 6 27 18 27 5 0 9 -4 9 -9z
m-5030 -21 c0 -5 -4 -10 -10 -10 -5 0 -10 5 -10 10 0 6 5 10 10 10 6 0 10 -4
10 -10z m670 7 c0 -2 -21 -19 -47 -38 -40 -28 -59 -35 -115 -39 -38 -3 -68 -3
-68 1 0 3 12 16 28 30 19 17 48 27 97 35 79 13 105 15 105 11z m-932 -39 c34
-11 62 -23 62 -27 -1 -3 -16 -24 -35 -46 l-34 -40 -14 33 c-13 30 -32 36 -20
6 3 -8 3 -14 0 -14 -6 0 -67 104 -67 114 0 8 13 5 108 -26z m707 -18 c-33 -35
-60 -38 -75 -11 -5 11 -10 22 -10 25 0 5 40 12 84 15 l30 1 -29 -30z m4645 20
c0 -5 -4 -10 -10 -10 -5 0 -10 5 -10 10 0 6 5 10 10 10 6 0 10 -4 10 -10z
m-90 -47 c-43 -46 -43 -46 -5 -10 42 38 75 48 75 22 0 -8 7 -15 16 -15 8 0 13
-4 9 -10 -3 -5 -12 -7 -20 -3 -8 3 -15 -1 -15 -8 0 -7 -3 -10 -6 -6 -3 3 -25
-3 -49 -13 -38 -16 -44 -17 -49 -4 -7 19 51 94 73 94 10 0 -1 -17 -29 -47z
m-3425 -3 c11 9 19 10 28 1 10 -8 17 -7 25 1 9 9 15 9 24 0 9 -9 15 -9 25 0
23 19 38 -8 76 -131 35 -110 37 -148 10 -164 -5 -3 -57 -1 -116 5 l-107 11 0
67 c0 37 -3 103 -7 146 -6 73 -5 78 10 65 14 -11 20 -11 32 -1z m3588 -5 c1
-6 -10 -11 -25 -13 -31 -4 -39 14 -10 21 23 6 33 4 35 -8z m-4673 -15 c10 0
21 6 23 13 4 8 6 8 6 0 1 -10 -98 -89 -103 -81 -12 19 -23 57 -19 62 4 3 19 6
35 6 15 0 28 6 29 13 0 10 2 10 6 0 2 -7 13 -13 23 -13z m85 10 c3 -5 1 -10
-4 -10 -6 0 -11 5 -11 10 0 6 2 10 4 10 3 0 8 -4 11 -10z m50 0 c3 -5 -1 -10
-10 -10 -9 0 -13 5 -10 10 3 6 8 10 10 10 2 0 7 -4 10 -10z m55 0 c0 -5 -7
-10 -16 -10 -8 0 -12 5 -9 10 3 6 10 10 16 10 5 0 9 -4 9 -10z m55 0 c4 -6 12
-7 18 -3 13 8 419 12 450 5 9 -2 17 -11 17 -18 0 -11 -22 -14 -97 -16 l-98 -2
96 -3 c112 -4 109 0 109 -120 0 -62 -3 -73 -17 -73 -56 0 -780 83 -795 91 -26
14 -11 38 53 84 l52 37 106 0 c58 0 98 2 88 5 -9 2 -15 9 -12 14 8 12 22 12
30 -1z m4395 -39 c8 -16 6 -20 -8 -24 -13 -4 -11 -5 6 -6 39 -2 27 -42 -24
-80 -24 -19 -46 -32 -48 -30 -2 2 -6 19 -9 37 l-6 32 47 2 47 2 -47 3 -47 4
11 32 c17 50 58 65 78 28z m-80 -8 c0 -2 -8 -12 -17 -23 -16 -18 -18 -18 -36
-3 -18 17 -18 18 0 24 17 6 53 8 53 2z m145 -23 c-3 -5 -13 -10 -21 -10 -8 0
-14 5 -14 10 0 6 9 10 21 10 11 0 17 -4 14 -10z m-450 -20 c3 -5 2 -10 -4 -10
-5 0 -13 5 -16 10 -3 6 -2 10 4 10 5 0 13 -4 16 -10z m-5035 -9 c0 -5 -7 -11
-14 -14 -10 -4 -13 -1 -9 9 6 15 23 19 23 5z m5025 -37 c-17 -13 -45 -9 -45 6
0 11 31 18 49 12 11 -4 10 -8 -4 -18z m424 -1 c-5 -11 -70 -55 -76 -50 -2 2
13 19 33 36 33 30 50 35 43 14z m-482 -10 c2 -6 -5 -14 -17 -18 -26 -8 -80 3
-80 17 0 6 6 8 13 5 8 -3 20 -1 28 4 18 12 51 7 56 -8z m73 -8 c0 -8 -7 -15
-15 -15 -26 0 -18 20 13 29 1 1 2 -6 2 -14z m470 5 c0 -13 -11 -13 -30 0 -12
8 -11 10 8 10 12 0 22 -4 22 -10z m-5754 -32 l49 -21 -50 -23 -50 -23 -88 21
c-48 11 -86 23 -83 25 6 6 136 41 157 42 9 1 38 -9 65 -21z m228 16 c9 -3 16
-13 16 -21 0 -10 -6 -13 -16 -9 -9 3 -20 6 -25 6 -5 0 -9 7 -9 15 0 16 9 19
34 9z m5024 -17 c12 -13 19 -27 15 -30 -3 -4 -1 -7 5 -7 7 0 12 -5 12 -10 0
-6 9 -20 20 -32 27 -29 25 -35 -11 -53 -39 -20 -47 -13 -25 21 10 14 16 28 13
30 -3 3 -17 -16 -31 -41 -15 -25 -33 -45 -41 -45 -14 0 -45 51 -59 98 -7 20
-4 22 26 23 l33 2 -33 6 c-37 7 -44 24 -11 29 12 2 29 10 36 18 19 19 26 18
51 -9z m452 -12 c0 -40 -1 -40 -40 -20 -17 9 -30 13 -30 11 0 -3 14 -12 30
-21 17 -9 30 -22 30 -30 0 -23 -13 -18 -46 16 l-29 31 30 24 c42 33 55 31 55
-11z m-593 19 c-3 -3 -12 -4 -19 -1 -8 3 -5 6 6 6 11 1 17 -2 13 -5z m-4979
-60 c42 -19 62 -33 62 -44 0 -16 -5 -17 -41 -9 -23 6 -47 8 -53 6 -6 -2 9 -7
34 -12 25 -4 50 -10 57 -14 7 -4 -15 -42 -63 -110 l-73 -104 -118 -38 c-65
-22 -136 -44 -158 -50 -22 -7 -35 -13 -30 -15 6 -2 71 16 145 41 74 25 137 45
142 45 4 0 -20 -38 -54 -85 -33 -47 -64 -85 -68 -85 -4 0 -10 -8 -12 -18 -4
-13 -223 -329 -245 -352 -7 -6 -133 132 -133 145 0 6 80 52 178 104 97 51 182
98 187 104 9 9 -129 -62 -313 -160 -34 -18 -64 -33 -67 -33 -5 0 -105 162
-105 170 0 3 74 30 165 60 91 29 163 55 161 57 -2 3 -75 -18 -161 -47 -87 -28
-163 -49 -170 -46 -11 4 -75 152 -75 174 0 10 11 16 350 169 l275 125 63 -12
c35 -7 65 -10 68 -7 3 3 -14 8 -38 12 -61 10 -65 16 -27 36 44 24 43 24 117
-7z m4992 6 c0 -5 -2 -10 -4 -10 -3 0 -8 5 -11 10 -3 6 -1 10 4 10 6 0 11 -4
11 -10z m546 -64 c9 -27 -6 -34 -53 -24 -47 10 -60 32 -42 71 l11 25 39 -26
c21 -15 41 -35 45 -46z m79 64 c3 -5 -1 -10 -9 -10 -8 0 -18 5 -21 10 -3 6 1
10 9 10 8 0 18 -4 21 -10z m-5505 -30 c0 -5 -4 -10 -9 -10 -6 0 -13 5 -16 10
-3 6 1 10 9 10 9 0 16 -4 16 -10z m515 -69 c-8 -17 -21 -31 -27 -31 -6 0 -3 9
7 20 10 11 15 20 11 20 -4 0 -1 6 6 14 20 21 21 11 3 -23z m4395 29 c0 -5 -9
-10 -20 -10 -11 0 -20 5 -20 10 0 6 9 10 20 10 11 0 20 -4 20 -10z m426 -45
c18 -45 20 -56 8 -66 -19 -16 -30 -5 -43 45 -10 42 -7 76 8 76 3 0 16 -25 27
-55z m144 40 c7 -8 8 -15 2 -15 -5 0 -15 7 -22 15 -7 8 -8 15 -2 15 5 0 15 -7
22 -15z m-4845 -5 c3 -5 -1 -10 -9 -10 -9 0 -16 5 -16 10 0 6 4 10 9 10 6 0
13 -4 16 -10z m2207 -61 c17 -80 11 -89 -61 -89 -98 0 -99 2 -29 86 34 41 65
71 70 66 4 -4 13 -33 20 -63z m2451 -18 c-2 -3 -11 2 -20 11 -11 12 -13 24 -8
45 l8 28 12 -40 c7 -22 11 -42 8 -44z m-4558 37 l40 -33 -50 -6 -50 -6 55 -1
c53 -2 59 -5 123 -61 37 -33 62 -63 56 -66 -5 -4 -16 -2 -23 4 -7 6 -21 9 -30
5 -9 -4 -16 -1 -16 6 0 8 -9 10 -24 6 -16 -4 -26 -1 -30 10 -4 10 -13 13 -25
9 -11 -3 -22 -1 -26 5 -4 6 -15 8 -26 5 -11 -4 -19 -2 -19 5 0 8 -9 10 -25 6
-14 -4 -25 -2 -25 4 0 5 -10 10 -22 10 -13 0 -34 9 -48 20 -34 26 -15 44 47
44 l48 -1 -42 4 c-46 4 -50 10 -30 35 28 37 94 35 142 -4z m83 23 c49 -8 75
-19 128 -55 36 -25 67 -46 69 -46 2 0 67 -40 145 -89 78 -50 147 -92 153 -94
7 -2 8 -8 4 -13 -4 -4 -17 -3 -27 4 -11 6 -26 9 -35 6 -8 -4 -15 -1 -15 6 0 8
-9 10 -25 6 -16 -4 -25 -2 -25 5 0 7 -9 9 -24 5 -16 -4 -26 -1 -30 10 -4 10
-13 13 -25 9 -11 -3 -22 -1 -26 5 -4 6 -15 8 -26 5 -11 -4 -19 -2 -19 5 0 8
-9 10 -25 6 -14 -4 -25 -2 -25 4 0 5 -8 10 -17 10 -10 1 -49 30 -88 65 l-70
65 80 -5 80 -4 -93 12 c-86 12 -95 15 -129 50 -43 42 -41 43 65 28z m4335 0
c25 -10 25 -10 9 -45 -9 -20 -20 -36 -24 -36 -4 0 -8 -8 -8 -18 0 -24 -8 -32
-26 -25 -20 7 -20 113 0 113 8 0 17 -10 19 -22 2 -13 3 -8 1 10 -3 36 -4 35
29 23z m255 -7 c5 -4 -31 -53 -39 -54 -4 0 -9 8 -12 18 -2 9 -8 25 -12 34 -6
16 -3 17 26 12 19 -4 36 -8 37 -10z m-5418 -36 c0 -4 -29 -66 -65 -137 -36
-70 -65 -130 -65 -133 0 -3 -63 -134 -140 -292 l-140 -287 -42 30 c-24 17 -60
46 -82 64 l-39 33 99 140 c54 76 116 165 138 197 22 31 43 57 48 57 4 0 8 5 8
10 0 12 100 153 112 158 5 2 8 8 8 13 0 5 30 50 67 100 61 83 68 90 80 73 7
-10 13 -21 13 -26z m20 38 c0 -3 -4 -8 -10 -11 -5 -3 -10 -1 -10 4 0 6 5 11
10 11 6 0 10 -2 10 -4z m555 -6 c3 -5 1 -10 -4 -10 -6 0 -11 5 -11 10 0 6 2
10 4 10 3 0 8 -4 11 -10z m4655 -12 c0 -6 -7 -7 -16 -4 -13 5 -14 4 -5 -7 8
-10 7 -25 -5 -59 -12 -37 -19 -45 -35 -41 -25 7 -24 12 8 77 17 35 31 52 40
49 7 -3 13 -10 13 -15z m30 18 c0 -3 -4 -8 -10 -11 -5 -3 -10 -1 -10 4 0 6 5
11 10 11 6 0 10 -2 10 -4z m-4030 -46 c140 -17 260 -33 267 -35 6 -2 9 -13 6
-25 -6 -21 -10 -21 -102 -16 l-96 5 87 -12 c48 -7 90 -15 93 -19 10 -10 -32
-144 -50 -162 -14 -14 -19 -13 -50 4 -62 35 -326 203 -323 205 2 2 43 -1 91
-6 49 -6 101 -9 115 -7 15 2 -33 9 -107 17 -127 12 -137 15 -188 48 -29 20
-53 38 -53 40 0 3 12 2 28 -1 15 -3 142 -19 282 -36z m3859 -10 c1 -36 -2 -50
-11 -50 -19 1 -65 41 -52 46 6 3 20 12 30 20 16 13 15 13 -13 -1 -40 -19 -53
-19 -53 -1 0 12 48 31 86 35 6 1 11 -21 13 -49z m602 -90 c536 -408 540 -411
527 -429 -49 -64 -112 -136 -119 -136 -7 0 -643 520 -682 558 -17 17 -16 20
32 73 28 31 51 60 51 65 0 5 2 9 4 9 2 0 86 -63 187 -140z m-721 110 c0 -8
-24 -20 -41 -20 -22 0 -7 25 16 26 14 1 25 -2 25 -6z m276 -7 c-15 -51 -17
-74 -8 -86 11 -14 -2 -57 -18 -57 -12 0 -12 2 0 34 7 20 6 26 -4 26 -10 0 -10
10 3 50 8 28 19 50 24 50 4 0 6 -8 3 -17z m198 1 c9 -24 7 -28 -9 -14 -17 14
-20 30 -6 30 5 0 12 -7 15 -16z m-4969 -13 c-3 -6 -11 -11 -17 -11 -6 0 -6 6
2 15 14 17 26 13 15 -4z m50 -29 c-8 -9 -25 20 -18 31 3 5 10 2 15 -7 6 -10 7
-20 3 -24z m4773 15 c17 -18 19 -26 10 -35 -15 -15 -48 12 -48 40 0 24 12 23
38 -5z m-5261 -9 c13 -12 23 -24 23 -28 0 -4 -18 -12 -41 -19 -23 -7 -39 -14
-37 -17 3 -2 24 3 48 11 31 11 46 12 56 4 10 -8 19 -5 35 10 21 19 49 28 49
16 0 -11 -233 -145 -253 -145 -1 0 17 43 42 95 25 52 48 95 50 95 3 0 15 -10
28 -22z m48 12 c-3 -5 -13 -10 -21 -10 -8 0 -12 5 -9 10 3 6 13 10 21 10 8 0
12 -4 9 -10z m4855 -30 c0 -8 -140 -103 -145 -98 -2 2 22 34 52 71 53 64 57
67 74 51 11 -10 19 -20 19 -24z m-4520 6 c0 -2 -7 -6 -15 -10 -8 -3 -15 -1
-15 4 0 6 7 10 15 10 8 0 15 -2 15 -4z m145 -6 c3 -5 2 -10 -4 -10 -5 0 -13 5
-16 10 -3 6 -2 10 4 10 5 0 13 -4 16 -10z m4445 1 c0 -5 -7 -11 -15 -15 -15
-5 -20 5 -8 17 9 10 23 9 23 -2z m380 -12 c0 -5 -4 -9 -10 -9 -5 0 -10 7 -10
16 0 8 5 12 10 9 6 -3 10 -10 10 -16z m-4930 -4 c0 -8 0 -18 1 -22 0 -4 -4 -9
-10 -11 -6 -2 -11 8 -11 22 0 14 5 26 10 26 6 0 10 -7 10 -15z m4810 0 c0 -8
-4 -15 -10 -15 -5 0 -10 7 -10 15 0 8 5 15 10 15 6 0 10 -7 10 -15z m-230 -55
c25 -12 47 -24 48 -26 4 -2 -129 -269 -188 -379 -15 -27 -66 -126 -113 -220
-48 -93 -91 -176 -96 -184 -7 -11 -24 -6 -87 28 -44 24 -83 46 -87 51 -11 10
-10 12 208 395 256 448 224 400 249 377 11 -11 41 -30 66 -42z m-4752 43 c-10
-2 -26 -2 -35 0 -10 3 -2 5 17 5 19 0 27 -2 18 -5z m304 -75 c15 -43 25 -78
22 -78 -3 0 -26 14 -50 32 -36 26 -44 37 -44 64 0 18 -3 40 -6 49 -6 13 -1 16
22 13 26 -3 31 -10 56 -80z m1193 72 c4 -6 15 -8 26 -5 10 4 19 2 19 -3 0 -10
19 -13 151 -27 54 -6 57 -8 63 -38 9 -45 46 -137 68 -169 22 -31 17 -47 -30
-91 -20 -19 -32 -25 -37 -17 -4 6 -15 8 -25 5 -10 -3 -21 -1 -25 5 -4 6 -15 8
-26 5 -11 -4 -19 -2 -19 5 0 8 -10 10 -24 8 -16 -3 -27 0 -30 9 -4 9 -13 12
-25 8 -11 -3 -22 -1 -26 5 -4 6 -15 8 -25 5 -10 -3 -21 -1 -25 5 -4 6 -15 8
-26 5 -11 -4 -19 -2 -19 5 0 8 -10 10 -24 8 -36 -7 -38 11 -11 91 13 38 30 97
37 130 12 59 20 72 33 51z m-1565 -25 c-7 -9 -15 -13 -18 -10 -3 2 1 11 8 20
7 9 15 13 18 10 3 -2 -1 -11 -8 -20z m290 -21 l0 -35 -30 23 -31 22 23 17 c29
22 38 16 38 -27z m284 -8 c133 -33 185 -50 205 -68 14 -13 92 -84 174 -157 81
-73 147 -134 147 -136 0 -7 -120 -155 -126 -155 -3 0 -131 90 -283 201 l-278
200 -23 72 c-12 40 -25 78 -28 86 -3 9 1 12 14 7 10 -3 99 -25 198 -50z m3927
-309 c-111 -194 -207 -362 -215 -372 -13 -18 -15 -17 -53 11 -22 16 -57 44
-77 62 -35 31 -37 34 -23 55 8 12 101 128 205 257 173 213 199 240 274 291 46
31 85 55 87 53 2 -1 -87 -162 -198 -357z m359 354 c0 -12 -20 -25 -27 -18 -7
7 6 27 18 27 5 0 9 -4 9 -9z m-4770 -10 c0 -5 -7 -14 -15 -21 -16 -14 -18 -10
-9 14 6 17 24 22 24 7z m74 -6 c-4 -8 -8 -15 -10 -15 -2 0 -4 7 -4 15 0 8 4
15 10 15 5 0 7 -7 4 -15z m2416 -16 c0 -5 -4 -9 -10 -9 -5 0 -10 7 -10 16 0 8
5 12 10 9 6 -3 10 -10 10 -16z m2354 6 c-4 -8 -10 -15 -15 -15 -4 0 -6 7 -3
15 4 8 10 15 15 15 4 0 6 -7 3 -15z m282 -69 c19 -44 32 -81 30 -83 -2 -2 -30
28 -62 67 -32 39 -60 67 -62 62 -1 -4 29 -42 67 -83 39 -40 75 -86 82 -101 6
-15 15 -26 19 -25 12 3 411 -464 407 -476 -6 -19 -157 -101 -167 -91 -9 9 -37
76 -165 392 -30 72 -59 140 -65 150 -18 27 -10 7 109 -286 l110 -273 -52 -23
c-79 -35 -128 -49 -137 -40 -5 5 -13 25 -19 44 -10 34 -11 34 -5 -12 4 -40 2
-47 -14 -52 -37 -12 -166 -34 -173 -30 -4 2 -15 50 -25 106 -10 57 -20 96 -22
86 -2 -9 4 -53 12 -98 9 -45 16 -86 16 -91 0 -5 -45 -9 -100 -9 l-100 0 0 25
c0 14 -4 25 -10 25 -5 0 -10 -12 -10 -26 0 -26 -1 -26 -47 -20 -27 4 -71 11
-100 17 l-51 10 13 42 c91 277 166 519 163 523 -3 2 -44 -121 -94 -272 -49
-152 -95 -279 -102 -281 -13 -6 -160 43 -176 57 -4 4 74 169 175 367 101 197
188 368 194 380 5 13 13 23 18 23 4 0 7 7 7 15 0 10 10 15 30 15 37 0 38 -13
10 -95 -11 -32 -20 -63 -19 -69 0 -6 11 18 23 54 l23 65 16 -75 c13 -58 15
-64 11 -25 -3 28 -10 65 -16 84 -13 43 1 56 73 64 28 4 68 15 88 26 20 11 42
19 50 18 8 -1 29 -38 47 -81z m-5302 -8 c4 -46 9 -119 12 -163 6 -88 14 -113
14 -44 0 32 9 58 32 94 l32 50 14 -58 c14 -56 14 -60 -11 -120 -15 -34 -32
-75 -39 -92 l-12 -30 -7 45 c-6 44 -6 43 -4 -10 2 -49 -7 -78 -82 -260 -46
-113 -88 -212 -93 -220 -8 -13 -21 -11 -97 15 -47 17 -88 35 -90 40 -2 6 73
134 167 284 94 151 169 275 167 278 -2 2 -82 -122 -177 -274 -95 -153 -174
-280 -176 -282 -5 -6 -45 13 -121 55 l-62 34 18 43 c11 23 79 166 154 317
l134 275 99 51 c54 28 104 52 110 53 8 0 14 -29 18 -81z m74 3 c11 -48 10 -53
-16 -96 -15 -25 -30 -45 -34 -45 -5 0 -8 19 -8 43 0 23 -3 73 -7 111 l-6 68
30 -15 c23 -12 32 -26 41 -66z m273 38 c27 -21 39 -39 40 -57 1 -15 5 -38 9
-52 6 -17 7 -9 3 24 -6 53 -10 53 57 7 30 -20 39 -37 63 -113 16 -50 30 -88
33 -86 2 3 -7 38 -21 78 -14 40 -24 75 -22 76 3 3 326 -228 467 -334 l74 -56
-74 -69 -75 -69 -322 327 c-178 180 -323 331 -323 335 0 8 18 15 44 19 4 0 26
-13 47 -30z m1797 15 c-3 -3 -29 -11 -56 -18 -36 -10 -53 -11 -61 -3 -21 21
-10 27 56 27 36 0 64 -3 61 -6z m500 -24 c57 -22 63 -43 29 -97 -47 -74 -166
-160 -203 -146 -18 7 -34 64 -41 143 l-5 65 36 18 c20 9 39 24 43 32 7 19 68
12 141 -15z m3105 -345 c113 -93 206 -173 207 -176 0 -7 -135 -122 -149 -127
-5 -2 -106 110 -225 247 -194 224 -220 259 -251 332 -19 44 -35 85 -35 90 0 5
55 -37 123 -94 68 -56 216 -178 330 -272z m-5613 356 c0 -14 -34 -71 -42 -71
-5 0 -8 8 -8 18 0 9 -3 27 -6 40 -6 19 -3 22 25 22 17 0 31 -4 31 -9z m33 -95
c-21 -53 -40 -96 -43 -96 -3 0 -11 23 -17 51 -12 49 -12 52 17 94 25 36 62 59
78 49 2 -2 -13 -46 -35 -98z m238 -101 c1 -26 2 -27 7 -7 7 21 12 17 78 -50
66 -69 72 -79 99 -166 16 -52 31 -90 32 -85 2 5 -8 41 -21 81 -14 40 -21 72
-17 72 4 0 73 -69 154 -154 l146 -154 -52 -34 c-48 -32 -111 -68 -120 -68 -2
0 -16 40 -32 90 -16 49 -30 88 -33 86 -2 -2 8 -41 23 -87 14 -45 24 -88 21
-94 -5 -13 -145 -75 -170 -75 -8 0 -16 12 -19 28 -4 25 -4 25 -6 -5 -1 -28 -5
-33 -38 -42 -71 -18 -155 -33 -159 -28 -3 3 -31 108 -64 233 -32 126 -59 222
-59 214 0 -8 24 -112 54 -230 29 -118 52 -217 49 -219 -3 -3 -47 -7 -99 -9
-74 -3 -96 -1 -100 9 -2 8 -9 59 -14 114 l-10 100 5 -112 6 -112 -39 5 c-60 8
-163 26 -163 29 0 5 160 396 169 413 5 9 41 96 79 192 39 96 80 197 92 224
l21 50 89 -89 c72 -72 90 -96 91 -120z m1709 155 c0 -5 -4 -10 -10 -10 -5 0
-10 5 -10 10 0 6 5 10 10 10 6 0 10 -4 10 -10z m-1051 -46 c118 -30 145 -34
153 -23 8 11 9 10 4 -3 -4 -14 0 -18 17 -18 51 -1 54 -14 18 -88 -18 -37 -41
-78 -50 -90 l-17 -23 -157 142 c-86 77 -157 143 -157 146 0 3 10 3 23 -1 12
-3 87 -22 166 -42z m3331 -215 c-105 -129 -197 -235 -204 -237 -12 -3 -126
124 -126 140 0 9 62 51 325 216 104 66 191 119 193 117 2 -2 -83 -108 -188
-236z m-2035 179 c4 -29 5 -73 3 -98 -3 -43 -5 -45 -36 -48 -32 -3 -132 25
-132 37 0 10 141 161 150 161 5 0 11 -24 15 -52z m55 -72 c0 -8 -4 -18 -10
-21 -5 -3 -10 3 -10 14 0 12 5 21 10 21 6 0 10 -6 10 -14z m-270 -131 c17 -9
30 -20 30 -25 0 -7 -6 -7 -17 -1 -10 5 -26 12 -35 15 -10 3 -18 10 -18 16 0
13 6 13 40 -5z m45 5 c3 -5 1 -10 -4 -10 -6 0 -11 5 -11 10 0 6 2 10 4 10 3 0
8 -4 11 -10z m140 -40 c3 -5 1 -10 -4 -10 -6 0 -11 5 -11 10 0 6 2 10 4 10 3
0 8 -4 11 -10z m-535 -77 c-1 -16 -28 -43 -44 -43 -10 0 -16 8 -16 25 0 21 5
25 30 25 17 0 30 -3 30 -7z m225 -19 c0 -13 -8 -20 -29 -22 l-28 -4 18 26 c21
29 39 29 39 0z"/>
<path d="M6217 5984 c-14 -14 -7 -35 11 -32 9 2 17 10 17 17 0 16 -18 25 -28
15z"/>
<path d="M6182 5916 c7 -8 17 -12 22 -9 4 3 2 9 -5 14 -22 13 -31 11 -17 -5z"/>
<path d="M6081 5816 c-12 -14 -5 -26 16 -26 15 0 18 26 4 34 -5 3 -14 0 -20
-8z"/>
<path d="M2541 5624 c0 -11 3 -14 6 -6 3 7 2 16 -1 19 -3 4 -6 -2 -5 -13z"/>
<path d="M2526 5564 c-4 -20 -5 -38 -3 -40 3 -3 8 11 11 32 4 20 5 38 3 40 -3
3 -8 -11 -11 -32z"/>
<path d="M2763 5540 c0 -25 2 -35 4 -22 2 12 2 32 0 45 -2 12 -4 2 -4 -23z"/>
<path d="M2506 5474 c-4 -20 -5 -38 -3 -40 3 -3 8 11 11 32 4 20 5 38 3 40 -3
3 -8 -11 -11 -32z"/>
<path d="M2753 5405 c0 -27 2 -38 4 -22 2 15 2 37 0 50 -2 12 -4 0 -4 -28z"/>
<path d="M2492 5400 c0 -14 2 -19 5 -12 2 6 2 18 0 25 -3 6 -5 1 -5 -13z"/>
<path d="M2476 5334 c-4 -20 -5 -38 -3 -40 3 -3 8 11 11 32 4 20 5 38 3 40 -3
3 -8 -11 -11 -32z"/>
<path d="M2735 5255 c-4 -53 -5 -99 -2 -101 2 -3 8 38 12 91 4 53 5 99 2 101
-2 3 -8 -38 -12 -91z"/>
<path d="M2723 5075 c0 -27 2 -38 4 -22 2 15 2 37 0 50 -2 12 -4 0 -4 -28z"/>
<path d="M7482 5610 c0 -19 2 -27 5 -17 2 9 2 25 0 35 -3 9 -5 1 -5 -18z"/>
<path d="M7472 5545 c0 -16 2 -22 5 -12 2 9 2 23 0 30 -3 6 -5 -1 -5 -18z"/>
<path d="M7293 5420 c0 -36 2 -50 4 -32 2 17 2 47 0 65 -2 17 -4 3 -4 -33z"/>
<path d="M7462 5455 c0 -16 2 -22 5 -12 2 9 2 23 0 30 -3 6 -5 -1 -5 -18z"/>
<path d="M7672 5440 c0 -14 2 -19 5 -12 2 6 2 18 0 25 -3 6 -5 1 -5 -13z"/>
<path d="M7446 5359 c-4 -33 -5 -63 -3 -66 3 -2 8 23 12 57 4 34 5 63 2 66 -2
3 -7 -23 -11 -57z"/>
<path d="M7172 5370 c30 -87 52 -140 55 -137 4 5 -45 138 -54 146 -3 4 -4 -1
-1 -9z"/>
<path d="M7661 5364 c0 -11 3 -14 6 -6 3 7 2 16 -1 19 -3 4 -6 -2 -5 -13z"/>
<path d="M7303 5220 c0 -30 2 -43 4 -27 2 15 2 39 0 55 -2 15 -4 2 -4 -28z"/>
<path d="M7642 5245 c0 -16 2 -22 5 -12 2 9 2 23 0 30 -3 6 -5 -1 -5 -18z"/>
<path d="M7420 5165 c-7 -53 -11 -98 -8 -100 2 -3 10 38 17 91 7 53 11 98 8
100 -2 3 -10 -38 -17 -91z"/>
<path d="M7236 5200 c3 -14 11 -32 16 -40 6 -10 7 -7 2 10 -3 14 -11 32 -16
40 -6 10 -7 7 -2 -10z"/>
<path d="M7631 5174 c0 -11 3 -14 6 -6 3 7 2 16 -1 19 -3 4 -6 -2 -5 -13z"/>
<path d="M7266 5120 c3 -14 11 -32 16 -40 6 -10 7 -7 2 10 -3 14 -11 32 -16
40 -6 10 -7 7 -2 -10z"/>
<path d="M7621 5124 c0 -11 3 -14 6 -6 3 7 2 16 -1 19 -3 4 -6 -2 -5 -13z"/>
<path d="M7312 5080 c0 -19 2 -27 5 -17 2 9 2 25 0 35 -3 9 -5 1 -5 -18z"/>
<path d="M7612 5055 c0 -16 2 -22 5 -12 2 9 2 23 0 30 -3 6 -5 -1 -5 -18z"/>
<path d="M7290 5058 c0 -3 7 -21 15 -39 10 -24 14 -28 14 -14 0 11 -6 29 -14
39 -8 11 -15 17 -15 14z"/>
<path d="M7602 4980 c0 -14 2 -19 5 -12 2 6 2 18 0 25 -3 6 -5 1 -5 -13z"/>
<path d="M7320 4960 c0 -11 4 -20 9 -20 5 0 7 9 4 20 -3 11 -7 20 -9 20 -2 0
-4 -9 -4 -20z"/>
<path d="M7592 4930 c0 -14 2 -19 5 -12 2 6 2 18 0 25 -3 6 -5 1 -5 -13z"/>
<path d="M7322 4880 c0 -14 2 -19 5 -12 2 6 2 18 0 25 -3 6 -5 1 -5 -13z"/>
<path d="M7582 4860 c0 -19 2 -27 5 -17 2 9 2 25 0 35 -3 9 -5 1 -5 -18z"/>
<path d="M1625 5068 c103 -53 225 -109 225 -103 0 5 -290 145 -299 145 -3 -1
30 -19 74 -42z"/>
<path d="M1448 4933 c7 -3 16 -2 19 1 4 3 -2 6 -13 5 -11 0 -14 -3 -6 -6z"/>
<path d="M1370 4717 c14 -8 36 -17 50 -21 l25 -7 -25 14 c-14 8 -36 17 -50 21
l-25 7 25 -14z"/>
<path d="M1499 4665 c29 -14 55 -24 58 -22 2 3 -15 12 -39 22 -69 28 -78 27
-19 0z"/>
<path d="M1590 4627 c14 -8 36 -17 50 -21 l25 -7 -25 14 c-14 8 -36 17 -50 21
l-25 7 25 -14z"/>
<path d="M1719 4575 c29 -14 55 -24 58 -22 2 3 -15 12 -39 22 -69 28 -78 27
-19 0z"/>
<path d="M1318 4523 c6 -2 18 -2 25 0 6 3 1 5 -13 5 -14 0 -19 -2 -12 -5z"/>
<path d="M1380 4510 c14 -4 34 -8 45 -8 16 0 15 2 -5 8 -14 4 -34 8 -45 8 -16
0 -15 -2 5 -8z"/>
<path d="M1458 4493 c6 -2 18 -2 25 0 6 3 1 5 -13 5 -14 0 -19 -2 -12 -5z"/>
<path d="M1545 4475 c28 -7 59 -13 70 -13 11 0 -2 6 -30 13 -27 7 -59 13 -70
13 -11 0 3 -6 30 -13z"/>
<path d="M1527 4403 c-54 -14 -96 -27 -94 -30 5 -4 209 46 216 53 8 8 -26 2
-122 -23z"/>
<path d="M8508 4783 c6 -2 18 -2 25 0 6 3 1 5 -13 5 -14 0 -19 -2 -12 -5z"/>
<path d="M8468 4773 c7 -3 16 -2 19 1 4 3 -2 6 -13 5 -11 0 -14 -3 -6 -6z"/>
<path d="M8428 4763 c7 -3 16 -2 19 1 4 3 -2 6 -13 5 -11 0 -14 -3 -6 -6z"/>
<path d="M8378 4753 c7 -3 16 -2 19 1 4 3 -2 6 -13 5 -11 0 -14 -3 -6 -6z"/>
<path d="M8305 4740 c-25 -11 1 -11 35 0 20 6 21 8 5 8 -11 0 -29 -3 -40 -8z"/>
<path d="M8248 4723 c7 -3 16 -2 19 1 4 3 -2 6 -13 5 -11 0 -14 -3 -6 -6z"/>
<path d="M8170 4710 c-20 -6 -21 -8 -5 -8 11 0 31 4 45 8 20 6 21 8 5 8 -11 0
-31 -4 -45 -8z"/>
<path d="M8108 4693 c6 -2 18 -2 25 0 6 3 1 5 -13 5 -14 0 -19 -2 -12 -5z"/>
<path d="M8040 4680 c-20 -6 -21 -8 -5 -8 11 0 29 3 40 8 25 11 -1 11 -35 0z"/>
<path d="M7988 4663 c7 -3 16 -2 19 1 4 3 -2 6 -13 5 -11 0 -14 -3 -6 -6z"/>
<path d="M7848 4633 c7 -3 16 -2 19 1 4 3 -2 6 -13 5 -11 0 -14 -3 -6 -6z"/>
<path d="M7808 4623 c7 -3 16 -2 19 1 4 3 -2 6 -13 5 -11 0 -14 -3 -6 -6z"/>
<path d="M8223 4573 c26 -2 68 -2 95 0 26 2 4 3 -48 3 -52 0 -74 -1 -47 -3z"/>
<path d="M8003 4563 c26 -2 68 -2 95 0 26 2 4 3 -48 3 -52 0 -74 -1 -47 -3z"/>
<path d="M7833 4553 c20 -2 54 -2 75 0 20 2 3 4 -38 4 -41 0 -58 -2 -37 -4z"/>
<path d="M7848 4283 c6 -2 18 -2 25 0 6 3 1 5 -13 5 -14 0 -19 -2 -12 -5z"/>
<path d="M8033 4253 c9 -2 23 -2 30 0 6 3 -1 5 -18 5 -16 0 -22 -2 -12 -5z"/>
<path d="M8105 4240 c17 -4 41 -8 55 -8 22 0 22 1 -5 8 -16 4 -41 8 -55 8 -22
0 -22 -1 5 -8z"/>
<path d="M8213 4223 c9 -2 23 -2 30 0 6 3 -1 5 -18 5 -16 0 -22 -2 -12 -5z"/>
<path d="M8285 4210 c17 -4 41 -8 55 -8 22 0 22 1 -5 8 -16 4 -41 8 -55 8 -22
0 -22 -1 5 -8z"/>
<path d="M8415 4189 c51 -10 92 -10 50 1 -16 4 -43 8 -60 8 -25 0 -24 -2 10
-9z"/>
<path d="M8513 4173 c9 -2 23 -2 30 0 6 3 -1 5 -18 5 -16 0 -22 -2 -12 -5z"/>
<path d="M3500 4805 c-41 -7 -61 -13 -45 -13 17 0 64 5 105 12 41 8 62 13 45
13 -16 0 -64 -5 -105 -12z"/>
<path d="M2390 4781 c0 -11 -3 -28 -6 -38 -5 -12 -4 -15 3 -8 15 15 25 65 13
65 -5 0 -10 -9 -10 -19z"/>
<path d="M6565 4650 c38 -17 317 -102 321 -98 2 3 -70 28 -160 56 -153 48
-209 63 -161 42z"/>
<path d="M6283 4533 c9 -2 25 -2 35 0 9 3 1 5 -18 5 -19 0 -27 -2 -17 -5z"/>
<path d="M6358 4523 c12 -2 30 -2 40 0 9 3 -1 5 -23 4 -22 0 -30 -2 -17 -4z"/>
<path d="M6443 4513 c9 -2 25 -2 35 0 9 3 1 5 -18 5 -19 0 -27 -2 -17 -5z"/>
<path d="M6513 4503 c9 -2 25 -2 35 0 9 3 1 5 -18 5 -19 0 -27 -2 -17 -5z"/>
<path d="M6588 4493 c12 -2 30 -2 40 0 9 3 -1 5 -23 4 -22 0 -30 -2 -17 -4z"/>
<path d="M6673 4483 c9 -2 25 -2 35 0 9 3 1 5 -18 5 -19 0 -27 -2 -17 -5z"/>
<path d="M6927 4483 c-4 -3 -35 -9 -69 -13 -56 -6 -58 -7 -18 -8 25 -1 68 5
95 13 34 9 42 14 24 14 -14 1 -29 -2 -32 -6z"/>
<path d="M6743 4473 c9 -2 25 -2 35 0 9 3 1 5 -18 5 -19 0 -27 -2 -17 -5z"/>
<path d="M6918 4453 c6 -2 18 -2 25 0 6 3 1 5 -13 5 -14 0 -19 -2 -12 -5z"/>
<path d="M6738 4443 c6 -2 18 -2 25 0 6 3 1 5 -13 5 -14 0 -19 -2 -12 -5z"/>
<path d="M6683 4433 c9 -2 23 -2 30 0 6 3 -1 5 -18 5 -16 0 -22 -2 -12 -5z"/>
<path d="M6628 4423 c6 -2 18 -2 25 0 6 3 1 5 -13 5 -14 0 -19 -2 -12 -5z"/>
<path d="M6578 4413 c6 -2 18 -2 25 0 6 3 1 5 -13 5 -14 0 -19 -2 -12 -5z"/>
<path d="M6528 4403 c6 -2 18 -2 25 0 6 3 1 5 -13 5 -14 0 -19 -2 -12 -5z"/>
<path d="M6468 4393 c6 -2 18 -2 25 0 6 3 1 5 -13 5 -14 0 -19 -2 -12 -5z"/>
<path d="M6905 4385 c-25 -12 -26 -14 -5 -9 28 7 60 23 45 23 -5 0 -23 -6 -40
-14z"/>
<path d="M6428 4383 c7 -3 16 -2 19 1 4 3 -2 6 -13 5 -11 0 -14 -3 -6 -6z"/>
<path d="M6368 4373 c6 -2 18 -2 25 0 6 3 1 5 -13 5 -14 0 -19 -2 -12 -5z"/>
<path d="M6280 4360 c-20 -6 -21 -8 -5 -8 11 0 31 4 45 8 20 6 21 8 5 8 -11 0
-31 -4 -45 -8z"/>
<path d="M6825 4355 c-25 -12 -26 -14 -5 -9 28 7 60 23 45 23 -5 0 -23 -6 -40
-14z"/>
<path d="M6745 4325 c-25 -12 -26 -14 -5 -9 28 7 60 23 45 23 -5 0 -23 -6 -40
-14z"/>
<path d="M7030 4235 c-14 -8 -20 -14 -15 -14 6 0 21 6 35 14 14 8 21 14 15 14
-5 0 -21 -6 -35 -14z"/>
<path d="M6935 4195 c-27 -13 -45 -23 -40 -24 6 0 33 11 60 24 28 13 46 23 40
24 -5 0 -32 -11 -60 -24z"/>
<path d="M6840 4155 c-14 -8 -20 -14 -15 -14 6 0 21 6 35 14 14 8 21 14 15 14
-5 0 -21 -6 -35 -14z"/>
<path d="M6770 4125 c-14 -8 -20 -14 -15 -14 6 0 21 6 35 14 14 8 21 14 15 14
-5 0 -21 -6 -35 -14z"/>
<path d="M6700 4095 c-14 -8 -20 -14 -15 -14 6 0 21 6 35 14 14 8 21 14 15 14
-5 0 -21 -6 -35 -14z"/>
<path d="M6640 4070 c-8 -5 -10 -10 -5 -10 6 0 17 5 25 10 8 5 11 10 5 10 -5
0 -17 -5 -25 -10z"/>
<path d="M6555 4035 c-27 -13 -45 -23 -40 -24 6 0 33 11 60 24 28 13 46 23 40
24 -5 0 -32 -11 -60 -24z"/>
<path d="M6470 4000 c-8 -5 -10 -10 -5 -10 6 0 17 5 25 10 8 5 11 10 5 10 -5
0 -17 -5 -25 -10z"/>
<path d="M6410 3975 c-14 -8 -20 -14 -15 -14 6 0 21 6 35 14 14 8 21 14 15 14
-5 0 -21 -6 -35 -14z"/>
<path d="M7071 4846 c12 -20 25 -39 30 -42 5 -3 0 11 -12 30 -12 20 -25 39
-30 42 -5 3 0 -11 12 -30z"/>
<path d="M2235 4660 c-8 -13 3 -30 18 -30 8 0 7 3 -2 9 -7 5 -10 14 -7 20 4 6
5 11 2 11 -3 0 -8 -4 -11 -10z"/>
<path d="M7551 4664 c0 -11 3 -14 6 -6 3 7 2 16 -1 19 -3 4 -6 -2 -5 -13z"/>
<path d="M3333 4623 c37 -2 97 -2 135 0 37 2 6 3 -68 3 -74 0 -105 -1 -67 -3z"/>
<path d="M7588 4573 c7 -3 16 -2 19 1 4 3 -2 6 -13 5 -11 0 -14 -3 -6 -6z"/>
<path d="M7195 4450 c28 -12 37 -12 30 0 -3 6 -16 10 -28 9 -21 0 -21 -1 -2
-9z"/>
<path d="M7209 4397 c-13 -17 -30 -41 -38 -52 -14 -20 -14 -20 6 0 56 57 71
75 64 79 -4 3 -19 -9 -32 -27z"/>
<path d="M7598 4363 c7 -3 16 -2 19 1 4 3 -2 6 -13 5 -11 0 -14 -3 -6 -6z"/>
<path d="M2105 4150 c-13 -6 -15 -9 -5 -9 8 0 22 4 30 9 18 12 2 12 -25 0z"/>
<path d="M2006 4004 c-37 -19 -66 -37 -64 -39 5 -5 138 64 138 71 0 6 2 7 -74
-32z"/>
<path d="M7561 4080 c0 -8 6 -37 13 -65 8 -27 15 -43 15 -35 0 8 -6 38 -13 65
-8 28 -15 43 -15 35z"/>
<path d="M7303 4005 c0 -38 2 -53 4 -32 2 20 2 52 0 70 -2 17 -4 1 -4 -38z"/>
<path d="M7591 3950 c0 -8 6 -37 13 -65 8 -27 15 -43 15 -35 0 8 -6 38 -13 65
-8 28 -15 43 -15 35z"/>
<path d="M7316 3928 c-3 -7 -7 -25 -10 -40 -3 -14 -9 -34 -13 -44 -4 -12 -3
-15 5 -10 9 5 12 -57 15 -241 l3 -248 1 287 c0 158 4 291 8 297 3 6 4 11 0 11
-3 0 -7 -6 -9 -12z"/>
<path d="M7411 3905 c0 -11 6 -47 13 -80 8 -33 14 -51 15 -40 0 11 -6 47 -13
80 -8 33 -14 51 -15 40z"/>
<path d="M7621 3820 c0 -8 6 -37 13 -65 8 -27 15 -43 15 -35 0 8 -6 38 -13 65
-8 28 -15 43 -15 35z"/>
<path d="M7441 3740 c0 -28 56 -312 58 -291 1 13 -47 288 -54 306 -2 6 -4 -1
-4 -15z"/>
<path d="M7650 3694 c0 -20 74 -333 78 -330 2 3 -13 78 -33 168 -34 149 -45
187 -45 162z"/>
<path d="M2762 3865 c-1 -16 5 -64 12 -105 8 -41 14 -61 14 -45 0 17 -5 64
-13 105 -7 41 -13 62 -13 45z"/>
<path d="M2471 3865 c1 -19 18 -51 18 -35 0 8 -4 22 -9 30 -5 8 -9 11 -9 5z"/>
<path d="M2492 3795 c0 -21 25 -107 27 -90 0 6 -6 33 -13 60 -8 28 -14 41 -14
30z"/>
<path d="M2792 3655 c-1 -16 3 -48 7 -70 11 -53 12 -5 2 55 -6 34 -9 37 -9 15z"/>
<path d="M2387 3560 c3 -52 7 -97 9 -99 7 -8 3 104 -6 149 -6 32 -7 17 -3 -50z"/>
<path d="M2970 3590 c0 -8 5 -22 10 -30 9 -13 10 -13 10 0 0 8 -5 22 -10 30
-9 13 -10 13 -10 0z"/>
<path d="M2812 3515 c0 -16 5 -64 12 -105 8 -41 14 -64 14 -50 0 14 -5 61 -13
105 -7 44 -13 67 -13 50z"/>
</g>
</svg>
