<?xml version="1.0" standalone="no"?>
<!DOCTYPE svg PUBLIC "-//W3C//DTD SVG 20010904//EN"
 "http://www.w3.org/TR/2001/REC-SVG-20010904/DTD/svg10.dtd">
<svg version="1.0" xmlns="http://www.w3.org/2000/svg"
 width="1200.000000pt" height="669.000000pt" viewBox="0 0 1200.000000 669.000000"
 preserveAspectRatio="xMidYMid meet">

<g transform="translate(0.000000,669.000000) scale(0.100000,-0.100000)"
fill="#000000" stroke="none">
<path d="M8625 6640 c-20 -21 -29 -42 -33 -78 -4 -47 -5 -48 -36 -45 -48 3
-65 -5 -92 -48 -24 -39 -49 -54 -37 -22 5 13 -2 12 -37 -8 -49 -27 -90 -72
-90 -98 0 -26 -84 -61 -158 -66 -45 -3 -83 -13 -137 -39 -41 -20 -75 -40 -75
-46 0 -6 20 -65 44 -133 53 -145 92 -269 101 -318 6 -30 3 -37 -17 -46 -13 -7
-17 -12 -9 -12 10 -1 11 -4 2 -14 -8 -10 -7 -26 5 -61 15 -44 15 -48 -1 -66
-18 -20 -45 -20 -1754 -20 -1474 0 -1740 2 -1757 14 -12 9 -31 50 -49 108 -17
51 -33 94 -37 96 -4 2 -26 63 -48 135 -91 294 -86 282 -130 302 -22 10 -38 20
-36 22 2 2 32 8 67 13 35 5 133 34 218 65 143 52 158 56 195 46 43 -11 216
-37 299 -44 64 -6 77 15 47 77 -61 128 -250 168 -885 190 -220 7 -454 13 -520
12 -116 -1 -124 1 -247 42 -70 23 -138 42 -150 42 -83 0 -100 -121 -27 -189
29 -27 53 -28 44 -1 -5 15 -2 20 12 19 11 0 13 -3 5 -6 -20 -8 16 -43 44 -43
13 0 26 -4 29 -10 3 -5 30 -17 60 -25 29 -9 88 -36 131 -60 43 -25 85 -45 94
-45 8 0 37 -18 64 -40 48 -40 49 -40 133 -40 71 0 84 -2 79 -15 -8 -23 79 -78
148 -92 33 -7 65 -18 72 -25 7 -7 31 -74 53 -148 23 -74 44 -143 47 -152 5
-17 -11 -18 -235 -18 -133 0 -241 -3 -241 -7 0 -5 9 -37 20 -73 26 -85 25
-106 -5 -132 -14 -12 -25 -29 -25 -39 0 -31 131 -574 140 -583 6 -6 35 -24 67
-40 31 -17 65 -42 75 -56 9 -14 39 -95 65 -180 26 -85 48 -157 50 -159 1 -2
11 3 20 11 10 8 25 19 33 23 15 8 -14 -23 -303 -323 l-147 -154 -23 19 c-312
243 -569 374 -903 459 -798 201 -1620 -24 -2189 -601 -326 -330 -535 -740
-621 -1220 -22 -122 -30 -451 -15 -596 42 -405 198 -797 448 -1131 95 -127
297 -331 421 -426 274 -210 596 -358 947 -434 54 -12 12 -14 -390 -18 -449 -5
-449 -5 -260 -15 105 -5 611 -10 1125 -10 895 1 1032 4 1420 34 47 3 -165 5
-470 4 l-555 -3 85 21 c642 152 1194 579 1497 1157 31 59 57 108 58 109 1 2
355 -101 384 -112 21 -8 -25 -54 -53 -52 -54 2 -116 -4 -116 -12 0 -5 27 -7
61 -4 50 5 61 3 57 -8 -3 -10 -28 -15 -95 -17 l-91 -3 -15 -43 c-13 -39 -13
-47 -1 -65 13 -18 25 -21 85 -21 65 0 73 -2 101 -30 42 -42 103 -42 151 0 31
27 42 30 99 30 55 0 68 4 87 24 12 13 25 40 28 60 3 21 11 40 17 42 6 2 70
-13 141 -35 233 -70 375 -76 551 -26 148 44 258 110 365 221 149 156 216 313
226 530 9 189 -34 352 -128 493 -22 32 -39 62 -39 65 0 4 46 61 103 126 l102
119 61 1 c117 0 154 10 175 44 10 17 19 41 19 54 0 26 -51 83 -58 64 -5 -17
-24 -15 -20 3 5 24 1755 1781 1787 1795 39 16 59 8 72 -30 6 -16 16 -30 22
-30 7 0 13 -19 14 -46 1 -25 10 -57 19 -72 16 -24 94 -179 94 -187 0 -1 -24
-18 -52 -36 -125 -80 -292 -220 -411 -343 -317 -330 -518 -727 -604 -1196 -25
-137 -25 -584 0 -720 73 -389 208 -702 430 -1000 86 -115 263 -299 372 -387
284 -231 638 -399 988 -469 45 -9 84 -18 87 -21 2 -2 -225 -2 -505 1 -287 3
-490 1 -465 -3 25 -5 227 -14 450 -21 420 -13 1850 -7 2035 9 59 5 -61 8 -355
10 l-445 3 105 23 c232 52 408 116 600 216 602 316 1035 890 1169 1549 49 243
59 540 27 765 -61 415 -229 799 -488 1120 -83 102 -280 293 -381 369 -611 457
-1389 583 -2106 341 -58 -19 -108 -35 -112 -35 -9 0 -132 230 -134 250 -1 8
-21 75 -45 147 -44 132 -44 133 -27 163 16 26 17 38 7 83 -6 28 -19 101 -29
161 l-19 109 44 57 c139 183 386 636 423 778 7 23 14 42 17 42 3 0 23 -10 46
-21 l42 -21 18 22 c10 12 18 29 18 36 0 8 -33 35 -72 61 -96 61 -94 58 -73 89
l18 28 -39 34 c-51 44 -112 72 -177 79 -28 3 -59 12 -68 19 -9 8 -18 12 -21 9
-3 -3 -3 5 -1 18 3 16 -4 34 -22 55 -24 29 -32 32 -84 32 -50 0 -61 -4 -86
-30z m363 -178 c29 -19 51 -36 49 -39 -5 -4 -167 96 -167 103 0 7 60 -26 118
-64z m-4685 51 c-13 -2 -33 -2 -45 0 -13 2 -3 4 22 4 25 0 35 -2 23 -4z m240
0 c-13 -2 -33 -2 -45 0 -13 2 -3 4 22 4 25 0 35 -2 23 -4z m144 -19 c-3 -3
-12 -4 -19 -1 -8 3 -5 6 6 6 11 1 17 -2 13 -5z m3870 -22 c0 -22 -7 -31 -27
-39 -23 -9 -26 -8 -25 10 1 16 37 57 49 57 2 0 3 -13 3 -28z m-3972 -100 c39
-7 38 -8 -100 -57 -111 -39 -156 -50 -218 -53 -63 -3 -81 -1 -90 12 -7 8 -30
19 -52 24 -54 11 -167 -4 -181 -23 -10 -13 -30 -15 -100 -13 -88 3 -89 3 -44
14 25 7 100 26 168 43 67 18 164 38 215 45 100 15 337 19 402 8z m4360 -92
c-3 -5 -10 -10 -16 -10 -5 0 -9 5 -9 10 0 6 7 10 16 10 8 0 12 -4 9 -10z m120
-12 c18 -8 25 -19 25 -39 0 -39 -95 -254 -181 -412 -73 -135 -248 -409 -268
-421 -32 -20 13 121 76 234 20 36 75 121 123 190 166 240 210 319 210 382 0
45 -15 59 -16 15 -1 -38 -30 -116 -50 -137 -8 -8 -53 -73 -101 -145 -47 -71
-106 -159 -131 -195 -24 -36 -64 -108 -90 -161 l-46 -97 -45 -5 c-59 -7 -65
-1 -10 10 65 13 62 33 -4 33 -38 0 -61 5 -75 18 -11 9 -39 71 -63 140 -38 112
-45 124 -75 138 -44 21 -51 31 -85 121 -27 73 -28 79 -11 92 9 7 100 53 201
102 171 83 188 89 234 85 56 -5 75 -19 124 -93 34 -52 92 -96 110 -84 6 3 16
16 22 29 11 21 9 27 -25 56 -33 28 -36 35 -29 64 6 31 8 32 58 32 55 0 88 12
68 24 -8 5 -7 11 2 21 15 18 20 18 52 3z m-145 -178 c0 -5 -5 -10 -11 -10 -5
0 -7 5 -4 10 3 6 8 10 11 10 2 0 4 -4 4 -10z m-675 -279 c3 -6 -4 -9 -15 -8
-11 1 -20 5 -20 9 0 11 28 10 35 -1z m60 -78 c4 -10 31 -88 60 -173 30 -85 88
-254 130 -375 168 -482 181 -525 165 -535 -10 -6 -17 -4 -23 7 -5 8 -67 185
-137 392 -71 207 -151 443 -179 526 -28 82 -49 155 -47 162 7 18 23 16 31 -4z
m-3916 -200 c17 -54 36 -119 42 -146 8 -34 24 -59 55 -89 50 -48 55 -62 19
-48 -29 11 -29 13 -10 -44 9 -25 28 -87 44 -138 16 -51 58 -185 94 -298 103
-323 295 -940 417 -1340 16 -52 70 -228 119 -391 50 -164 91 -300 91 -304 0
-3 -17 -5 -37 -3 l-37 3 -29 90 c-29 92 -37 118 -177 580 -45 149 -107 351
-137 450 -228 751 -524 1742 -525 1755 -1 15 4 20 21 20 16 0 25 -18 50 -97z
m2899 -46 c507 -1 774 1 776 8 3 6 12 1 20 -9 8 -10 13 -23 10 -27 -3 -5 -623
-9 -1377 -9 l-1372 0 -33 -55 c-18 -30 -38 -55 -43 -55 -7 0 -7 6 0 17 13 24
-25 93 -51 93 -17 0 -17 -1 2 -20 24 -24 26 -53 4 -74 -18 -19 -65 -21 -82 -4
-17 17 -15 58 5 80 15 17 14 18 -22 18 -28 0 -35 -3 -28 -12 5 -7 9 -31 9 -53
-1 -38 -3 -40 -33 -43 l-33 -3 0 55 c0 31 -4 56 -8 56 -5 0 -16 -25 -26 -55
-9 -30 -21 -55 -26 -55 -4 0 -14 15 -20 33 l-13 32 -10 -33 c-14 -44 -29 -36
-47 26 -12 43 -19 52 -37 52 l-23 0 20 -20 c24 -24 26 -53 4 -74 -18 -19 -65
-21 -82 -4 -17 17 -15 58 5 80 15 17 14 18 -15 18 -24 0 -30 -4 -25 -16 4 -12
0 -14 -19 -9 -28 7 -52 -14 -46 -42 2 -13 13 -18 36 -18 19 0 32 -5 32 -12 0
-8 -13 -13 -35 -13 -51 0 -74 53 -38 92 15 17 13 18 -73 18 -93 0 -118 7 -109
31 5 15 182 15 2803 6z m1240 -109 c84 -213 131 -361 107 -337 -5 5 -145 377
-145 385 0 2 4 4 9 4 5 0 18 -24 29 -52z m-3178 -23 c0 -8 -4 -15 -10 -15 -5
0 -10 7 -10 15 0 8 5 15 10 15 6 0 10 -7 10 -15z m2718 -116 c41 -14 46 -33
40 -170 -5 -99 -8 -113 -39 -168 -36 -64 -127 -157 -1533 -1570 l-671 -674
-65 22 c-128 41 -155 45 -307 46 -83 0 -143 3 -132 7 10 4 19 10 19 13 0 3
-40 137 -89 298 -226 740 -577 1885 -616 2010 -24 77 -41 145 -39 152 3 7 19
20 36 28 27 13 240 15 1697 16 1123 0 1677 -3 1699 -10z m-3588 -509 c0 -5 -6
-10 -14 -10 -8 0 -18 5 -21 10 -3 6 3 10 14 10 12 0 21 -4 21 -10z m-39 -58
c-20 -28 -81 -69 -81 -55 0 5 19 28 41 51 45 45 72 48 40 4z m96 -9 c-3 -10
-5 -4 -5 12 0 17 2 24 5 18 2 -7 2 -21 0 -30z m4168 -40 c40 -39 80 -123 60
-123 -3 0 -22 7 -43 16 -20 9 -49 16 -63 15 -20 -2 -29 6 -44 33 -16 29 -17
37 -5 51 7 9 19 14 25 11 7 -2 18 0 26 5 20 12 25 11 44 -8z m-4285 -20 c0
-10 -32 -43 -42 -43 -5 0 -1 11 8 25 15 23 34 33 34 18z m4805 -968 c236 -511
515 -1130 515 -1145 0 -27 -31 9 -56 63 -15 34 -47 105 -72 157 -24 52 -66
142 -92 200 -27 58 -64 139 -83 180 -95 206 -230 508 -275 616 -28 66 -62 146
-76 177 -14 30 -26 59 -26 63 0 7 -72 174 -131 302 -16 35 -29 66 -28 70 1 10
86 -169 324 -683z m-4846 153 c77 -249 183 -594 236 -767 52 -173 92 -317 88
-321 -4 -4 -57 -10 -118 -13 -73 -4 -102 -3 -87 4 16 6 22 14 18 26 -3 10 -12
52 -21 93 -76 369 -267 737 -543 1048 l-74 83 51 54 c55 58 61 68 34 58 -16
-6 -16 -4 1 16 13 14 22 18 26 10 4 -6 51 37 116 106 l109 116 12 -30 c7 -17
75 -234 152 -483z m-1896 386 l49 -6 -6 -34 c-4 -18 -35 -122 -69 -231 -35
-109 -72 -228 -82 -265 -11 -38 -22 -68 -26 -68 -5 0 -99 446 -116 552 -10 68
-5 71 105 64 53 -4 119 -9 145 -12z m-273 -1 c0 -4 13 -71 30 -148 16 -77 45
-219 65 -315 l37 -175 -38 -122 c-21 -68 -40 -123 -44 -123 -6 0 -324 756
-342 815 -6 19 -9 38 -6 41 20 19 298 44 298 27z m7517 -180 l-5 -188 13 170
c7 94 13 178 14 188 1 14 11 17 69 16 37 0 103 -6 147 -12 l80 -12 -3 -55 c-1
-30 -32 -325 -69 -655 -59 -536 -68 -602 -86 -622 -22 -25 -38 -23 -18 1 10
12 6 17 -26 26 -21 6 -68 13 -105 17 l-68 6 -2 46 -2 46 -3 -47 c-3 -37 -8
-48 -21 -48 -13 0 -31 33 -69 123 l-51 122 -32 350 c-30 343 -38 405 -39 336
-1 -33 45 -562 53 -608 6 -42 -10 -23 -36 40 -14 34 -92 215 -173 402 -123
283 -185 431 -185 442 0 8 246 73 278 73 17 0 22 -10 30 -52 l10 -53 1 57 1
57 48 6 c26 3 54 8 62 9 8 2 55 4 104 5 l89 1 -6 -187z m-7001 137 c44 -11 89
-25 102 -30 l22 -10 -34 -69 c-20 -38 -90 -169 -157 -292 -150 -276 -172 -317
-217 -398 l-36 -65 -27 130 -27 129 45 145 c25 80 70 223 101 319 l56 173 47
-6 c26 -4 82 -15 125 -26z m7436 0 c46 -10 108 -28 138 -38 51 -18 55 -21 52
-48 -2 -16 -59 -220 -128 -454 -69 -234 -130 -443 -136 -465 -10 -36 -134
-225 -157 -240 -6 -3 -8 8 -5 27 4 33 47 415 105 933 28 257 35 305 44 305 2
0 42 -9 87 -20z m-8262 -25 c27 -50 350 -832 350 -849 0 -13 -119 -397 -125
-404 -1 -2 -79 59 -172 134 l-170 136 -93 465 c-54 269 -89 468 -84 472 10 10
149 56 209 70 56 13 66 10 85 -24z m1145 -87 c90 -39 96 -44 89 -77 -6 -26
-58 -192 -195 -626 -75 -235 -88 -259 -169 -307 -19 -12 -85 -52 -146 -90 -61
-37 -116 -68 -122 -68 -6 0 -14 10 -17 23 -13 60 -65 321 -65 330 0 6 -3 8 -6
4 -3 -3 9 -80 27 -172 17 -91 29 -168 26 -171 -16 -17 -38 13 -80 113 -26 59
-47 114 -47 121 0 13 48 113 59 122 3 3 16 26 27 51 28 59 388 722 422 776
l26 41 50 -20 c28 -11 83 -33 121 -50z m6060 22 c9 -17 72 -160 139 -318 68
-158 156 -360 195 -450 40 -90 71 -168 69 -174 -2 -6 -39 68 -83 163 -43 96
-143 313 -221 483 -79 171 -141 313 -138 318 10 16 24 8 39 -22z m1431 -45
c61 -29 114 -57 117 -62 3 -5 -26 -56 -65 -114 -157 -231 -481 -690 -484 -686
-4 4 245 850 265 900 14 35 16 34 167 -38z m-8945 13 c18 -67 178 -862 174
-866 -2 -2 -48 32 -102 76 l-98 80 -94 221 c-52 122 -96 220 -98 218 -2 -3 36
-97 85 -211 49 -113 86 -206 83 -206 -10 0 -463 363 -480 384 -13 16 -10 21
30 56 24 22 47 39 52 40 12 0 67 -52 67 -65 0 -6 15 -29 34 -51 27 -30 37 -36
46 -27 10 9 8 19 -10 47 -12 20 -27 39 -33 43 -19 13 -44 46 -51 69 -5 16 3
27 39 53 25 18 50 29 55 26 6 -3 26 -39 46 -78 37 -77 37 -71 -3 32 -13 35
-20 68 -16 72 10 10 245 129 255 129 4 0 12 -19 19 -42z m1721 -139 c47 -32
90 -64 94 -70 4 -7 -18 -61 -50 -122 -31 -60 -55 -111 -53 -113 2 -2 25 36 52
85 26 48 55 98 64 109 16 21 16 21 41 2 l25 -19 -55 -58 c-278 -292 -533 -554
-535 -551 -3 4 239 760 256 799 11 28 11 28 43 12 17 -9 70 -42 118 -74z
m7479 -23 c57 -40 110 -81 118 -90 17 -20 59 29 -369 -425 -184 -195 -380
-404 -435 -463 -55 -60 -101 -103 -103 -95 -2 8 17 81 41 164 32 107 53 162
74 189 17 22 126 176 242 344 247 357 314 450 322 450 4 0 53 -33 110 -74z
m-1820 -361 c121 -226 243 -450 270 -499 46 -84 48 -92 37 -123 -7 -19 -19
-33 -29 -33 -10 0 -132 158 -329 428 -172 235 -324 441 -337 459 -12 17 -23
38 -23 45 0 14 170 139 183 135 5 -1 107 -187 228 -412z m-410 238 c14 -16 56
-71 94 -123 38 -52 97 -133 131 -180 34 -47 148 -202 252 -345 105 -142 189
-262 186 -266 -2 -4 -7 -27 -10 -51 -4 -24 -7 -44 -8 -45 -1 -2 -25 9 -52 23
-34 18 -169 144 -444 414 l-395 389 105 105 c57 58 107 106 110 106 4 0 18
-12 31 -27z m2425 -34 c28 -27 40 -47 37 -58 -4 -9 -33 -42 -66 -75 -39 -38
-56 -61 -49 -68 14 -14 52 13 96 66 19 24 43 43 53 43 20 1 83 -54 83 -73 0
-14 -175 -186 -612 -603 -174 -166 -320 -306 -323 -311 -11 -18 -53 -11 -60
10 -3 11 -16 27 -29 37 -12 10 -23 22 -23 28 -2 16 -19 16 -33 0 -10 -12 -10
-18 0 -30 11 -13 10 -14 -5 -9 -13 5 -16 4 -11 -4 5 -9 1 -9 -16 -3 -13 5 -22
14 -21 20 2 6 -2 11 -7 11 -15 0 -12 -8 15 -44 36 -47 32 -63 -17 -76 -24 -6
-49 -13 -55 -15 -19 -6 -16 16 12 92 15 37 27 74 29 81 5 26 23 34 47 21 l24
-12 -19 22 c-20 22 -20 22 25 69 58 61 331 349 633 670 131 138 241 252 244
252 3 0 25 -19 48 -41z m-9923 -11 c18 -13 138 -107 267 -209 l235 -187 42
-104 c24 -56 46 -111 49 -122 6 -14 -26 -1 -131 52 -77 39 -141 70 -143 67 -2
-2 40 -26 94 -53 55 -28 121 -62 149 -76 l50 -27 71 -174 c40 -95 75 -183 79
-194 6 -20 2 -21 -132 -24 l-138 -3 141 -2 c119 -2 143 -5 148 -18 10 -27 7
-34 -16 -34 -15 0 -19 -3 -11 -8 10 -6 9 -18 -2 -54 -7 -26 -17 -79 -21 -118
-4 -39 -11 -69 -16 -68 -5 2 -58 41 -118 88 -71 55 -105 87 -97 92 8 5 3 8
-11 8 -12 0 -49 21 -82 47 l-60 48 58 6 57 6 -67 1 -67 2 -323 257 c-372 296
-418 334 -418 349 0 18 139 224 155 230 16 6 97 -33 413 -198 83 -44 152 -77
152 -74 0 2 -80 46 -177 97 -98 50 -222 116 -276 146 l-97 54 19 27 c32 45
172 192 183 192 5 0 24 -10 41 -22z m2584 -111 c-3 -12 -296 -201 -302 -195
-1 2 54 63 123 136 l127 134 28 -32 c15 -17 26 -37 24 -43z m65 -59 c49 -60
138 -187 138 -196 0 -4 -12 -13 -27 -19 -377 -154 -828 -331 -832 -328 -12 12
41 79 170 216 145 153 130 141 423 321 44 26 83 48 86 48 4 0 23 -19 42 -42z
m4976 -350 c204 -200 369 -364 367 -366 -2 -2 -88 40 -192 94 -103 54 -301
157 -439 229 -138 71 -262 137 -275 146 l-24 17 50 73 c65 96 123 169 134 169
5 0 175 -163 379 -362z m2528 275 c28 -38 66 -92 84 -121 28 -46 31 -55 19
-67 -8 -7 -203 -139 -435 -293 l-420 -279 -119 -31 c-66 -17 -121 -30 -122
-28 -6 5 925 886 936 886 4 0 30 -30 57 -67z m-8841 -68 l25 -118 -37 -64 -36
-65 -29 71 -29 70 36 116 c20 65 38 115 41 112 3 -2 16 -57 29 -122z m1562
-206 l63 -124 -28 -23 c-15 -12 -152 -99 -304 -193 -153 -94 -278 -173 -278
-175 0 -7 12 0 315 185 154 94 286 170 294 169 16 -3 75 -172 87 -246 6 -35 4
-40 -17 -45 -13 -3 -33 -13 -44 -21 -19 -14 -17 -15 15 -6 47 13 60 13 60 -4
0 -10 -37 -15 -172 -20 -95 -4 -193 -9 -218 -11 -25 -2 -108 -6 -185 -10 -303
-12 -775 -35 -869 -41 -56 -3 -96 -2 -93 3 3 5 43 10 89 11 46 1 115 5 155 8
l71 6 4 45 c2 28 -2 48 -9 55 -10 8 -2 32 39 111 63 118 3 85 518 290 402 159
421 166 435 163 5 -1 38 -58 72 -127z m-2253 27 l92 -73 13 -67 c7 -37 15 -65
18 -63 2 3 0 29 -5 58 -6 30 -9 55 -9 56 4 3 312 -248 315 -256 2 -5 -5 -11
-14 -15 -16 -6 -265 117 -272 135 -2 5 -10 9 -18 9 -7 0 -38 12 -67 26 l-53
26 -51 119 c-28 66 -49 119 -46 119 3 0 47 -33 97 -74z m6936 -186 c277 -143
499 -263 514 -279 20 -20 25 -33 19 -48 -9 -21 48 -36 -913 232 -197 55 -250
74 -250 89 0 23 119 256 131 256 7 0 231 -113 499 -250z m-6326 166 l27 -63
-63 -118 c-44 -83 -69 -120 -87 -126 -13 -5 -26 -8 -28 -5 -2 2 21 82 52 178
31 95 58 179 60 186 7 20 11 15 39 -52z m9092 -8 c20 -40 47 -101 60 -136 l24
-62 -27 -11 c-16 -7 -53 -20 -83 -30 -59 -20 -43 -19 57 5 l63 14 19 -66 c31
-103 53 -203 47 -218 -3 -7 -29 -17 -58 -22 l-53 -10 57 1 c31 1 60 -1 63 -4
8 -9 30 -278 22 -285 -3 -4 -32 -10 -64 -14 l-58 -7 64 -2 64 -1 -7 -87 c-4
-49 -12 -116 -17 -150 l-11 -63 -42 -1 -41 -2 38 -10 c24 -7 37 -16 37 -28 0
-25 -46 -198 -64 -241 l-16 -37 -67 28 c-38 16 -234 104 -438 196 -203 92
-385 174 -404 182 -27 11 -31 17 -20 24 10 6 3 9 -22 9 -35 0 -210 74 -217 91
-2 5 -15 9 -28 9 -26 0 -72 39 -57 49 5 3 10 24 10 46 l2 40 -10 -32 c-6 -22
-14 -30 -24 -27 -8 4 -15 11 -15 17 0 6 3 7 7 3 8 -8 43 60 43 83 0 20 -30
-35 -31 -58 -1 -13 -2 -12 -6 2 -5 18 -6 18 -19 -2 -9 -12 -13 -25 -10 -29 3
-5 -1 -9 -9 -9 -20 0 -19 23 1 31 9 4 14 9 11 13 -10 10 -37 -18 -37 -38 0
-11 -4 -19 -9 -19 -15 0 -111 42 -111 49 0 3 24 21 52 40 48 31 52 32 64 16 7
-9 10 -24 7 -33 -4 -10 -3 -14 1 -10 13 11 14 42 2 57 -8 11 -8 13 0 8 7 -4
15 0 18 9 3 8 10 13 15 10 5 -3 12 1 15 10 3 8 10 13 15 9 5 -3 12 -1 16 5 3
5 21 11 38 11 l32 1 -30 7 c-29 7 -25 10 100 93 103 69 144 91 198 104 37 9
66 19 63 21 -2 2 -21 0 -42 -6 -21 -6 -40 -9 -42 -6 -7 7 792 533 810 534 12
1 29 -22 54 -71z m-10368 -255 c178 -142 328 -259 333 -261 27 -10 2 -21 -53
-25 l-63 -3 76 -2 c73 -2 77 -3 135 -48 32 -25 60 -50 62 -54 2 -5 -16 -13
-40 -18 -24 -6 -34 -10 -23 -11 11 -1 34 3 52 8 30 9 38 4 147 -80 64 -49 116
-94 116 -100 0 -27 -40 -13 -189 66 -90 48 -165 84 -167 82 -3 -3 41 -28 98
-57 57 -29 132 -68 167 -88 l64 -35 -29 -25 c-34 -29 -275 -243 -384 -342
-123 -111 -138 -122 -193 -136 l-52 -13 45 6 45 5 -50 -43 c-27 -24 -121 -109
-210 -188 -88 -79 -171 -151 -184 -159 -22 -15 -25 -14 -38 4 -17 22 -123 235
-123 246 0 4 21 14 48 22 l47 15 -55 -5 -56 -6 -23 74 c-35 106 -60 206 -53
212 3 4 26 6 51 7 37 1 41 2 21 9 -14 4 -37 5 -51 3 -15 -3 -29 -1 -32 4 -3 5
-13 71 -23 147 -14 114 -15 139 -4 146 8 5 62 18 122 31 59 12 106 24 104 26
-2 2 -52 -5 -110 -16 -59 -12 -112 -21 -118 -21 -14 0 -3 279 12 294 6 6 80
13 173 17 l162 5 -162 2 c-89 1 -164 6 -167 11 -11 17 45 264 64 285 7 7 360
-164 520 -253 l55 -30 -120 -4 -120 -3 131 -1 130 -1 124 -62 c90 -45 119 -64
109 -71 -8 -5 -23 -9 -33 -9 -11 0 -17 -3 -14 -6 9 -8 78 7 78 17 0 5 -51 34
-112 65 -62 31 -114 60 -116 65 -2 5 -9 9 -15 9 -14 0 -423 206 -529 267 -43
25 -78 49 -78 54 0 13 37 106 77 191 l36 78 31 -19 c16 -11 176 -136 354 -278z
m1356 75 c20 -48 36 -90 36 -95 0 -4 -45 -8 -99 -8 l-100 0 43 80 c24 44 49
91 56 104 16 30 21 23 64 -81z m7205 -33 c0 -5 -11 10 -24 35 -13 25 -24 52
-24 60 1 16 48 -78 48 -95z m447 -31 c-18 -60 -41 -122 -51 -137 -10 -15 -15
-30 -11 -34 3 -4 -1 -17 -9 -30 -9 -13 -13 -28 -9 -34 8 -14 -26 -136 -42
-150 -12 -9 -14 -2 -14 43 0 45 4 59 25 78 14 13 23 26 20 28 -3 3 -12 -3 -20
-14 -14 -18 -14 -18 -15 6 0 36 11 71 21 65 4 -3 6 -12 2 -20 -3 -8 0 -15 7
-15 6 0 8 5 5 10 -3 6 -1 10 6 10 9 0 9 3 0 14 -10 11 -9 16 4 24 20 11 16 44
-5 49 -13 4 -13 3 0 -6 9 -6 10 -11 3 -11 -6 0 -14 -8 -16 -17 -3 -10 -5 2 -6
27 -1 40 6 55 65 138 36 52 68 92 70 90 2 -2 -12 -53 -30 -114z m-8267 61 l49
-24 22 -98 c12 -54 28 -124 35 -156 11 -50 11 -59 -2 -64 -7 -3 -15 -4 -16 -2
-16 24 -152 369 -145 369 5 0 31 -11 57 -25z m921 -75 c-40 -44 -77 -83 -82
-86 -11 -7 -68 15 -68 26 0 7 208 140 219 140 2 0 -29 -36 -69 -80z m285 51
c-3 -6 -11 -11 -17 -11 -6 0 -6 6 2 15 14 17 26 13 15 -4z m5295 -63 c118 -33
224 -63 235 -66 229 -59 659 -185 670 -195 12 -12 6 -18 -38 -38 -56 -26 -67
-35 -67 -61 0 -34 30 -50 78 -43 l44 7 -6 -29 c-2 -15 -8 -47 -11 -71 -6 -40
-9 -43 -31 -38 -58 14 -74 14 -27 -1 62 -19 77 -47 35 -65 -31 -14 -178 -16
-372 -6 -143 7 -150 8 140 -18 l75 -7 -75 -17 c-41 -10 -241 -53 -444 -96
-203 -43 -365 -79 -359 -81 6 -2 64 8 129 22 523 114 826 173 860 168 l37 -6
-74 -39 c-88 -46 -74 -44 34 6 54 25 79 32 82 23 2 -6 9 -30 16 -52 16 -55 46
-113 80 -156 16 -20 29 -40 29 -43 0 -4 -28 -20 -62 -35 -35 -16 -243 -113
-463 -216 -616 -288 -652 -305 -669 -305 -14 0 -126 226 -126 253 0 10 43 37
123 77 143 71 136 72 -20 1 -101 -45 -114 -48 -122 -33 -5 9 -23 73 -40 142
-37 147 -41 139 84 165 47 10 83 20 81 22 -2 2 -45 -4 -95 -13 -55 -10 -96
-13 -101 -8 -10 10 -34 283 -26 291 7 7 35 7 196 0 l145 -6 -159 14 c-88 8
-165 16 -172 19 -15 6 -13 53 8 215 l10 83 52 -6 51 -5 -40 15 c-22 8 -43 18
-48 23 -9 9 33 187 58 247 18 43 -6 46 295 -38z m-6206 -68 c4 -5 -2 -14 -15
-21 -13 -7 -54 -41 -90 -76 l-66 -63 -27 122 c-14 68 -26 130 -26 139 0 13 24
4 108 -38 59 -31 111 -59 116 -63z m894 103 c-1 -5 -23 -45 -48 -90 -39 -72
-49 -82 -75 -85 -24 -2 -34 -11 -52 -48 -25 -51 -29 -42 -10 27 9 36 29 64 87
125 41 43 81 78 88 78 8 0 12 -3 10 -7z m3352 -35 c-19 -5 -48 -19 -65 -30
l-30 -20 33 31 c23 22 41 31 65 30 l32 -1 -35 -10z m3360 -54 c0 -8 -4 -14
-10 -14 -5 0 -10 9 -10 21 0 11 5 17 10 14 6 -3 10 -13 10 -21z m-7340 -15 c3
-13 11 -24 18 -25 6 -1 21 -2 32 -2 11 -1 20 -8 20 -16 0 -7 10 -16 23 -20 36
-9 42 -7 21 9 -18 14 -17 15 8 4 32 -14 27 -43 -6 -33 -66 22 -126 34 -164 34
-43 0 -92 23 -92 43 0 5 9 2 19 -7 16 -14 29 -16 61 -11 38 6 41 9 35 32 -4
18 -2 24 7 21 7 -3 15 -16 18 -29z m7476 -36 c-10 -10 -26 9 -26 31 0 37 14
40 23 6 4 -18 6 -34 3 -37z m-7356 37 c0 -11 -4 -20 -10 -20 -5 0 -10 9 -10
20 0 11 5 20 10 20 6 0 10 -9 10 -20z m3680 11 c0 -5 -11 -12 -24 -15 -13 -3
-32 -9 -41 -12 -15 -6 -16 -4 -6 14 8 15 21 22 41 22 17 0 30 -4 30 -9z m165
-1 c18 -8 17 -9 -7 -9 -16 -1 -28 4 -28 9 0 12 8 12 35 0z m3407 -34 c1 -10
-3 -21 -9 -23 -9 -3 -13 6 -13 28 0 34 15 31 22 -5z m-7129 -1 c1 -5 -6 -11
-15 -13 -11 -2 -18 3 -18 13 0 17 30 18 33 0z m3984 -40 c-10 -34 -11 -35 -64
-35 -29 0 -53 4 -53 8 0 18 57 61 85 64 42 5 44 2 32 -37z m3353 20 c0 -14 -4
-25 -10 -25 -11 0 -14 33 -3 43 11 11 13 8 13 -18z m-7817 -6 c12 -17 19 -19
35 -10 12 6 23 7 26 3 3 -5 -11 -14 -31 -20 -29 -9 -40 -8 -59 5 -27 17 -30
29 -11 36 21 9 25 8 40 -14z m4077 18 c0 -2 -17 -19 -37 -38 l-38 -34 34 38
c33 34 41 42 41 34z m-3970 -17 c0 -5 -7 -10 -16 -10 -8 0 -12 5 -9 10 3 6 10
10 16 10 5 0 9 -4 9 -10z m360 -10 c0 -5 -4 -10 -10 -10 -5 0 -10 5 -10 10 0
6 5 10 10 10 6 0 10 -4 10 -10z m3835 0 c3 -5 1 -10 -4 -10 -6 0 -11 5 -11 10
0 6 2 10 4 10 3 0 8 -4 11 -10z m3408 -1 c20 -5 37 -13 37 -16 0 -7 -71 -103
-76 -103 -6 0 -54 107 -54 120 0 13 45 13 93 -1z m-7443 -19 c0 -13 -20 -13
-40 0 -12 8 -9 10 13 10 15 0 27 -4 27 -10z m395 -29 c-7 -23 -25 -29 -25 -8
0 14 21 39 28 33 2 -3 1 -14 -3 -25z m7143 -25 c2 -35 -2 -53 -14 -67 -10 -11
-12 -19 -6 -19 7 0 12 -16 12 -39 0 -44 -18 -58 -52 -40 -20 11 -19 11 8 40
15 16 23 29 16 29 -6 0 -19 -11 -28 -25 -22 -33 -28 -32 -49 14 l-17 39 43 61
c32 46 49 61 64 59 16 -2 21 -12 23 -52z m-3637 25 c7 11 9 10 9 -3 0 -11 -8
-18 -20 -18 -14 0 -18 5 -13 17 5 12 8 13 11 4 4 -11 6 -11 13 0z m2935 -6
c10 -8 14 -15 8 -15 -5 0 -19 7 -30 15 -10 8 -14 15 -8 15 5 0 19 -7 30 -15z
m-6926 -5 c0 -5 -15 -9 -32 -9 l-33 1 30 8 c17 4 31 8 33 9 1 0 2 -3 2 -9z
m-280 -10 c8 -5 11 -12 8 -16 -10 -9 -38 3 -38 16 0 12 10 13 30 0z m4488 3
c-10 -2 -26 -2 -35 0 -10 3 -2 5 17 5 19 0 27 -2 18 -5z m-4041 -26 c4 -7 0
-8 -11 -4 -10 4 -22 7 -27 7 -5 0 -9 4 -9 9 0 12 38 2 47 -12z m7659 15 c-3
-5 4 -16 15 -25 25 -22 24 -30 -5 -64 -19 -22 -27 -25 -37 -16 -9 9 -7 20 11
47 19 31 20 37 6 42 -16 6 -12 24 5 24 6 0 8 -4 5 -8z m-5360 -19 c7 -10 13
-25 14 -33 0 -8 19 -77 42 -153 l42 -139 -31 -56 c-17 -31 -34 -68 -38 -82
-13 -45 -18 -47 -117 -36 l-93 11 3 100 c2 55 -2 157 -8 227 -8 91 -8 134 0
148 13 25 29 25 46 3 13 -17 15 -17 25 0 13 21 27 22 50 1 16 -14 18 -14 29 5
13 26 19 26 36 4z m1279 -41 l-48 -47 43 53 c24 28 46 50 49 47 3 -3 -17 -27
-44 -53z m-1938 12 c3 -9 13 -14 24 -11 24 6 28 -8 36 -131 l6 -105 -31 6
c-17 4 -34 3 -36 -2 -3 -5 13 -11 36 -15 l41 -7 -5 -70 c-3 -38 -8 -72 -11
-75 -5 -5 -348 27 -676 62 -29 3 -71 12 -93 20 -48 17 -51 17 -43 5 3 -5 -3
-12 -12 -14 -10 -3 0 -5 22 -6 40 -1 120 -19 113 -26 -5 -5 -329 32 -335 39
-4 3 8 6 26 6 18 0 30 4 27 9 -3 4 6 13 19 19 18 9 35 8 70 -5 25 -8 48 -13
51 -10 3 3 -8 8 -25 12 -17 4 -33 10 -36 15 -3 4 61 34 142 65 82 32 156 61
166 67 10 5 98 40 195 78 139 55 179 67 190 58 11 -10 17 -9 27 5 15 21 24 21
46 1 16 -14 18 -14 29 5 13 25 28 27 37 5z m6348 7 c-14 -12 -186 -126 -212
-140 -18 -9 -22 -9 -17 2 2 7 0 25 -5 40 -14 36 3 47 118 79 105 28 130 33
116 19z m-8498 -7 c-3 -3 -12 -4 -19 -1 -8 3 -5 6 6 6 11 1 17 -2 13 -5z
m1930 -10 c1 -5 -77 -40 -175 -78 -97 -37 -184 -72 -192 -76 -9 -4 -76 -31
-149 -60 l-134 -53 -49 18 c-27 9 -51 15 -54 13 -2 -3 14 -10 36 -17 47 -14
50 -23 12 -37 -38 -14 -152 -6 -152 11 0 7 -6 16 -12 18 -21 9 34 47 57 41 13
-3 16 -2 8 3 -9 6 14 25 72 61 47 29 90 52 95 52 6 0 10 3 10 8 0 4 23 20 51
36 38 21 48 31 38 37 -9 6 -10 9 -2 9 6 0 19 -8 29 -17 16 -16 18 -16 36 7 19
24 20 24 33 6 14 -19 45 -16 45 4 0 16 21 12 36 -7 13 -17 15 -17 28 0 7 9 18
17 24 17 6 0 15 -8 21 -17 9 -17 11 -16 32 6 l22 23 17 -22 18 -23 13 21 c17
27 27 28 45 5 13 -17 15 -17 28 0 16 21 25 21 47 1 16 -14 18 -14 29 6 11 21
31 23 37 4z m1796 -13 c17 -17 18 -21 2 -82 -19 -75 -38 -99 -75 -99 -42 0
-60 29 -67 107 -5 66 -4 71 18 87 29 20 95 13 122 -13z m3767 8 c0 -5 -4 -9
-10 -9 -5 0 -10 7 -10 16 0 8 5 12 10 9 6 -3 10 -10 10 -16z m-7415 -19 c3 -5
1 -10 -4 -10 -6 0 -11 5 -11 10 0 6 2 10 4 10 3 0 8 -4 11 -10z m1214 -20 c6
0 14 7 17 15 8 20 30 19 38 -1 4 -9 5 -18 4 -19 -2 -1 -17 -11 -35 -23 -17
-12 -38 -22 -47 -22 -9 0 -16 -4 -16 -8 0 -10 -147 -102 -161 -102 -6 0 -12 7
-16 17 -3 9 -24 32 -45 51 -42 38 -48 61 -19 69 12 3 17 11 14 19 -3 8 1 14
11 14 9 0 16 -8 16 -20 0 -14 7 -20 21 -20 11 0 18 4 15 9 -3 4 1 17 9 27 14
18 16 18 26 2 5 -10 15 -18 21 -18 6 0 17 8 24 18 13 16 15 16 29 -3 15 -19
16 -19 38 3 19 20 23 21 33 7 6 -8 16 -15 23 -15z m-906 3 c-7 -2 -19 -2 -25
0 -7 3 -2 5 12 5 14 0 19 -2 13 -5z m60 0 c-7 -2 -21 -2 -30 0 -10 3 -4 5 12
5 17 0 24 -2 18 -5z m7711 -49 c3 -8 10 -12 16 -9 18 11 11 -8 -12 -32 -12
-13 -30 -23 -39 -23 -11 0 -16 -5 -13 -13 6 -16 -71 -91 -85 -83 -15 10 20 66
46 72 13 4 20 10 17 16 -6 10 44 88 56 88 4 0 11 -7 14 -16z m-86 -35 c-18
-22 -38 -49 -44 -60 -13 -22 -29 -26 -29 -6 0 6 -3 15 -8 18 -4 3 -2 20 4 37
8 23 20 35 42 41 66 19 71 14 35 -30z m182 15 c0 -16 -37 -37 -51 -29 -5 4
-17 1 -26 -7 -12 -9 -15 -10 -9 0 4 6 21 19 37 27 16 9 27 20 24 25 -3 6 1 7
9 4 9 -3 16 -12 16 -20z m-7525 -4 c4 -6 -6 -10 -22 -9 -25 0 -26 1 -8 9 11 5
21 9 22 9 1 1 5 -3 8 -9z m6824 -18 c26 -37 36 -78 21 -87 -8 -5 -32 12 -64
44 -42 42 -48 53 -36 61 28 18 58 11 79 -18z m-3759 3 c-7 -8 -17 -15 -22 -15
-6 0 -5 7 2 15 7 8 17 15 22 15 6 0 5 -7 -2 -15z m4190 -5 c0 -11 -4 -20 -10
-20 -5 0 -10 9 -10 20 0 11 5 20 10 20 6 0 10 -9 10 -20z m-492 -41 c30 -28
52 -52 50 -54 -12 -12 -156 -75 -172 -75 -17 0 -18 6 -13 63 11 135 45 151
135 66z m-4089 -17 c1 -7 -3 -10 -9 -7 -5 3 -10 18 -9 33 0 24 1 25 9 7 5 -11
9 -26 9 -33z m4796 18 c-4 -6 -39 -32 -78 -58 -95 -64 -97 -65 -97 -53 0 6 7
11 15 11 8 0 15 5 15 12 0 7 19 32 42 55 33 34 49 43 76 43 20 0 31 -4 27 -10z
m-867 -12 c-5 -16 -48 -24 -48 -9 0 8 17 16 43 20 5 0 7 -5 5 -11z m-3418 -1
c0 -1 -26 -27 -57 -57 l-58 -55 55 58 c50 53 60 62 60 54z m-3439 -77 c8 -27
12 -47 8 -44 -10 6 -39 94 -31 94 4 0 14 -22 23 -50z m434 11 c9 -16 -13 -23
-47 -16 -22 5 -27 9 -17 16 18 12 56 11 64 0z m6665 0 c0 -5 -23 -14 -50 -20
-68 -15 -72 -13 -25 9 44 20 75 25 75 11z m-7240 -10 c0 -18 -17 -20 -36 -6
-18 14 -18 14 9 15 15 0 27 -4 27 -9z m3868 -84 c6 -72 -22 -127 -83 -163 -47
-27 -182 -77 -197 -72 -4 2 51 72 123 156 91 106 135 150 142 143 6 -6 12 -34
15 -64z m3352 64 c0 -6 -10 -21 -22 -35 -22 -24 -25 -25 -70 -14 -27 6 -48 14
-48 18 0 4 30 14 68 22 37 9 68 16 70 17 1 0 2 -3 2 -8z m364 -7 c10 -25 -1
-29 -14 -5 -6 12 -7 21 -1 21 5 0 12 -7 15 -16z m214 -20 c50 -22 62 -31 62
-50 0 -13 -4 -25 -9 -29 -13 -7 -143 84 -135 96 8 13 12 12 82 -17z m-6978 -4
c-19 -13 -30 -13 -30 0 0 6 10 10 23 10 18 0 19 -2 7 -10z m6165 0 c-3 -5 -15
-10 -26 -10 -11 0 -17 5 -14 10 3 6 15 10 26 10 11 0 17 -4 14 -10z m788 -44
c32 -22 54 -42 50 -43 -30 -9 -155 -18 -159 -11 -3 4 0 25 7 46 6 20 13 43 15
50 4 15 7 14 87 -42z m-7461 30 c60 -3 80 -2 58 3 l-35 8 35 1 c19 1 53 -3 75
-7 l40 -9 -40 -2 c-31 -3 -24 -5 30 -10 39 -4 93 -7 120 -7 l50 0 -50 8 c-70
11 84 3 300 -15 746 -63 955 -83 962 -90 3 -3 -5 -7 -18 -7 -13 -1 77 -10 201
-20 124 -10 232 -16 240 -13 47 20 204 12 197 -9 -2 -7 -15 -11 -30 -9 -14 2
-34 -1 -44 -7 -13 -7 -338 17 -1084 79 -585 49 -1079 92 -1096 95 -18 3 -33
11 -33 17 0 5 7 8 15 4 8 -3 56 -7 107 -10z m-764 -19 c4 -19 -6 -21 -27 -8
-16 10 -5 34 12 28 7 -2 13 -11 15 -20z m7571 7 c44 -13 50 -18 41 -30 -9 -10
-26 -12 -69 -8 -66 8 -57 4 -65 32 -6 18 -4 22 17 22 13 0 47 -7 76 -16z m129
-19 c-3 -3 -13 -2 -22 1 -14 5 -15 9 -4 15 13 8 36 -6 26 -16z m687 7 c-3 -3
-11 0 -18 7 -9 10 -8 11 6 5 10 -3 15 -9 12 -12z m-1015 -2 c0 -5 -15 -10 -32
-9 -28 0 -30 2 -13 9 28 12 45 12 45 0z m-7395 -12 c14 -6 25 -15 25 -20 0 -6
-42 -63 -92 -128 l-93 -119 -95 0 -95 -1 65 58 c35 31 105 94 155 139 49 45
93 82 97 83 4 0 19 -5 33 -12z m1983 -15 c78 -9 140 -18 138 -21 -7 -7 -369
30 -391 40 -24 10 50 5 253 -19z m6396 21 c9 -3 16 -10 16 -16 0 -14 -43 -5
-48 10 -4 13 7 15 32 6z m-664 -14 c11 -7 7 -10 -17 -10 -18 0 -33 5 -33 10 0
13 30 13 50 0z m-3910 -30 c-32 -25 -43 -25 -28 0 7 11 22 20 33 20 18 0 18
-2 -5 -20z m3793 11 c16 -6 15 -10 -13 -49 -16 -23 -33 -42 -36 -42 -7 0 -34
66 -34 85 0 16 49 20 83 6z m-4499 -63 c13 -44 12 -47 -6 -51 -14 -4 -18 -1
-14 9 3 9 -1 14 -14 14 -11 0 -20 5 -20 10 0 19 32 85 36 75 2 -5 10 -31 18
-57z m4606 58 c0 -15 -81 -176 -89 -176 -5 0 -18 14 -29 31 l-20 32 42 58 c33
47 47 59 69 59 15 0 27 -2 27 -4z m44 -11 c6 -16 -80 -144 -97 -145 -4 0 11
36 33 80 40 81 53 93 64 65z m-5551 -2 c-13 -2 -33 -2 -45 0 -13 2 -3 4 22 4
25 0 35 -2 23 -4z m6362 -30 c62 -29 74 -38 59 -44 -14 -5 -8 -8 20 -8 28 -1
148 -50 430 -177 527 -237 606 -275 606 -291 0 -25 -112 -263 -124 -263 -11 0
-125 76 -536 355 -412 279 -555 377 -565 387 -7 7 15 9 65 5 56 -4 65 -3 35 3
-22 5 -59 9 -82 9 -48 1 -54 7 -42 39 12 32 44 28 134 -15z m-8480 -69 c28
-55 44 -99 39 -104 -5 -5 -50 -11 -99 -13 l-90 -3 93 -2 c91 -2 92 -2 92 -27
0 -14 -4 -25 -9 -25 -5 0 -7 -8 -4 -18 2 -10 -7 -106 -22 -213 -22 -166 -29
-197 -48 -215 -23 -23 -576 -516 -640 -571 -21 -18 -43 -33 -51 -33 -18 0
-206 179 -206 196 0 7 135 182 299 388 269 336 303 375 338 385 23 6 27 9 11
7 -16 -2 -28 -1 -28 1 0 10 83 113 91 113 5 0 9 5 9 10 0 9 167 220 175 220 1
0 24 -43 50 -96z m2208 89 c-13 -2 -33 -2 -45 0 -13 2 -3 4 22 4 25 0 35 -2
23 -4z m5207 -3 c0 -12 -40 -34 -48 -26 -3 4 3 13 14 21 22 17 34 19 34 5z
m820 0 c0 -6 -7 -13 -16 -17 -25 -9 4 -23 49 -23 34 0 38 -3 35 -21 -3 -19 -9
-22 -53 -22 -45 0 -53 -3 -81 -36 l-31 -36 -22 42 c-11 23 -21 47 -21 53 0 13
88 3 106 -11 8 -6 13 -3 17 10 4 16 -3 19 -63 23 -94 7 -109 20 -40 34 71 15
120 17 120 4z m-190 -16 c0 -8 -5 -12 -10 -9 -6 4 -8 11 -5 16 9 14 15 11 15
-7z m-328 -21 c15 -15 28 -32 28 -38 0 -10 -74 -46 -169 -83 -8 -3 13 29 45
71 33 42 61 76 63 77 3 0 18 -12 33 -27z m-4102 0 c-1 -11 -80 -47 -87 -40 -2
3 12 15 34 26 42 22 53 25 53 14z m4444 -14 c3 -4 36 -134 36 -144 0 -20 -39
4 -92 57 l-61 61 23 19 c20 16 82 21 94 7z m425 -98 c80 -54 228 -154 328
-222 100 -68 283 -193 408 -278 124 -85 230 -162 235 -171 7 -13 -4 -37 -48
-102 -31 -46 -69 -99 -83 -117 l-26 -33 -90 64 c-457 320 -1003 717 -1012 735
-8 18 -4 28 28 63 21 23 53 68 72 101 19 32 36 59 38 59 2 0 70 -44 150 -99z
m-4130 62 c24 -20 38 -99 22 -123 -10 -14 -104 -28 -149 -22 -33 5 -58 47 -46
80 7 20 26 33 74 54 78 33 73 32 99 11z m3121 -9 c0 -19 -29 -64 -41 -64 -20
0 -20 31 1 60 21 30 40 32 40 4z m635 -24 c13 -29 15 -44 7 -52 -8 -8 -14 1
-22 31 -6 23 -14 49 -17 58 -13 34 14 2 32 -37z m-305 25 c0 -8 -4 -15 -10
-15 -5 0 -10 7 -10 15 0 8 5 15 10 15 6 0 10 -7 10 -15z m102 -15 c-1 -13 -14
-49 -28 -80 l-26 -55 -18 35 c-11 20 -19 56 -20 83 l0 48 48 -3 c43 -3 47 -5
44 -28z m46 6 c-2 -7 21 -32 50 -55 28 -23 52 -46 52 -52 0 -13 -71 -45 -128
-57 l-43 -10 7 46 c7 52 26 104 46 126 16 19 20 19 16 2z m-4828 -6 c10 -7 -1
-8 -35 -4 -27 4 -52 8 -54 10 -10 9 75 3 89 -6z m4647 -51 c13 -48 19 -57 25
-43 6 15 7 13 3 -6 -2 -14 -5 -35 -5 -46 0 -20 -3 -21 -42 -13 -53 9 -90 23
-124 46 l-27 17 39 34 c42 36 29 34 -22 -5 -35 -26 -44 -28 -44 -10 0 15 87
60 101 52 5 -4 21 3 35 14 15 12 31 21 35 21 5 0 17 -28 26 -61z m513 57 c0
-2 -8 -10 -17 -17 -16 -13 -17 -12 -4 4 13 16 21 21 21 13z m-7310 -76 c23
-38 39 -74 35 -80 -3 -5 0 -10 7 -10 15 0 58 -63 58 -85 0 -24 -20 -17 -30 11
-10 25 -11 26 -35 10 -24 -16 -26 -16 -35 9 -8 22 -13 24 -29 15 -27 -14 -41
-13 -41 4 0 21 -20 30 -33 17 -16 -16 -37 -14 -37 3 0 22 -19 30 -36 15 -8 -6
-17 -9 -20 -6 -3 3 6 13 20 22 20 13 39 16 84 12 l57 -6 -45 11 c-25 5 -47 11
-48 13 -4 3 78 115 83 115 2 0 22 -31 45 -70z m150 21 c117 -136 114 -131 88
-132 -19 -1 -17 -2 8 -8 38 -10 152 -130 137 -145 -13 -13 -33 -5 -33 14 0 21
-24 28 -35 10 -11 -18 -35 -11 -35 10 0 21 -24 28 -35 10 -11 -18 -35 -11 -35
10 0 21 -24 28 -35 10 -9 -15 -25 -12 -31 5 -4 8 -19 29 -35 46 -16 17 -29 40
-29 50 0 10 -4 19 -9 19 -9 0 -91 125 -91 139 0 4 33 4 73 -1 62 -7 76 -13 97
-37z m545 -31 c645 -67 574 -55 565 -93 -4 -18 -15 -60 -25 -95 l-18 -63 -61
6 -61 5 53 -14 c29 -7 55 -16 58 -18 5 -5 -46 -140 -68 -181 -8 -16 -12 -17
-19 -6 -7 12 -12 12 -29 1 -23 -14 -40 -8 -40 14 0 17 -21 19 -37 3 -13 -13
-33 -4 -33 17 0 17 -21 19 -37 3 -13 -13 -33 -4 -33 17 0 17 -21 19 -37 3 -13
-13 -33 -4 -33 17 0 17 -21 19 -37 3 -13 -13 -33 -4 -33 17 0 17 -31 19 -48 2
-8 -8 -14 -5 -21 15 -7 18 -15 25 -26 21 -8 -3 -15 -10 -15 -15 0 -19 -21 -8
-30 17 -10 25 -11 26 -35 10 -24 -16 -26 -16 -35 9 -11 29 -17 31 -41 9 -17
-16 -19 -15 -28 10 -11 27 -25 33 -36 16 -11 -18 -35 -11 -35 10 0 11 -6 20
-12 21 -7 0 -34 26 -60 57 -40 49 -45 58 -30 64 13 5 11 7 -8 7 -19 1 -42 21
-90 77 -36 42 -67 80 -69 86 -2 5 10 7 30 4 19 -4 250 -29 514 -56z m6553 27
c22 -17 13 -26 -19 -17 -38 11 -43 15 -35 29 7 10 32 5 54 -12z m23 6 c13 -16
12 -17 -3 -4 -10 7 -18 15 -18 17 0 8 8 3 21 -13z m-7427 -9 c17 -6 22 -24 8
-24 -5 0 -17 7 -28 15 -19 15 -8 20 20 9z m3286 -45 c0 -5 -7 -9 -15 -9 -15 0
-20 12 -9 23 8 8 24 -1 24 -14z m3434 -13 c-6 -16 -24 -23 -24 -8 0 10 22 33
27 28 2 -2 1 -11 -3 -20z m-7438 -1 c12 -12 13 -16 2 -19 -37 -12 -39 -15 -5
-11 l37 6 0 -148 -1 -148 -71 -63 c-39 -34 -72 -61 -73 -60 -4 5 46 372 52
388 3 8 5 27 4 43 -2 22 2 27 19 27 12 0 28 -7 36 -15z m-385 -32 c-72 -90
-73 -90 -144 -103 -37 -7 -66 -15 -63 -17 2 -3 28 0 57 6 28 6 54 9 56 7 5 -5
-547 -696 -573 -717 -14 -12 -21 -8 -51 26 -18 22 -59 75 -89 118 -55 77 -56
78 -38 99 39 43 464 418 474 418 6 0 13 7 16 15 4 8 49 53 102 100 l96 85 94
0 94 0 -31 -37z m1013 6 c-8 -14 -34 -11 -34 4 0 8 3 17 7 20 9 9 34 -13 27
-24z m6750 13 c12 -19 -98 -118 -264 -238 -570 -414 -685 -497 -735 -531 l-57
-37 -19 24 c-59 75 -151 222 -143 230 12 12 70 40 324 158 118 55 359 168 535
251 176 82 328 150 337 150 9 1 19 -3 22 -7z m399 -12 c-5 -19 -23 -29 -23
-12 0 7 20 32 26 32 1 0 0 -9 -3 -20z m227 10 c0 -5 -2 -10 -4 -10 -3 0 -8 5
-11 10 -3 6 -1 10 4 10 6 0 11 -4 11 -10z m-460 -40 c0 -20 -5 -30 -15 -30
-15 0 -21 40 -8 53 14 15 23 6 23 -23z m190 14 c0 -8 -4 -12 -10 -9 -5 3 -10
10 -10 16 0 5 5 9 10 9 6 0 10 -7 10 -16z m-7566 -68 c28 -12 53 -25 55 -30 3
-9 -158 -156 -171 -156 -4 0 -8 57 -8 126 l0 126 36 -23 c20 -12 60 -32 88
-43z m4013 43 c95 -46 117 -140 65 -271 -54 -135 -98 -188 -173 -208 -99 -27
-203 58 -303 249 l-58 113 18 35 c25 46 44 57 134 77 147 32 258 34 317 5z
m3280 -9 c54 -34 143 -70 176 -70 51 -1 49 -10 -57 -230 -57 -118 -116 -244
-133 -280 -126 -272 -310 -661 -326 -688 -10 -17 -24 -32 -29 -32 -14 0 -153
63 -211 96 l-46 25 18 47 c26 64 519 1112 537 1140 8 12 16 22 19 22 2 0 26
-14 52 -30z m453 -17 c0 -19 -14 -16 -34 6 -24 27 -11 48 15 25 10 -9 19 -23
19 -31z m201 -22 c11 -24 18 -45 16 -47 -7 -7 -88 97 -82 106 11 18 47 -14 66
-59z m-351 39 c0 -11 -4 -20 -10 -20 -5 0 -10 9 -10 20 0 11 5 20 10 20 6 0
10 -9 10 -20z m-7247 -5 c9 -22 -8 -26 -21 -4 -10 15 -10 19 2 19 8 0 16 -7
19 -15z m2182 -4 l40 -7 7 -64 c12 -129 61 -268 128 -364 l31 -46 -38 -45
c-59 -71 -103 -92 -103 -49 0 17 -21 19 -37 3 -13 -13 -33 -4 -33 17 0 17 -21
19 -37 3 -13 -13 -33 -4 -33 17 0 16 -26 19 -35 4 -11 -17 -25 -11 -36 16 -9
25 -11 26 -28 10 -24 -22 -30 -20 -41 9 -10 26 -24 32 -35 15 -12 -19 -35 -10
-35 13 0 12 16 65 36 117 29 80 76 242 98 341 5 25 8 26 58 21 29 -2 71 -7 93
-11z m4959 -7 c8 -29 3 -39 -13 -29 -13 8 -15 55 -2 55 5 0 12 -12 15 -26z
m-6996 -1 c0 -10 3 -101 7 -203 l7 -185 -29 32 c-15 17 -45 51 -66 76 l-38 45
17 108 c17 114 29 136 66 126 14 -3 19 -1 14 6 -4 7 -1 12 8 12 8 0 15 -8 14
-17z m2476 -8 c70 -7 131 -16 134 -19 2 -3 -17 -31 -44 -63 -190 -225 -229
-268 -243 -265 -32 7 -81 44 -101 76 -23 39 -57 161 -61 227 l-3 44 55 -3 c40
-3 59 1 68 12 8 9 23 13 39 10 15 -2 85 -11 156 -19z m4657 -38 c-18 -18 -35
7 -26 40 l7 28 15 -29 c11 -20 12 -31 4 -39z m239 21 c15 -58 29 -111 179
-665 115 -424 164 -614 158 -619 -6 -6 -153 -46 -209 -57 -50 -11 -70 -12 -76
-3 -5 6 -20 50 -33 98 -13 48 -25 85 -27 83 -2 -2 7 -44 19 -95 18 -73 20 -93
10 -100 -14 -8 -70 -15 -203 -26 l-86 -7 -6 74 c-12 160 -38 1144 -30 1174 8
31 24 33 25 3 0 -13 3 -17 6 -11 2 7 0 28 -6 46 -7 19 -9 40 -6 48 3 9 38 21
86 31 45 9 102 28 128 41 25 13 49 25 53 26 4 0 12 -18 18 -41z m-7214 -7 c71
-21 144 -42 161 -45 32 -7 50 -22 40 -33 -7 -6 -328 95 -341 108 -17 15 5 11
140 -30z m6541 27 c-7 -15 -447 -948 -501 -1060 -20 -43 -42 -78 -49 -78 -14
0 -154 94 -207 138 l-35 29 27 39 c15 22 56 75 91 119 462 582 659 825 668
825 6 0 9 -6 6 -12z m748 -58 c54 -58 78 -102 234 -423 96 -196 176 -355 178
-353 2 1 -69 151 -157 331 -88 180 -159 329 -157 331 3 4 613 -664 690 -754
26 -31 47 -60 47 -64 0 -10 -102 -86 -182 -136 l-68 -42 -14 22 c-8 13 -46 86
-85 163 -38 77 -70 137 -70 132 -1 -4 21 -51 48 -105 27 -54 61 -126 75 -160
l25 -62 -62 -32 c-72 -36 -181 -78 -202 -78 -9 0 -20 12 -26 28 -9 22 -92 330
-328 1205 -10 37 -15 66 -12 65 4 -2 34 -32 66 -68z m-7845 50 c0 -5 -2 -10
-4 -10 -3 0 -8 5 -11 10 -3 6 -1 10 4 10 6 0 11 -4 11 -10z m126 -17 c-10 -10
-19 5 -10 18 6 11 8 11 12 0 2 -7 1 -15 -2 -18z m7996 -159 c603 -430 777
-557 782 -570 8 -21 -33 -72 -123 -155 l-76 -70 -90 93 c-50 51 -229 246 -399
433 -232 256 -314 353 -332 394 -13 29 -24 56 -24 58 0 3 21 -11 48 -30 26
-19 122 -88 214 -153z m-7826 134 c-3 -18 -10 -64 -17 -101 -6 -38 -15 -65
-19 -60 -3 4 -35 42 -70 83 l-63 74 68 13 c37 7 70 15 73 18 3 3 12 5 20 5 11
0 13 -8 8 -32z m325 -29 l157 -50 235 -372 c129 -205 242 -388 252 -407 l18
-34 -46 -42 c-25 -22 -77 -62 -116 -89 l-71 -48 -30 34 c-17 19 -113 128 -213
244 -100 116 -228 263 -284 328 l-103 118 0 137 c0 75 -3 161 -7 191 l-6 54
29 -7 c16 -4 99 -30 185 -57z m-562 25 c2 -2 -4 -13 -15 -25 l-19 -21 -17 22
c-10 12 -18 26 -18 31 0 8 59 1 69 -7z m130 -88 l80 -94 -15 -93 c-14 -87 -20
-108 -27 -98 -2 2 -47 73 -100 158 l-98 153 26 34 c14 19 32 34 40 34 7 0 49
-42 94 -94z m6644 -138 c-98 -123 -253 -317 -345 -433 -91 -115 -174 -218
-185 -227 -19 -17 -23 -14 -121 86 -56 57 -102 108 -102 113 0 15 54 57 295
230 116 83 305 221 420 306 116 85 212 153 213 152 2 -2 -77 -104 -175 -227z
m-6837 197 c9 -14 14 -31 11 -37 -3 -7 -51 -71 -108 -142 -84 -106 -104 -126
-110 -110 -5 15 -7 13 -10 -13 -3 -21 -34 -70 -99 -152 -52 -67 -96 -117 -98
-113 -1 5 6 69 17 143 l20 134 73 67 c40 37 74 66 75 65 1 -2 46 39 100 90 54
51 101 93 105 93 4 0 15 -11 24 -25z m7454 -41 c0 -50 -30 -187 -135 -607
-147 -588 -161 -637 -178 -637 -46 1 -277 69 -277 82 0 12 72 167 322 698 268
566 250 530 260 530 4 0 8 -29 8 -66z m17 19 c-3 -10 -5 -4 -5 12 0 17 2 24 5
18 2 -7 2 -21 0 -30z m-6542 -30 c121 -35 160 -56 151 -80 -3 -7 1 -13 8 -13
23 0 416 -459 416 -485 0 -8 -43 -60 -96 -115 -73 -75 -100 -98 -109 -90 -14
12 -82 117 -329 509 -91 145 -165 266 -163 268 2 1 37 -8 77 -22 41 -14 78
-24 83 -22 4 1 -31 15 -80 31 -48 16 -94 33 -100 38 -19 15 -16 31 5 23 9 -4
71 -23 137 -42z m-790 -163 c58 -91 103 -172 100 -180 -4 -13 -65 -448 -95
-675 -6 -44 -16 -111 -22 -150 -6 -38 -12 -79 -13 -90 -2 -19 -9 -20 -101 -18
-54 1 -122 5 -150 8 -45 5 -52 9 -51 28 0 12 -3 232 -8 489 l-8 466 114 145
c63 80 117 145 121 144 4 -1 55 -76 113 -167z m1533 -56 c57 -17 56 -17 42
-44 -9 -17 -14 -17 -102 10 -369 111 -526 171 -528 201 0 5 393 -106 588 -167z
m1675 146 c10 -16 34 -51 53 -76 48 -63 107 -226 101 -277 -7 -53 -48 -110
-94 -133 -30 -15 -58 -19 -128 -18 -152 2 -249 44 -281 121 -17 39 -17 99 -1
135 19 44 241 275 245 255 5 -24 44 -21 60 3 17 27 25 25 45 -10z m2365 11
c-9 -15 -9 -25 0 -46 7 -14 12 -31 12 -38 -1 -12 -22 32 -34 70 -5 16 -2 23
11 26 10 3 19 5 21 6 1 0 -3 -8 -10 -18z m-4322 -130 c120 -40 233 -78 251
-86 17 -8 36 -15 42 -15 6 0 11 -4 11 -9 0 -14 -160 -251 -170 -251 -10 0
-372 414 -379 433 -2 5 3 8 11 5 8 -3 113 -38 234 -77z m-1037 -2 l61 -70 2
-82 2 -82 3 68 c2 38 8 67 13 65 8 -3 508 -579 569 -657 33 -42 34 -44 16 -57
-26 -19 -204 -110 -232 -118 -24 -8 -49 27 -233 324 -46 74 -92 146 -102 159
-12 15 -19 43 -20 80 -1 35 -3 44 -5 24 -2 -18 -7 -33 -11 -33 -4 0 -43 56
-85 124 l-78 124 12 101 c7 56 16 101 20 101 4 0 35 -32 68 -71z m7121 -587
c9 -340 9 -477 2 -484 -8 -8 -51 -7 -152 5 -78 8 -144 18 -147 21 -3 3 56 252
131 553 75 301 137 553 138 558 5 41 18 -257 28 -653z m-1717 581 c10 -23 14
-28 11 -13 -4 21 -2 20 14 -8 10 -18 22 -29 26 -25 5 4 4 -2 -3 -14 -8 -16 -8
-28 0 -47 7 -14 15 -23 20 -21 4 3 11 0 15 -6 5 -8 3 -9 -7 -4 -8 4 -5 -1 6
-12 11 -11 24 -18 29 -15 5 3 7 -2 3 -11 -4 -10 -2 -17 5 -17 6 0 5 -6 -3 -17
-8 -9 -9 -14 -4 -11 6 4 17 -2 24 -14 7 -11 8 -17 2 -13 -21 13 -11 -14 12
-30 12 -8 21 -18 20 -20 -2 -3 -3 -11 -3 -17 0 -9 4 -8 11 2 8 12 9 10 4 -9
-5 -15 -3 -21 3 -17 6 3 13 -3 17 -14 3 -11 18 -34 32 -50 13 -17 21 -30 16
-30 -4 0 -19 17 -33 38 -14 20 -28 39 -32 42 -31 24 -175 272 -202 348 -19 52
-5 56 17 5z m-2956 -19 c-3 -3 -12 -4 -19 -1 -8 3 -5 6 6 6 11 1 17 -2 13 -5z
m731 -5 c-2 -6 -8 -10 -13 -10 -5 0 -11 4 -13 10 -2 6 4 11 13 11 9 0 15 -5
13 -11z m-3944 -179 l-18 -142 -124 -156 c-194 -245 -275 -342 -284 -342 -10
0 -168 107 -213 143 -27 22 -28 26 -15 42 8 10 118 111 245 224 126 113 272
245 325 292 52 48 97 85 99 83 2 -1 -5 -67 -15 -144z m4072 73 c78 -84 80
-107 8 -149 -42 -24 -46 -25 -68 -10 -23 14 -66 108 -66 141 0 24 38 55 66 55
16 0 37 -13 60 -37z m-3871 -452 l7 -474 -54 6 c-48 6 -87 15 -212 48 l-38 10
6 52 c3 29 23 172 43 319 l37 267 100 126 c54 69 100 124 101 122 2 -1 6 -215
10 -476z m553 299 l82 -131 2 -222 2 -222 6 210 5 210 132 -210 c131 -210 179
-293 172 -299 -8 -7 -225 -75 -261 -81 l-38 -7 0 48 c-1 40 -3 46 -11 30 -6
-10 -9 -33 -6 -51 l5 -33 -61 -11 c-34 -6 -104 -14 -155 -18 l-93 -6 6 54 c7
53 30 230 79 584 13 99 28 204 31 233 4 28 10 52 14 52 3 0 43 -59 89 -130z
m2292 40 c0 -5 -5 -10 -11 -10 -5 0 -7 5 -4 10 3 6 8 10 11 10 2 0 4 -4 4 -10z
m110 -70 c0 -5 -2 -10 -4 -10 -3 0 -8 5 -11 10 -3 6 -1 10 4 10 6 0 11 -4 11
-10z m78 -2 c-2 -6 -10 -14 -16 -16 -7 -2 -10 2 -6 12 7 18 28 22 22 4z m57
-28 c3 -5 2 -10 -4 -10 -5 0 -13 5 -16 10 -3 6 -2 10 4 10 5 0 13 -4 16 -10z
m-3320 -67 c-3 -16 -19 -127 -35 -248 -41 -299 -47 -328 -68 -320 -10 4 -39
15 -67 25 -78 27 -195 89 -195 103 0 6 33 54 73 104 39 51 119 153 177 227 58
74 108 135 112 135 4 1 5 -11 3 -26z m2875 21 c0 -3 -5 -14 -10 -25 -15 -27
-110 -28 -110 -1 0 10 3 22 7 25 8 8 113 9 113 1z m330 2 c0 -3 -4 -16 -9 -30
-8 -18 -15 -23 -30 -19 -25 6 -26 11 -4 35 14 16 43 25 43 14z m-350 -76 c0
-19 -4 -20 -37 -15 -61 10 -72 17 -43 25 14 5 37 8 53 9 21 1 27 -4 27 -19z
m325 1 c11 -7 -65 -19 -78 -13 -4 2 -3 10 4 18 11 13 48 11 74 -5z"/>
<path d="M4902 5419 c11 -32 21 -29 33 9 5 19 3 22 -19 22 -24 0 -24 -2 -14
-31z"/>
<path d="M4965 5423 c7 -30 13 -39 19 -32 2 2 7 16 11 32 6 23 4 27 -15 27
-19 0 -21 -4 -15 -27z"/>
<path d="M5272 5425 c6 -14 14 -25 18 -25 4 0 12 11 18 25 11 24 10 25 -18 25
-28 0 -29 -1 -18 -25z"/>
<path d="M4790 5415 c-20 -25 -8 -50 25 -50 21 0 31 5 33 18 4 21 -14 47 -33
47 -7 0 -18 -7 -25 -15z"/>
<path d="M5060 5415 c0 -9 5 -15 11 -13 6 2 11 8 11 13 0 5 -5 11 -11 13 -6 2
-11 -4 -11 -13z"/>
<path d="M5160 5415 c-19 -23 -8 -50 22 -53 19 -2 28 2 33 18 12 39 -29 66
-55 35z"/>
<path d="M5060 5370 c0 -5 7 -10 15 -10 8 0 15 5 15 10 0 6 -7 10 -15 10 -8 0
-15 -4 -15 -10z"/>
<path d="M9432 3995 c0 -22 4 -67 8 -100 6 -55 7 -56 8 -15 0 25 -3 70 -8 100
-6 47 -7 49 -8 15z"/>
<path d="M9700 3550 c-7 -127 -11 -232 -8 -235 2 -3 11 99 18 225 7 127 11
232 8 235 -2 3 -11 -99 -18 -225z"/>
<path d="M9675 3135 c-4 -86 -5 -158 -2 -161 2 -3 8 65 12 151 4 86 5 158 2
161 -3 3 -8 -65 -12 -151z"/>
<path d="M10016 2705 c-9 -26 -7 -32 5 -12 6 10 9 21 6 23 -2 3 -7 -2 -11 -11z"/>
<path d="M10036 2693 c-6 -14 -5 -15 5 -6 7 7 10 15 7 18 -3 3 -9 -2 -12 -12z"/>
<path d="M10020 2660 c0 -5 5 -10 11 -10 5 0 7 5 4 10 -3 6 -8 10 -11 10 -2 0
-4 -4 -4 -10z"/>
<path d="M1778 2553 c7 -3 16 -2 19 1 4 3 -2 6 -13 5 -11 0 -14 -3 -6 -6z"/>
<path d="M1728 2543 c6 -2 18 -2 25 0 6 3 1 5 -13 5 -14 0 -19 -2 -12 -5z"/>
<path d="M1678 2533 c6 -2 18 -2 25 0 6 3 1 5 -13 5 -14 0 -19 -2 -12 -5z"/>
<path d="M1638 2523 c7 -3 16 -2 19 1 4 3 -2 6 -13 5 -11 0 -14 -3 -6 -6z"/>
<path d="M1588 2513 c6 -2 18 -2 25 0 6 3 1 5 -13 5 -14 0 -19 -2 -12 -5z"/>
<path d="M11195 2875 c-44 -13 -142 -40 -218 -61 -75 -20 -135 -39 -133 -41 4
-5 448 115 455 123 9 9 -28 1 -104 -21z"/>
<path d="M10712 2742 c-51 -14 -90 -27 -88 -29 4 -5 198 46 205 53 9 8 -27 1
-117 -24z"/>
<path d="M11373 2613 c9 -2 23 -2 30 0 6 3 -1 5 -18 5 -16 0 -22 -2 -12 -5z"/>
<path d="M11278 2603 c12 -2 32 -2 45 0 12 2 2 4 -23 4 -25 0 -35 -2 -22 -4z"/>
<path d="M11198 2593 c12 -2 30 -2 40 0 9 3 -1 5 -23 4 -22 0 -30 -2 -17 -4z"/>
<path d="M11103 2583 c9 -2 25 -2 35 0 9 3 1 5 -18 5 -19 0 -27 -2 -17 -5z"/>
<path d="M11013 2573 c15 -2 37 -2 50 0 12 2 0 4 -28 4 -27 0 -38 -2 -22 -4z"/>
<path d="M10918 2563 c12 -2 32 -2 45 0 12 2 2 4 -23 4 -25 0 -35 -2 -22 -4z"/>
<path d="M10833 2553 c9 -2 25 -2 35 0 9 3 1 5 -18 5 -19 0 -27 -2 -17 -5z"/>
<path d="M10738 2543 c12 -2 32 -2 45 0 12 2 2 4 -23 4 -25 0 -35 -2 -22 -4z"/>
<path d="M10648 2533 c12 -2 32 -2 45 0 12 2 2 4 -23 4 -25 0 -35 -2 -22 -4z"/>
<path d="M10558 2523 c12 -2 32 -2 45 0 12 2 2 4 -23 4 -25 0 -35 -2 -22 -4z"/>
<path d="M10468 2513 c12 -2 32 -2 45 0 12 2 2 4 -23 4 -25 0 -35 -2 -22 -4z"/>
<path d="M10383 2503 c9 -2 25 -2 35 0 9 3 1 5 -18 5 -19 0 -27 -2 -17 -5z"/>
<path d="M10298 2493 c12 -2 30 -2 40 0 9 3 -1 5 -23 4 -22 0 -30 -2 -17 -4z"/>
<path d="M10186 2449 c2 -4 -4 -10 -15 -14 -29 -9 -23 -43 6 -37 13 2 23 9 23
14 0 5 -10 6 -21 3 -15 -5 -19 -4 -15 4 4 6 16 11 27 11 10 0 19 6 19 13 0 8
-7 14 -15 14 -8 0 -12 -4 -9 -8z"/>
<path d="M11337 2303 c18 -2 50 -2 70 0 21 2 7 4 -32 4 -38 0 -55 -2 -38 -4z"/>
<path d="M11197 2293 c18 -2 50 -2 70 0 21 2 7 4 -32 4 -38 0 -55 -2 -38 -4z"/>
<path d="M11058 2283 c17 -2 47 -2 65 0 17 2 3 4 -33 4 -36 0 -50 -2 -32 -4z"/>
<path d="M10907 2273 c18 -2 50 -2 70 0 21 2 7 4 -32 4 -38 0 -55 -2 -38 -4z"/>
<path d="M10758 2263 c23 -2 59 -2 80 0 20 2 1 4 -43 4 -44 0 -61 -2 -37 -4z"/>
<path d="M10618 2253 c17 -2 47 -2 65 0 17 2 3 4 -33 4 -36 0 -50 -2 -32 -4z"/>
<path d="M10478 2243 c17 -2 47 -2 65 0 17 2 3 4 -33 4 -36 0 -50 -2 -32 -4z"/>
<path d="M10327 2233 c18 -2 50 -2 70 0 21 2 7 4 -32 4 -38 0 -55 -2 -38 -4z"/>
<path d="M10568 2113 c12 -2 30 -2 40 0 9 3 -1 5 -23 4 -22 0 -30 -2 -17 -4z"/>
<path d="M10648 2103 c12 -2 32 -2 45 0 12 2 2 4 -23 4 -25 0 -35 -2 -22 -4z"/>
<path d="M10733 2093 c9 -2 25 -2 35 0 9 3 1 5 -18 5 -19 0 -27 -2 -17 -5z"/>
<path d="M10808 2083 c12 -2 32 -2 45 0 12 2 2 4 -23 4 -25 0 -35 -2 -22 -4z"/>
<path d="M10898 2073 c12 -2 32 -2 45 0 12 2 2 4 -23 4 -25 0 -35 -2 -22 -4z"/>
<path d="M10983 2063 c9 -2 25 -2 35 0 9 3 1 5 -18 5 -19 0 -27 -2 -17 -5z"/>
<path d="M11058 2053 c12 -2 32 -2 45 0 12 2 2 4 -23 4 -25 0 -35 -2 -22 -4z"/>
<path d="M11148 2043 c12 -2 32 -2 45 0 12 2 2 4 -23 4 -25 0 -35 -2 -22 -4z"/>
<path d="M11255 2030 c40 -9 122 -13 114 -6 -2 2 -38 6 -79 9 -56 4 -65 3 -35
-3z"/>
<path d="M11393 2013 c9 -2 25 -2 35 0 9 3 1 5 -18 5 -19 0 -27 -2 -17 -5z"/>
<path d="M1380 2470 c0 -13 11 -13 30 0 12 8 11 10 -7 10 -13 0 -23 -4 -23
-10z"/>
<path d="M1195 2435 c-27 -7 -41 -13 -30 -13 11 0 43 6 70 13 28 7 41 13 30
13 -11 0 -42 -6 -70 -13z"/>
<path d="M1108 2413 c6 -2 18 -2 25 0 6 3 1 5 -13 5 -14 0 -19 -2 -12 -5z"/>
<path d="M1058 2403 c6 -2 18 -2 25 0 6 3 1 5 -13 5 -14 0 -19 -2 -12 -5z"/>
<path d="M980 2390 c-20 -6 -21 -8 -5 -8 11 0 31 4 45 8 20 6 21 8 5 8 -11 0
-31 -4 -45 -8z"/>
<path d="M785 2350 c-66 -16 -111 -28 -100 -28 11 -1 76 12 145 28 69 15 114
28 100 28 -14 0 -79 -13 -145 -28z"/>
<path d="M1083 1973 c43 -2 110 -2 150 0 40 1 5 3 -78 3 -82 0 -115 -2 -72 -3z"/>
<path d="M683 1963 c53 -2 141 -2 195 0 53 1 9 3 -98 3 -107 0 -151 -2 -97 -3z"/>
<path d="M985 1745 c-27 -7 -41 -13 -30 -13 11 0 43 6 70 13 28 7 41 13 30 13
-11 0 -42 -6 -70 -13z"/>
<path d="M898 1723 c6 -2 18 -2 25 0 6 3 1 5 -13 5 -14 0 -19 -2 -12 -5z"/>
<path d="M858 1713 c7 -3 16 -2 19 1 4 3 -2 6 -13 5 -11 0 -14 -3 -6 -6z"/>
<path d="M775 1700 c-27 -7 -27 -8 -5 -8 14 0 36 4 50 8 20 6 21 8 5 8 -11 0
-33 -4 -50 -8z"/>
<path d="M718 1683 c7 -3 16 -2 19 1 4 3 -2 6 -13 5 -11 0 -14 -3 -6 -6z"/>
<path d="M668 1673 c6 -2 18 -2 25 0 6 3 1 5 -13 5 -14 0 -19 -2 -12 -5z"/>
<path d="M8065 2619 c39 -10 74 -17 80 -16 11 4 -118 37 -137 36 -7 0 19 -9
57 -20z"/>
<path d="M8161 2596 c7 -7 251 -67 256 -63 3 4 -236 67 -253 67 -4 0 -5 -2 -3
-4z"/>
<path d="M8438 2523 c7 -3 16 -2 19 1 4 3 -2 6 -13 5 -11 0 -14 -3 -6 -6z"/>
<path d="M8478 2513 c7 -3 16 -2 19 1 4 3 -2 6 -13 5 -11 0 -14 -3 -6 -6z"/>
<path d="M8518 2503 c7 -3 16 -2 19 1 4 3 -2 6 -13 5 -11 0 -14 -3 -6 -6z"/>
<path d="M8558 2493 c7 -3 16 -2 19 1 4 3 -2 6 -13 5 -11 0 -14 -3 -6 -6z"/>
<path d="M8591 2486 c7 -8 451 -117 456 -113 3 4 -436 117 -454 117 -3 0 -4
-2 -2 -4z"/>
<path d="M8237 2313 c18 -2 50 -2 70 0 21 2 7 4 -32 4 -38 0 -55 -2 -38 -4z"/>
<path d="M8420 2300 c41 -4 104 -7 140 -7 63 0 62 0 -20 8 -47 4 -110 7 -140
6 -50 0 -48 -1 20 -7z"/>
<path d="M8727 2058 c-130 -61 -236 -113 -234 -115 4 -3 476 213 486 222 14
14 -36 -7 -252 -107z"/>
<path d="M8345 1880 c-66 -32 -115 -58 -110 -58 6 -1 64 26 130 58 66 32 116
58 110 58 -5 1 -64 -26 -130 -58z"/>
<path d="M3585 2459 c22 -4 51 -8 65 -7 16 0 11 3 -15 9 -22 4 -51 8 -65 7
-16 0 -11 -3 15 -9z"/>
<path d="M3693 2443 c9 -2 23 -2 30 0 6 3 -1 5 -18 5 -16 0 -22 -2 -12 -5z"/>
<path d="M3753 2433 c9 -2 23 -2 30 0 6 3 -1 5 -18 5 -16 0 -22 -2 -12 -5z"/>
<path d="M3823 2423 c9 -2 23 -2 30 0 6 3 -1 5 -18 5 -16 0 -22 -2 -12 -5z"/>
<path d="M3883 2413 c9 -2 25 -2 35 0 9 3 1 5 -18 5 -19 0 -27 -2 -17 -5z"/>
<path d="M3975 2399 c51 -10 92 -10 50 1 -16 4 -43 8 -60 8 -25 0 -24 -2 10
-9z"/>
<path d="M3208 2303 c12 -2 32 -2 45 0 12 2 2 4 -23 4 -25 0 -35 -2 -22 -4z"/>
<path d="M3243 2513 c9 -2 25 -2 35 0 9 3 1 5 -18 5 -19 0 -27 -2 -17 -5z"/>
<path d="M3308 2503 c6 -2 18 -2 25 0 6 3 1 5 -13 5 -14 0 -19 -2 -12 -5z"/>
<path d="M3373 2493 c9 -2 23 -2 30 0 6 3 -1 5 -18 5 -16 0 -22 -2 -12 -5z"/>
<path d="M3433 2483 c9 -2 23 -2 30 0 6 3 -1 5 -18 5 -16 0 -22 -2 -12 -5z"/>
<path d="M3043 2543 c9 -2 25 -2 35 0 9 3 1 5 -18 5 -19 0 -27 -2 -17 -5z"/>
<path d="M3113 2533 c9 -2 23 -2 30 0 6 3 -1 5 -18 5 -16 0 -22 -2 -12 -5z"/>
<path d="M2928 2263 c18 -2 45 -2 60 0 15 2 0 4 -33 4 -33 0 -45 -2 -27 -4z"/>
<path d="M3048 2253 c12 -2 30 -2 40 0 9 3 -1 5 -23 4 -22 0 -30 -2 -17 -4z"/>
<path d="M3168 2243 c12 -2 32 -2 45 0 12 2 2 4 -23 4 -25 0 -35 -2 -22 -4z"/>
<path d="M3278 2233 c12 -2 30 -2 40 0 9 3 -1 5 -23 4 -22 0 -30 -2 -17 -4z"/>
<path d="M3408 2223 c12 -2 30 -2 40 0 9 3 -1 5 -23 4 -22 0 -30 -2 -17 -4z"/>
<path d="M3538 2213 c12 -2 30 -2 40 0 9 3 -1 5 -23 4 -22 0 -30 -2 -17 -4z"/>
<path d="M3643 2203 c15 -2 37 -2 50 0 12 2 0 4 -28 4 -27 0 -38 -2 -22 -4z"/>
<path d="M3758 2193 c12 -2 32 -2 45 0 12 2 2 4 -23 4 -25 0 -35 -2 -22 -4z"/>
<path d="M3841 2186 c2 -2 54 -6 114 -9 78 -4 93 -3 50 3 -64 8 -171 13 -164
6z"/>
<path d="M1800 1920 c-20 -6 -21 -8 -5 -8 11 0 31 4 45 8 20 6 21 8 5 8 -11 0
-31 -4 -45 -8z"/>
<path d="M1738 1903 c6 -2 18 -2 25 0 6 3 1 5 -13 5 -14 0 -19 -2 -12 -5z"/>
<path d="M1698 1893 c7 -3 16 -2 19 1 4 3 -2 6 -13 5 -11 0 -14 -3 -6 -6z"/>
<path d="M1648 1883 c6 -2 18 -2 25 0 6 3 1 5 -13 5 -14 0 -19 -2 -12 -5z"/>
<path d="M1598 1873 c6 -2 18 -2 25 0 6 3 1 5 -13 5 -14 0 -19 -2 -12 -5z"/>
<path d="M9988 2183 c12 -2 32 -2 45 0 12 2 2 4 -23 4 -25 0 -35 -2 -22 -4z"/>
<path d="M2813 1943 c9 -2 23 -2 30 0 6 3 -1 5 -18 5 -16 0 -22 -2 -12 -5z"/>
<path d="M2928 1923 c6 -2 18 -2 25 0 6 3 1 5 -13 5 -14 0 -19 -2 -12 -5z"/>
<path d="M2993 1913 c9 -2 23 -2 30 0 6 3 -1 5 -18 5 -16 0 -22 -2 -12 -5z"/>
<path d="M3183 1883 c9 -2 25 -2 35 0 9 3 1 5 -18 5 -19 0 -27 -2 -17 -5z"/>
<path d="M3253 1873 c9 -2 23 -2 30 0 6 3 -1 5 -18 5 -16 0 -22 -2 -12 -5z"/>
<path d="M3313 1863 c9 -2 23 -2 30 0 6 3 -1 5 -18 5 -16 0 -22 -2 -12 -5z"/>
<path d="M3373 1853 c9 -2 23 -2 30 0 6 3 -1 5 -18 5 -16 0 -22 -2 -12 -5z"/>
<path d="M3443 1843 c9 -2 23 -2 30 0 6 3 -1 5 -18 5 -16 0 -22 -2 -12 -5z"/>
<path d="M3503 1833 c9 -2 23 -2 30 0 6 3 -1 5 -18 5 -16 0 -22 -2 -12 -5z"/>
<path d="M3563 1823 c9 -2 23 -2 30 0 6 3 -1 5 -18 5 -16 0 -22 -2 -12 -5z"/>
<path d="M3628 1813 c6 -2 18 -2 25 0 6 3 1 5 -13 5 -14 0 -19 -2 -12 -5z"/>
<path d="M3683 1803 c9 -2 25 -2 35 0 9 3 1 5 -18 5 -19 0 -27 -2 -17 -5z"/>
<path d="M3753 1793 c9 -2 25 -2 35 0 9 3 1 5 -18 5 -19 0 -27 -2 -17 -5z"/>
<path d="M3823 1783 c9 -2 23 -2 30 0 6 3 -1 5 -18 5 -16 0 -22 -2 -12 -5z"/>
<path d="M3883 1773 c9 -2 23 -2 30 0 6 3 -1 5 -18 5 -16 0 -22 -2 -12 -5z"/>
<path d="M1318 1813 c7 -3 16 -2 19 1 4 3 -2 6 -13 5 -11 0 -14 -3 -6 -6z"/>
<path d="M1245 1800 c-25 -11 1 -11 35 0 20 6 21 8 5 8 -11 0 -29 -3 -40 -8z"/>
<path d="M9727 1660 c3 -19 12 -53 19 -75 13 -38 13 -38 7 -5 -3 19 -12 53
-19 75 -13 38 -13 38 -7 5z"/>
<path d="M9760 1536 c0 -17 43 -176 47 -173 4 5 -36 169 -43 176 -2 2 -4 1 -4
-3z"/>
<path d="M9811 1334 c0 -11 3 -14 6 -6 3 7 2 16 -1 19 -3 4 -6 -2 -5 -13z"/>
<path d="M9827 1280 c3 -19 12 -53 19 -75 13 -38 13 -38 7 -5 -3 19 -12 53
-19 75 -13 38 -13 38 -7 5z"/>
<path d="M9861 1144 c0 -11 3 -14 6 -6 3 7 2 16 -1 19 -3 4 -6 -2 -5 -13z"/>
<path d="M9871 1104 c0 -11 3 -14 6 -6 3 7 2 16 -1 19 -3 4 -6 -2 -5 -13z"/>
<path d="M9881 1064 c0 -11 3 -14 6 -6 3 7 2 16 -1 19 -3 4 -6 -2 -5 -13z"/>
<path d="M9896 1010 c4 -19 11 -44 15 -55 6 -14 7 -9 3 15 -4 19 -11 44 -15
55 -6 14 -7 9 -3 -15z"/>
<path d="M9921 914 c0 -11 3 -14 6 -6 3 7 2 16 -1 19 -3 4 -6 -2 -5 -13z"/>
<path d="M9930 886 c0 -17 43 -176 47 -173 4 5 -36 169 -43 176 -2 2 -4 1 -4
-3z"/>
<path d="M3210 1681 c8 -4 29 -11 45 -15 19 -4 25 -3 15 3 -8 4 -28 11 -45 15
-19 4 -25 3 -15 -3z"/>
</g>
</svg>
