<?xml version="1.0" standalone="no"?>
<!DOCTYPE svg PUBLIC "-//W3C//DTD SVG 20010904//EN"
 "http://www.w3.org/TR/2001/REC-SVG-20010904/DTD/svg10.dtd">
<svg version="1.0" xmlns="http://www.w3.org/2000/svg"
 width="1024.000000pt" height="683.000000pt" viewBox="0 0 1024.000000 683.000000"
 preserveAspectRatio="xMidYMid meet">

<g transform="translate(0.000000,683.000000) scale(0.100000,-0.100000)"
fill="#000000" stroke="none">
<path d="M7244 6271 c-53 -23 -81 -101 -54 -152 8 -14 7 -19 -3 -19 -8 0 -50
-30 -93 -66 -104 -86 -197 -134 -263 -134 -50 0 -140 -28 -173 -54 -16 -12
-13 -26 42 -192 33 -98 60 -185 60 -192 0 -8 -7 -29 -16 -48 -14 -30 -15 -38
-1 -78 13 -39 13 -47 1 -65 l-15 -21 -1473 0 c-1167 0 -1476 3 -1484 13 -5 6
-20 46 -33 87 -12 41 -27 80 -33 86 -6 6 -33 86 -61 177 -48 161 -50 166 -85
183 l-35 18 61 7 c35 4 110 27 173 53 62 25 123 46 135 46 13 0 77 -9 141 -20
64 -11 135 -20 156 -20 38 0 39 1 39 36 0 77 -102 139 -278 169 -102 18 -367
35 -534 35 -142 0 -372 23 -565 56 -175 30 -188 30 -207 2 -47 -67 5 -159 99
-172 28 -4 86 -25 130 -45 45 -21 93 -41 108 -45 15 -3 44 -22 65 -40 48 -44
103 -66 163 -66 27 0 49 -4 49 -10 0 -16 91 -69 130 -76 62 -12 68 -19 106
-142 20 -64 39 -122 41 -128 3 -8 -55 -13 -192 -16 -108 -3 -199 -8 -202 -11
-3 -3 5 -35 17 -71 22 -68 18 -97 -16 -110 -20 -8 -19 -14 42 -271 63 -264 56
-248 114 -275 28 -13 56 -31 64 -39 12 -14 86 -226 98 -282 3 -17 -52 -80
-235 -267 l-100 -102 -35 27 c-331 263 -704 404 -1107 420 -320 12 -606 -47
-880 -184 -208 -104 -355 -212 -515 -380 -125 -131 -215 -258 -299 -425 -137
-272 -201 -538 -201 -838 0 -948 700 -1751 1643 -1885 134 -19 372 -19 506 0
252 37 510 131 714 262 250 159 483 407 618 658 25 47 48 88 51 91 3 3 44 -6
92 -21 l85 -26 -16 -34 c-22 -45 -12 -62 42 -76 33 -8 49 -18 55 -35 25 -65
100 -85 156 -42 23 19 38 22 87 19 48 -2 62 1 81 18 l21 20 93 -29 c217 -68
376 -64 547 15 194 89 336 268 379 478 9 42 16 104 16 137 0 119 -49 284 -109
369 -12 16 -21 35 -21 43 1 7 32 46 69 87 l69 74 80 -12 c64 -10 85 -9 101 1
33 20 68 128 42 128 -5 0 -12 -6 -15 -12 -3 -7 -4 -4 -3 6 1 13 -7 22 -28 28
-16 5 -37 12 -45 14 -18 6 1544 1570 1581 1583 14 5 30 6 35 2 14 -9 42 -71
54 -118 6 -23 14 -43 19 -45 5 -2 25 -35 45 -75 l36 -72 -59 -35 c-154 -94
-348 -270 -481 -437 -349 -437 -486 -1020 -369 -1567 196 -909 1043 -1555
1979 -1508 789 39 1466 522 1745 1245 76 196 125 457 125 662 0 869 -585 1624
-1431 1848 -354 94 -736 86 -1084 -20 -55 -17 -112 -37 -127 -45 -24 -12 -28
-12 -28 -1 0 8 -9 22 -20 32 -11 10 -20 23 -20 30 0 7 -9 20 -20 30 -11 10
-20 24 -20 32 0 7 -4 13 -10 13 -5 0 -10 7 -10 15 0 8 -6 15 -12 15 -9 1 -8 5
3 13 21 16 18 33 -25 159 -36 102 -37 109 -22 138 13 28 13 41 -5 143 -10 62
-19 123 -19 137 0 15 19 52 43 85 124 171 302 494 347 630 12 39 24 71 25 72
1 2 16 -3 34 -10 29 -11 34 -10 47 7 24 33 17 45 -50 87 -61 38 -64 42 -54 65
9 20 8 28 -6 42 -13 13 -18 14 -25 4 -5 -9 -15 -2 -35 26 -24 35 -34 41 -89
52 -87 17 -86 16 -105 51 -41 75 -93 103 -148 80z m-48 -277 c-7 -26 -26 -24
-26 2 0 18 24 46 28 33 2 -6 1 -21 -2 -35z m-3391 -33 c17 -7 15 -9 -15 -19
-211 -66 -276 -75 -345 -49 -27 11 -57 14 -92 10 -29 -3 -53 -3 -53 0 0 7 166
47 240 56 84 11 239 12 265 2z m3725 -11 c0 -5 -6 -10 -14 -10 -8 0 -18 5 -21
10 -3 6 3 10 14 10 12 0 21 -4 21 -10z m110 -86 c0 -35 -59 -176 -137 -324
-78 -151 -243 -404 -255 -392 -11 11 31 125 74 201 17 31 75 119 129 197 152
217 176 277 136 338 -21 31 -11 39 24 20 20 -10 29 -22 29 -40z m90 52 c0 -3
-4 -8 -10 -11 -5 -3 -10 -1 -10 4 0 6 5 11 10 11 6 0 10 -2 10 -4z m-4470 -36
c0 -5 -17 -10 -37 -9 -34 1 -35 2 -13 9 36 11 50 11 50 0z m4100 -60 c15 -10
39 -39 54 -63 15 -24 41 -52 57 -61 16 -9 29 -21 29 -25 0 -8 -66 -109 -138
-211 -22 -30 -60 -96 -86 -145 -25 -50 -46 -84 -46 -77 0 8 -19 12 -63 12
l-62 0 -37 118 c-36 111 -39 118 -77 139 -34 19 -42 32 -61 88 -12 36 -19 72
-16 80 3 8 78 50 168 94 149 74 167 80 208 75 24 -3 56 -14 70 -24z m230 13
c0 -15 -25 -69 -42 -90 -8 -10 -17 -8 -39 8 -35 24 -42 84 -11 92 41 10 92 4
92 -10z m-766 -332 c9 -15 -23 -36 -36 -23 -5 5 -7 15 -4 21 9 13 33 14 40 2z
m17 -249 c24 -21 21 -52 -6 -52 -21 0 -68 47 -60 60 10 16 41 12 66 -8z
m-3651 -32 c0 -5 -4 -10 -10 -10 -5 0 -10 5 -10 10 0 6 5 10 10 10 6 0 10 -4
10 -10z m752 -54 c11 -11 16 -11 36 2 20 13 27 13 44 3 17 -10 22 -10 29 0 9
15 11 13 26 -15 10 -19 11 -18 17 2 9 28 23 28 31 1 7 -20 7 -20 20 -1 10 13
25 19 52 18 34 -1 38 -4 41 -30 4 -29 4 -29 15 -6 18 35 43 47 66 33 14 -9 21
-9 30 0 8 8 15 6 25 -9 15 -19 15 -19 30 1 26 35 30 7 5 -40 -26 -49 -54 -62
-43 -21 3 13 1 27 -5 30 -6 4 -11 -1 -11 -11 0 -11 -5 -24 -12 -31 -18 -18
-68 -15 -75 4 -5 15 -7 15 -15 0 -5 -9 -22 -16 -38 -16 -28 0 -30 3 -31 38
l-1 37 -15 -37 c-16 -39 -43 -52 -43 -20 -1 16 -1 16 -11 0 -13 -24 -36 -23
-44 1 -6 18 -7 18 -29 -4 -30 -30 -65 -23 -80 17 -11 31 -42 46 -58 30 -19
-19 0 -45 27 -38 18 5 25 2 25 -9 0 -24 -67 -20 -80 4 -14 28 -13 38 10 61 23
23 44 25 62 6z m498 -72 c0 -17 -22 -14 -28 4 -2 7 3 12 12 12 9 0 16 -7 16
-16z m2324 -94 c25 -9 26 -12 26 -94 0 -62 -6 -101 -21 -143 -20 -55 -65 -101
-970 -1008 l-948 -950 -38 17 c-54 24 -182 48 -253 48 -33 0 -60 2 -60 4 0 3
-68 224 -150 493 -421 1365 -490 1590 -490 1601 0 22 28 27 180 32 288 11
2697 11 2724 0z m116 -100 c0 -61 -4 -118 -8 -128 -34 -71 -53 -99 -75 -112
-14 -8 -29 -12 -32 -8 -4 3 5 39 20 80 16 42 30 110 35 163 7 67 13 93 26 102
10 7 21 13 26 13 4 0 8 -50 8 -110z m245 -430 c-3 -5 -12 -10 -18 -10 -7 0 -6
4 3 10 19 12 23 12 15 0z m-3601 -96 c-27 -31 -50 -51 -52 -46 -3 9 85 102 96
102 2 0 -18 -25 -44 -56z m3632 22 c22 -16 38 -60 52 -149 8 -53 7 -56 -8 -42
-25 23 -93 173 -86 190 7 19 16 19 42 1z m-3753 -153 c-15 -17 -50 -54 -77
-84 -126 -138 -449 -469 -454 -464 -3 3 35 47 84 98 104 108 362 381 425 450
24 27 45 44 47 39 1 -5 -10 -23 -25 -39z m166 -210 c173 -549 361 -1174 356
-1183 -3 -5 -37 -10 -75 -10 -64 0 -70 2 -74 23 -24 121 -61 262 -92 343 -81
217 -210 436 -359 607 l-77 88 99 105 c54 58 113 123 131 145 19 21 35 39 37
39 2 0 27 -71 54 -157z m-1570 -35 c11 -62 41 -239 67 -392 45 -270 46 -280
29 -310 -10 -19 -11 -24 -2 -13 21 25 24 22 32 -33 l7 -49 -68 -76 c-38 -41
-77 -75 -86 -75 -10 0 -18 3 -18 6 0 3 24 45 53 92 70 115 69 112 63 112 -2 0
-35 -49 -71 -110 -53 -87 -72 -110 -90 -110 -17 0 -45 32 -121 137 l-98 137 2
66 c9 247 35 688 43 707 8 22 13 23 123 23 l114 0 21 -112z m184 91 l57 -12 0
-51 c0 -28 -5 -157 -11 -286 l-11 -235 -47 -78 c-40 -68 -47 -75 -53 -55 -10
33 -118 685 -118 716 0 25 1 25 63 18 34 -3 88 -11 120 -17z m6079 15 c32 -6
37 -10 41 -38 l3 -31 9 33 c8 32 8 33 54 27 25 -4 81 -13 124 -22 64 -13 77
-19 77 -35 0 -11 -45 -153 -101 -316 -55 -163 -133 -393 -172 -509 -65 -194
-84 -232 -101 -204 -3 5 -12 55 -20 112 l-15 104 70 385 c38 211 68 391 67
400 -2 8 -30 -131 -62 -310 -66 -368 -77 -423 -81 -418 -4 4 -115 773 -115
798 0 13 9 20 28 23 45 7 155 7 194 1z m-6542 -46 c0 -24 -7 -158 -15 -298 -8
-140 -15 -290 -15 -332 0 -42 -4 -79 -8 -82 -4 -2 -29 24 -55 59 l-47 63 -44
244 c-25 133 -46 265 -48 293 l-3 50 95 22 c139 32 140 32 140 -19z m6308 -10
c6 -29 30 -181 51 -338 22 -157 47 -329 55 -383 14 -88 14 -107 -1 -185 -17
-97 -27 -117 -37 -75 -4 15 -77 231 -161 478 -85 248 -157 464 -161 481 -6 31
-5 32 42 43 55 12 148 28 180 30 17 1 23 -8 32 -51z m-5687 3 c36 -10 87 -28
113 -39 l47 -21 -21 -43 c-20 -41 -9 -33 24 17 13 20 14 19 67 -5 71 -32 159
-87 159 -100 0 -5 -87 -103 -192 -218 -106 -114 -219 -236 -250 -270 -31 -34
-60 -62 -64 -62 -3 0 -4 32 -2 70 2 39 0 70 -4 70 -4 0 -8 -37 -8 -83 0 -82
-1 -84 -34 -116 l-35 -34 -6 49 c-4 27 -7 54 -7 59 -1 22 78 145 90 140 7 -3
12 5 12 22 0 14 9 42 21 62 21 36 21 36 0 11 -11 -14 -21 -20 -21 -14 0 35 21
427 26 472 3 28 9 52 12 52 4 0 37 -8 73 -19z m5422 -43 c9 -24 64 -182 122
-353 58 -170 131 -384 162 -473 46 -135 54 -166 42 -173 -36 -23 -46 -9 -134
189 -78 175 -213 473 -281 620 -37 82 -74 171 -74 180 0 7 114 48 141 51 4 1
13 -18 22 -41z m1059 -39 c15 -8 15 -13 -3 -60 -26 -67 -19 -73 9 -9 12 28 25
50 28 50 11 0 170 -88 194 -108 22 -18 22 -19 6 -51 -10 -18 -102 -168 -205
-334 -103 -166 -196 -317 -207 -335 -10 -19 -61 -68 -113 -109 -74 -60 -92
-71 -87 -52 4 14 -2 8 -14 -13 l-20 -38 -38 24 c-20 14 -57 32 -82 42 -25 9
-47 18 -48 20 -5 4 -5 5 179 548 88 257 164 476 169 487 10 17 15 16 113 -17
56 -20 109 -40 119 -45z m-7353 29 c16 -61 91 -482 86 -486 -4 -4 -271 353
-308 410 -17 27 -16 28 6 39 35 20 181 79 193 79 6 0 17 -19 23 -42z m-85
-283 c78 -104 151 -204 163 -220 12 -17 27 -60 33 -95 6 -36 14 -76 17 -89 6
-23 5 -23 -14 -10 -66 47 -572 503 -567 511 4 6 47 37 97 69 87 56 92 58 110
41 11 -9 84 -102 161 -207z m6078 -83 c70 -130 171 -320 226 -422 71 -132 96
-189 89 -198 -16 -20 -30 -1 -124 157 -47 80 -153 258 -235 395 -81 137 -148
254 -148 260 0 10 47 45 60 46 3 0 62 -107 132 -238z m-4641 177 c30 -22 54
-46 54 -54 0 -7 -122 -141 -271 -297 -343 -358 -384 -402 -378 -407 3 -3 30
21 61 52 31 31 58 55 61 53 5 -6 -169 -196 -180 -196 -14 0 -9 13 18 41 24 25
25 32 27 151 l2 125 40 44 c150 170 490 529 500 529 6 0 36 -18 66 -41z m4450
-22 c18 -26 400 -670 419 -707 12 -23 10 -23 -21 6 -19 17 -153 138 -299 269
-146 131 -277 252 -292 269 -27 28 -27 30 -10 49 30 34 163 137 175 137 7 0
19 -11 28 -23z m1904 -38 c33 -26 73 -61 88 -77 l28 -29 -73 -64 c-41 -35
-180 -152 -310 -259 -131 -107 -235 -196 -233 -198 2 -2 128 99 280 224 152
126 293 241 313 256 35 25 38 25 56 10 31 -28 136 -162 136 -175 0 -14 -6 -18
-522 -333 -219 -134 -408 -250 -420 -260 -44 -32 10 -5 93 47 74 46 199 123
723 441 70 43 133 78 140 78 11 0 74 -97 111 -170 l18 -34 -27 -20 c-38 -29
-978 -526 -994 -526 -7 0 -15 8 -18 18 -4 9 -22 51 -41 93 l-35 76 67 109 c37
60 79 121 93 137 14 15 22 27 19 27 -11 0 0 18 196 335 204 327 225 357 241
348 6 -3 38 -28 71 -54z m-8626 24 c-13 -16 -34 -41 -45 -58 -11 -16 -36 -52
-55 -80 -138 -199 -240 -446 -294 -712 -25 -122 -39 -159 -29 -77 36 299 113
519 263 745 67 102 157 208 175 209 6 0 -1 -12 -15 -27z m471 0 c22 -15 192
-161 290 -249 19 -18 93 -83 165 -146 l130 -114 12 -67 c22 -121 44 -280 39
-284 -2 -3 -86 16 -185 41 -99 25 -182 46 -185 46 -5 0 -417 560 -450 611
l-16 26 80 77 c44 42 83 76 88 76 4 0 19 -8 32 -17z m4740 -150 c-12 -16 -130
-140 -263 -278 -132 -137 -269 -280 -305 -317 -35 -38 -72 -68 -82 -68 -20 0
-43 -23 -33 -33 3 -4 2 -7 -4 -7 -17 0 -23 12 -14 29 8 13 438 445 475 476 7
6 62 58 123 118 108 105 146 134 103 80z m-2691 -44 c28 -33 51 -66 51 -73 0
-13 -60 -81 -245 -281 l-103 -110 -83 -24 c-46 -13 -93 -26 -104 -29 -19 -5
-19 -5 -1 23 34 51 58 95 53 95 -3 0 -22 -29 -43 -64 -28 -47 -47 -67 -69 -74
-25 -8 -26 -10 -8 -11 23 -1 23 -2 -8 -51 -38 -62 -43 -65 -72 -45 -23 15 -57
12 -57 -5 0 -15 -31 -40 -42 -34 -13 8 91 114 112 114 8 0 22 5 30 11 12 8 10
9 -7 4 -13 -3 -23 -3 -23 2 1 4 57 67 126 138 84 87 117 117 101 90 -13 -22
-27 -46 -31 -52 -4 -7 -5 -13 -2 -13 2 0 27 38 55 84 32 52 100 137 182 225
72 78 132 141 134 141 2 0 26 -27 54 -61z m-269 39 c0 -7 -13 -22 -28 -33 -27
-19 -27 -19 -12 0 38 50 40 51 40 33z m4310 -44 c36 -31 108 -96 160 -144 52
-47 169 -153 260 -234 234 -211 238 -215 200 -236 -17 -9 -75 22 -392 206
-420 243 -468 273 -468 284 0 14 150 180 163 180 7 0 41 -25 77 -56z m-6269 5
c72 -92 416 -564 414 -567 -6 -6 -142 31 -165 46 -47 29 -420 355 -420 367 0
23 119 184 136 185 6 0 22 -14 35 -31z m5752 -37 c-11 -15 -56 -101 -101 -192
-79 -160 -130 -301 -168 -463 -16 -69 -33 -93 -47 -69 -7 11 28 174 59 272 51
161 190 440 220 440 6 0 19 12 29 26 9 14 19 23 23 20 3 -4 -3 -19 -15 -34z
m-3415 -105 c40 -57 92 -146 92 -156 0 -12 -31 -23 -207 -76 -90 -27 -161 -51
-159 -53 3 -2 72 17 154 42 82 25 168 48 190 52 l41 6 27 -58 c14 -33 34 -83
45 -112 21 -60 23 -57 -61 -72 l-55 -9 72 4 71 5 21 -87 c11 -48 17 -91 13
-94 -4 -4 -144 -12 -312 -18 -168 -6 -371 -14 -452 -18 -171 -7 -172 -6 -105
71 l43 49 125 18 c75 11 97 16 54 13 -38 -3 -90 -8 -115 -11 l-45 -6 52 59
c83 96 116 123 173 144 50 19 41 20 -19 3 -17 -4 26 49 139 170 90 98 170 177
177 177 6 0 25 -19 41 -43z m-1535 -70 c33 -48 38 -61 35 -103 l-3 -47 -31 26
c-25 21 -33 37 -38 78 -4 29 -10 65 -13 82 -8 40 4 31 50 -36z m5707 -220
l365 -214 3 -36 c3 -31 0 -36 -20 -39 -18 -2 -23 -9 -21 -30 1 -22 -6 -32 -35
-49 -20 -12 -42 -28 -47 -35 -8 -9 -49 9 -175 80 -91 51 -280 156 -420 235
-140 78 -259 146 -263 151 -10 9 8 47 70 147 l45 72 66 -34 c37 -19 231 -130
432 -248z m-6484 83 c106 -91 190 -166 185 -168 -9 -3 -433 101 -473 117 -16
6 -28 15 -28 21 0 25 96 200 108 198 8 -2 101 -77 208 -168z m918 -55 c42 -59
76 -108 76 -111 0 -3 -38 27 -85 67 -83 71 -85 74 -85 116 0 24 4 42 9 39 4
-3 43 -53 85 -111z m411 -83 c-4 -39 -10 -70 -14 -68 -4 3 -13 43 -20 90 -13
82 -12 85 11 116 l23 32 3 -49 c2 -26 1 -81 -3 -121z m-538 126 c20 -18 23
-31 22 -87 -1 -36 -4 -91 -7 -121 -7 -54 -7 -52 -26 74 -10 72 -20 136 -23
143 -8 20 8 16 34 -9z m883 9 c0 -2 -12 -14 -27 -28 l-28 -24 24 28 c23 25 31
32 31 24z m4379 -136 c97 -54 287 -160 424 -236 136 -77 247 -145 247 -152 0
-15 37 -36 49 -28 15 9 41 -6 41 -24 0 -26 -6 -28 -62 -20 -74 10 -988 319
-988 334 0 1 9 28 20 61 38 109 64 164 78 164 8 0 94 -44 191 -99z m-5133 17
c46 -39 84 -75 84 -78 0 -4 -20 -15 -43 -24 -24 -9 -62 -32 -85 -51 -54 -47
-65 -45 -58 8 3 23 5 81 5 130 1 48 4 87 7 87 3 0 43 -32 90 -72z m363 9 c15
-89 15 -101 -6 -92 -10 3 -40 11 -68 17 -27 6 -52 12 -54 14 -5 4 100 124 109
124 5 0 13 -28 19 -63z m7510 -61 c18 -53 31 -102 28 -110 -3 -7 -184 -73
-414 -150 l-409 -137 -118 3 -118 3 367 195 c619 328 608 323 620 306 6 -8 26
-58 44 -110z m-8820 43 l253 -61 76 -66 c41 -36 70 -68 64 -70 -6 -2 -161 4
-345 12 -184 9 -347 16 -363 16 -53 0 -57 9 -38 86 10 38 25 88 35 112 16 36
22 42 41 37 13 -2 137 -32 277 -66z m7336 -41 l6 -48 -31 0 c-28 0 -32 3 -27
23 3 12 11 49 18 82 12 59 12 60 20 25 4 -19 10 -56 14 -82z m-5427 33 c-1 -5
-37 -45 -78 -87 -71 -73 -78 -78 -130 -85 -30 -4 -56 -7 -57 -5 -1 1 15 31 36
66 l38 64 89 27 c103 31 107 32 102 20z m-678 -93 c0 -10 -4 -18 -9 -18 -11 0
-19 30 -13 49 4 11 6 11 13 0 5 -8 9 -22 9 -31z m6517 35 c-15 -28 -109 -183
-111 -183 -1 0 -15 13 -30 29 l-27 28 81 67 c78 63 96 75 87 59z m-7362 -29
c47 -13 79 -38 106 -86 8 -16 5 -18 -27 -18 -29 0 -49 11 -104 58 -72 60 -85
78 -47 66 12 -4 45 -13 72 -20z m651 -6 c5 -7 3 -8 -7 -3 -12 8 -12 6 0 -8 8
-10 11 -20 7 -24 -10 -10 -39 23 -32 36 9 14 23 14 32 -1z m-216 -112 c0 -5
-27 -6 -61 -2 -34 3 -101 6 -149 6 l-87 0 -31 44 c-18 24 -32 46 -32 48 0 3
81 -16 180 -41 99 -25 180 -50 180 -55z m6520 62 c0 -5 -4 -8 -10 -8 -5 0 -10
10 -10 23 0 18 2 19 10 7 5 -8 10 -18 10 -22z m-90 -21 c0 -16 -18 3 -23 25
-6 22 -5 22 8 4 8 -11 15 -24 15 -29z m-6302 5 c3 -9 -2 -13 -14 -10 -9 1 -19
9 -22 16 -3 9 2 13 14 10 9 -1 19 -9 22 -16z m362 8 c0 -13 -227 -246 -234
-239 -6 5 214 247 227 248 4 1 7 -3 7 -9z m6130 -4 c0 -8 -4 -18 -10 -21 -5
-3 -10 3 -10 14 0 12 5 21 10 21 6 0 10 -6 10 -14z m-1280 -117 c455 -155 531
-181 528 -184 -3 -2 -267 12 -706 39 -129 8 -236 17 -239 20 -6 6 8 104 28
197 10 48 12 50 38 44 14 -3 172 -56 351 -116z m-6000 80 l265 -12 37 -31 c80
-67 207 -181 207 -186 1 -3 -74 -44 -167 -92 l-167 -87 -363 91 c-257 64 -365
95 -370 106 -7 19 13 205 23 223 6 8 43 10 139 5 72 -3 250 -11 396 -17z
m8703 7 c3 -7 13 -62 22 -121 14 -90 15 -109 4 -116 -14 -8 -809 -13 -809 -5
0 2 163 58 363 125 317 105 379 124 408 130 4 0 9 -5 12 -13z m-7133 -3 c0
-13 -74 -83 -87 -83 -8 0 -13 14 -13 39 0 36 3 40 28 44 48 7 72 7 72 0z
m5579 -15 c5 -13 12 -34 16 -47 11 -37 -14 -21 -42 27 -25 42 -25 42 -4 42 13
0 25 -9 30 -22z m41 13 c0 -20 -13 -41 -21 -35 -15 9 -10 44 6 44 8 0 15 -4
15 -9z m177 -13 c-3 -8 -6 -5 -6 6 -1 11 2 17 5 13 3 -3 4 -12 1 -19z m-79
-12 l44 -22 -45 -37 c-55 -45 -67 -46 -67 -8 0 16 -3 43 -6 60 -5 26 -3 31 12
31 11 -1 38 -11 62 -24z m-6916 -10 c3 -6 31 -43 62 -81 30 -38 53 -71 51 -73
-3 -4 -195 168 -195 174 0 8 76 -11 82 -20z m4062 3 c16 -14 2 -19 -37 -12
-21 3 -37 11 -37 19 0 10 9 12 33 7 17 -3 36 -9 41 -14z m-3788 -2 c3 -2 -14
-42 -36 -89 -37 -80 -60 -106 -80 -93 -9 6 -131 160 -145 184 -7 12 12 13 125
8 73 -4 134 -8 136 -10z m3318 -64 c-16 -12 -64 -19 -64 -9 0 2 17 21 38 44
l37 40 3 -31 c3 -21 -2 -35 -14 -44z m-2644 42 c-7 -9 -15 -13 -18 -10 -3 2 1
11 8 20 7 9 15 13 18 10 3 -2 -1 -11 -8 -20z m5889 -28 c4 -26 6 -49 3 -52
-11 -10 -32 57 -26 81 8 32 12 27 23 -29z m-2806 17 c38 -7 48 -20 23 -30 -20
-8 -98 15 -91 26 7 12 17 12 68 4z m2963 -9 c12 -30 -17 -85 -59 -112 -46 -29
-70 -23 -75 19 -2 19 8 33 50 66 57 45 75 51 84 27z m94 1 c0 -17 -26 -39 -40
-34 -6 2 -4 12 5 26 18 25 35 29 35 8z m-6174 -13 c16 -21 18 -37 4 -28 -13 8
-33 45 -24 45 4 0 13 -8 20 -17z m1587 -4 c15 10 22 11 25 2 5 -15 32 -14 32
1 0 32 21 -17 50 -115 l32 -108 -38 -74 c-31 -62 -41 -74 -58 -70 -12 2 -42 7
-67 10 l-46 6 -6 162 c-5 139 -3 165 10 179 13 14 19 15 30 6 11 -9 19 -9 36
1z m-534 -25 c10 12 16 13 32 3 16 -10 21 -9 29 3 8 13 11 13 26 -1 15 -16 12
-18 -37 -36 -30 -11 -76 -26 -102 -33 -26 -7 -46 -15 -43 -17 2 -2 45 8 96 22
50 15 95 24 98 20 8 -8 22 -214 15 -231 -2 -6 -12 -10 -21 -8 -9 2 -96 13
-192 24 -96 12 -218 26 -270 32 -52 6 -98 14 -102 17 -5 4 44 22 107 40 64 19
114 36 111 38 -2 2 -65 -14 -139 -35 l-136 -40 -108 14 c-137 18 -188 37 -153
59 18 11 11 43 -11 50 -14 5 -19 14 -17 28 2 17 9 21 30 19 14 -1 29 2 33 8 4
6 13 5 25 -2 15 -10 22 -10 31 -1 9 9 16 9 31 0 15 -10 20 -9 28 2 7 12 11 12
24 2 13 -11 19 -11 31 -1 12 10 18 10 31 -1 14 -11 18 -10 30 6 13 18 15 18
27 1 12 -16 14 -16 26 -2 11 13 17 14 28 4 11 -9 19 -9 35 1 17 11 22 10 29
-1 7 -10 11 -10 25 4 16 16 18 16 30 0 12 -16 14 -16 30 0 16 15 19 16 29 1
10 -14 13 -13 29 3 15 14 19 15 27 3 7 -12 12 -12 30 -1 18 12 23 12 30 0 7
-11 12 -11 29 0 16 10 25 10 35 2 10 -8 17 -7 27 4 11 12 15 12 29 0 14 -13
18 -13 28 0z m2034 1 c48 -10 32 -28 -20 -21 -25 3 -48 8 -51 10 -9 10 9 24
26 21 9 -2 29 -6 45 -10z m2817 -20 c0 -5 -5 -3 -10 5 -5 8 -10 20 -10 25 0 6
5 3 10 -5 5 -8 10 -19 10 -25z m210 20 c0 -8 -10 -19 -21 -26 -12 -6 -19 -7
-17 -2 3 4 8 16 11 26 8 21 27 23 27 2z m-3696 -17 c7 -12 7 -30 -2 -65 -16
-57 -17 -59 -63 -66 -32 -5 -38 -2 -48 19 -12 27 -15 93 -5 119 9 23 102 17
118 -7z m3656 -58 c-6 -12 -14 -19 -17 -17 -2 3 1 15 7 27 6 12 14 19 17 17 2
-3 -1 -15 -7 -27z m93 -7 l15 -38 -40 -3 c-22 -2 -42 -1 -45 2 -7 6 36 76 47
76 4 0 15 -17 23 -37z m47 22 c-7 -9 -15 -13 -19 -10 -3 3 1 10 9 15 21 14 24
12 10 -5z m-177 -43 c-3 -14 -12 -22 -21 -20 -25 5 -25 24 0 35 28 13 29 13
21 -15z m-393 -7 c7 -9 10 -19 6 -23 -9 -8 -148 -31 -158 -25 -4 2 -2 17 4 33
10 29 12 30 73 30 44 0 66 -5 75 -15z m-6370 -11 c0 -8 -5 -12 -10 -9 -6 4 -8
11 -5 16 9 14 15 11 15 -7z m5575 -19 c237 -14 445 -27 464 -31 34 -6 32 -19
-4 -27 -11 -2 1 -2 26 0 l46 4 6 -65 c3 -37 17 -93 30 -126 14 -33 22 -60 19
-60 -2 0 -247 -41 -543 -91 -297 -50 -545 -89 -553 -86 -13 5 -46 153 -46 209
0 32 15 37 177 64 59 10 102 19 95 22 -7 2 -68 -6 -137 -18 -69 -11 -130 -18
-135 -15 -11 7 -14 228 -3 238 11 11 109 8 558 -18z m-6310 -77 c176 -44 322
-82 324 -84 1 -1 -37 -23 -85 -47 l-89 -44 -230 9 c-201 7 -294 14 -295 21 -6
26 -17 214 -13 223 6 17 8 17 388 -78z m725 55 c0 -7 -47 -48 -104 -91 l-105
-79 -70 16 c-39 9 -71 18 -71 21 0 3 71 42 157 86 129 67 161 79 175 70 10 -6
18 -16 18 -23z m6928 -2 c2 -13 -2 -28 -10 -32 -15 -10 -63 -11 -106 -3 -31 6
-31 7 -16 36 14 28 18 29 72 26 51 -3 57 -5 60 -27z m332 25 c0 -6 -220 -79
-225 -75 -7 9 -9 55 -2 67 6 8 41 12 118 12 60 0 109 -2 109 -4z m930 -121 l0
-125 -38 0 c-42 0 -107 9 -522 70 -379 56 -542 80 -559 80 -30 0 5 17 122 57
l122 41 438 1 437 1 0 -125z m-1780 94 c0 -5 -23 -9 -52 -9 -58 0 -56 16 2 22
39 4 50 1 50 -13z m575 11 c-3 -5 -12 -10 -18 -10 -7 0 -6 4 3 10 19 12 23 12
15 0z m-693 -56 c91 -51 92 -57 5 -28 -60 20 -77 30 -77 45 0 10 2 19 4 19 2
0 33 -16 68 -36z m108 9 c0 -10 -4 -25 -10 -33 -7 -12 -15 -11 -52 9 -67 37
-67 41 0 41 52 0 62 -3 62 -17z m-6400 -21 c0 -16 7 -51 15 -77 8 -27 12 -52
9 -57 -3 -4 0 -8 5 -8 6 0 11 -4 11 -10 0 -11 -41 -6 -150 19 -41 10 -74 21
-73 25 2 9 165 135 176 135 4 1 7 -12 7 -27z m6850 8 c23 0 21 -2 -15 -24 -45
-28 -55 -26 -55 11 0 21 3 24 23 19 12 -3 33 -6 47 -6z m-493 -67 c5 -14 -77
-115 -91 -110 -16 5 -45 86 -45 129 l-1 37 67 -23 c37 -12 68 -27 70 -33z
m573 43 c0 -13 -76 -46 -107 -46 -25 0 -13 20 25 39 44 24 82 27 82 7z m692
-86 c298 -44 546 -84 551 -89 10 -10 -15 -168 -34 -219 -10 -26 6 -27 -229 18
-685 132 -897 175 -909 186 -13 12 -13 20 1 66 9 29 19 68 23 86 5 25 12 32
31 32 13 0 268 -36 566 -80z m-4088 54 c20 -52 -4 -126 -53 -160 -26 -19 -160
-66 -173 -62 -10 4 200 238 213 238 4 0 10 -7 13 -16z m3456 6 c-20 -13 -33
-13 -25 0 3 6 14 10 23 10 15 0 15 -2 2 -10z m-805 -20 c-3 -5 -11 -10 -16
-10 -6 0 -7 5 -4 10 3 6 11 10 16 10 6 0 7 -4 4 -10z m739 -17 c-10 -43 -20
-47 -55 -22 l-33 23 30 13 c50 21 65 17 58 -14z m-514 -7 c0 -8 -13 -24 -30
-36 -35 -25 -39 -14 -9 24 23 29 39 34 39 12z m-6706 -14 l69 -18 -40 -32
c-23 -18 -44 -32 -48 -32 -4 0 -13 -6 -19 -14 -6 -8 -128 -101 -271 -208 -303
-226 -320 -238 -333 -238 -10 0 -75 143 -87 192 -9 34 6 44 264 172 l191 96
117 2 118 2 -105 5 -105 6 80 42 c44 23 85 42 90 42 6 1 41 -7 79 -17z m2796
9 c0 -5 3 -16 6 -25 4 -11 0 -16 -13 -16 -27 0 -34 9 -22 31 10 20 29 26 29
10z m4351 -11 l24 -19 -25 -1 c-25 0 -50 16 -50 32 0 15 27 8 51 -12z m-51 -5
c10 -13 9 -15 -9 -15 -12 0 -21 6 -21 15 0 8 4 15 9 15 5 0 14 -7 21 -15z
m-360 -24 c14 -27 13 -29 -12 -42 -35 -19 -108 -28 -108 -14 0 13 79 74 97 75
7 0 17 -9 23 -19z m-6535 -16 c55 -14 110 -27 123 -29 12 -2 26 -6 30 -10 3
-4 -45 -5 -108 -2 -63 3 -142 5 -175 6 l-60 1 35 29 c19 16 40 29 45 29 6 0
55 -11 110 -24z m7075 5 c0 -5 -13 -10 -30 -10 -16 0 -30 5 -30 10 0 6 14 10
30 10 17 0 30 -4 30 -10z m-770 -25 c-7 -9 -15 -13 -17 -11 -7 7 7 26 19 26 6
0 6 -6 -2 -15z m641 -2 c13 -15 10 -16 -41 -9 -74 10 -89 26 -23 26 35 0 55
-5 64 -17z m39 8 c0 -17 -18 -21 -24 -6 -3 9 0 15 9 15 8 0 15 -4 15 -9z
m-7530 -17 c14 -1 30 -3 35 -4 6 -1 -88 -50 -208 -111 -120 -60 -222 -107
-227 -104 -10 6 -50 172 -50 209 l0 27 213 -7 c116 -3 223 -8 237 -10z m7132
-32 c-2 -12 -9 -41 -17 -64 l-13 -43 -1 61 c-1 33 2 64 6 68 13 12 28 -1 25
-22z m228 -41 c0 -72 -10 -92 -36 -70 -20 16 -56 87 -52 101 3 9 55 33 81 37
4 0 7 -30 7 -68z m129 53 c10 -3 11 -8 4 -15 -9 -9 -83 14 -83 26 0 5 53 -3
79 -11z m-6861 -9 c2 -2 -7 -34 -22 -71 -14 -37 -24 -69 -22 -72 2 -2 17 31
32 72 26 69 31 76 55 76 15 0 36 -8 47 -17 l21 -18 -28 -104 -27 -104 -75 -38
c-85 -44 -90 -45 -83 -21 2 9 -1 7 -8 -6 -6 -13 -34 -35 -61 -48 -27 -14 -47
-28 -44 -31 3 -3 22 5 41 17 34 20 36 20 37 3 0 -15 2 -14 12 5 11 23 159 107
170 96 3 -3 1 -21 -5 -41 -5 -19 -7 -37 -5 -39 3 -3 10 18 17 46 12 50 13 51
91 91 l79 39 11 -26 c5 -15 6 -30 2 -34 -40 -34 -182 -138 -195 -143 -10 -4
-18 -14 -18 -24 0 -11 3 -14 8 -7 13 18 212 167 217 162 3 -2 28 -72 56 -154
41 -120 49 -154 41 -174 -21 -55 -22 -63 -3 -30 14 25 21 31 25 20 28 -74 76
-229 76 -245 0 -12 4 -25 9 -30 9 -11 141 -405 141 -424 0 -7 -39 -11 -120
-11 -112 0 -120 1 -120 19 0 11 14 76 31 146 17 70 28 129 26 132 -3 2 -18
-49 -33 -114 -37 -159 -48 -185 -77 -179 -12 3 -62 11 -110 17 -49 7 -91 18
-93 24 -3 7 4 35 16 64 29 74 24 76 -10 4 -16 -35 -35 -63 -42 -63 -18 0 -124
34 -172 55 l-39 16 6 57 6 57 -15 -40 c-8 -22 -16 -46 -19 -53 -3 -9 -29 0
-92 33 -122 63 -126 67 -113 99 16 44 11 53 -11 19 -12 -19 -26 -30 -32 -26
-15 8 -111 83 -152 118 l-30 25 21 18 c120 97 346 262 353 257 5 -3 12 3 16
12 3 10 53 53 112 97 81 60 107 75 114 65 6 -9 9 -10 9 -2 0 31 -28 19 -115
-46 -52 -39 -97 -71 -99 -71 -3 0 -3 8 0 18 3 9 -3 3 -13 -14 -16 -28 -329
-272 -391 -305 -19 -11 -26 -9 -53 17 -17 16 -54 56 -81 88 l-50 59 24 18 c12
10 28 19 35 19 6 0 15 4 18 10 6 10 -28 0 -65 -20 -15 -8 -24 -4 -47 25 -16
19 -46 65 -66 102 -36 64 -37 68 -20 84 10 10 151 117 313 239 l295 222 144
-6 c80 -4 147 -8 149 -11z m6462 -54 l0 -70 -29 10 c-35 12 -113 78 -106 89 3
5 -1 11 -7 14 -7 3 -2 3 12 1 14 -3 39 2 55 9 17 8 40 15 53 15 21 1 22 -3 22
-68z m357 43 c18 -8 33 -16 33 -18 0 -3 -18 -19 -40 -36 l-40 -32 -8 24 c-5
13 -12 38 -15 56 -7 37 -5 37 70 6z m-273 -18 c13 -25 15 -39 8 -52 -14 -26
-51 -59 -58 -51 -7 7 17 137 26 137 3 0 14 -15 24 -34z m37 21 c-1 -12 -15 -9
-19 4 -3 6 1 10 8 8 6 -3 11 -8 11 -12z m-5697 -86 c47 -92 53 -111 36 -111
-5 0 -10 7 -10 16 0 12 -6 15 -22 11 -14 -4 -26 0 -34 11 -10 14 -15 15 -25 5
-17 -17 -29 -16 -29 2 0 7 -7 18 -15 23 -9 4 -19 21 -24 38 -7 25 -4 34 22 62
17 17 36 32 43 32 7 0 33 -40 58 -89z m206 63 c161 -16 167 -17 225 -53 240
-149 423 -267 441 -283 11 -10 27 -18 36 -18 26 0 40 -26 33 -60 -6 -28 -8
-29 -19 -14 -9 12 -15 14 -20 6 -11 -18 -36 -14 -36 4 0 12 -6 15 -24 10 -18
-4 -28 -1 -35 11 -7 14 -12 15 -24 4 -13 -10 -17 -9 -27 8 -9 17 -15 19 -31
11 -15 -9 -21 -7 -26 5 -4 12 -13 15 -29 11 -17 -5 -24 -2 -24 9 0 18 -21 20
-38 3 -10 -10 -14 -8 -18 10 -7 25 -9 26 -34 12 -15 -8 -20 -6 -25 10 -7 22
-20 26 -30 10 -10 -15 -25 -12 -25 6 0 12 -7 14 -30 9 -23 -5 -30 -3 -30 9 0
19 -5 20 -30 6 -14 -8 -19 -5 -23 11 -5 17 -9 19 -26 9 -17 -9 -22 -8 -28 5
-4 12 -13 15 -30 10 -16 -4 -25 -1 -29 10 -4 10 -14 13 -29 9 -15 -4 -24 0
-28 11 -5 13 -11 14 -27 5 -16 -9 -22 -8 -27 5 -3 11 -13 15 -25 12 -28 -8
-51 20 -103 124 l-46 91 38 -6 c21 -3 112 -13 203 -22z m2528 17 c8 -4 18 -28
23 -52 13 -56 -3 -69 -83 -69 -50 0 -60 3 -74 25 -15 23 -15 27 -1 49 9 13 35
31 59 39 51 18 59 19 76 8z m2667 -11 c-3 -5 -11 -10 -16 -10 -6 0 -7 5 -4 10
3 6 11 10 16 10 6 0 7 -4 4 -10z m630 0 c3 -5 2 -10 -4 -10 -5 0 -13 5 -16 10
-3 6 -2 10 4 10 5 0 13 -4 16 -10z m159 -42 c36 -29 64 -54 62 -55 -4 -5 -158
56 -169 66 -12 12 4 41 23 41 10 0 48 -23 84 -52z m-6360 27 c11 -8 17 -18 13
-22 -10 -10 -59 15 -52 27 8 13 16 12 39 -5z m5491 6 c11 -20 -62 -52 -445
-198 -465 -177 -586 -220 -595 -211 -11 10 -75 189 -75 208 0 10 7 21 16 24 9
3 190 36 402 72 759 129 688 119 697 105z m1245 -71 c486 -95 663 -131 673
-137 13 -8 8 -30 -23 -110 -41 -104 -51 -123 -66 -123 -7 0 -145 52 -306 115
-161 64 -347 137 -413 163 -94 36 -136 59 -192 105 -75 60 -86 72 -55 63 9 -3
181 -37 382 -76z m-802 26 c38 -52 38 -52 12 -59 -26 -7 -75 69 -58 90 6 7 11
13 13 13 1 0 16 -20 33 -44z m-6503 14 c10 -11 26 -22 35 -25 10 -3 23 -19 28
-35 10 -28 9 -29 -60 -65 -38 -20 -72 -35 -74 -32 -7 7 37 177 46 177 4 0 15
-9 25 -20z m6135 11 c0 -12 -20 -25 -27 -18 -7 7 6 27 18 27 5 0 9 -4 9 -9z
m-4708 -27 c205 -22 246 -29 277 -48 20 -12 44 -25 53 -29 17 -6 15 -39 -4
-64 -5 -6 -11 -31 -14 -55 -8 -72 -12 -78 -45 -71 -18 3 -29 1 -29 -6 0 -6 -7
-11 -15 -11 -13 0 -463 277 -489 301 -14 13 -1 12 266 -17z m4703 -33 c28 -27
75 -61 104 -76 48 -24 52 -28 39 -43 -8 -9 -80 -91 -159 -182 -80 -91 -221
-253 -314 -360 -209 -241 -255 -290 -271 -290 -7 0 -26 11 -42 25 -33 28 -33
58 0 78 27 17 62 77 52 87 -10 10 -64 -30 -64 -48 0 -10 -47 -52 -59 -52 -3 0
-21 14 -38 30 l-33 31 33 43 c41 55 623 733 637 741 5 3 10 12 10 18 -1 14 20
38 -325 -364 -148 -173 -292 -338 -319 -367 l-49 -53 -35 33 c-39 38 -122 143
-122 155 0 11 29 33 315 239 437 316 524 376 533 370 5 -3 17 3 27 14 10 11
20 20 23 20 3 0 28 -22 57 -49z m472 17 c-3 -7 -5 -2 -5 12 0 14 2 19 5 13 2
-7 2 -19 0 -25z m540 -356 c181 -207 348 -401 373 -431 l45 -53 -40 -35 c-90
-79 -148 -116 -164 -106 -18 11 -109 119 -455 537 -126 152 -231 274 -233 272
-3 -2 29 -44 69 -93 388 -463 608 -735 602 -745 -7 -11 -150 -90 -189 -104
-36 -13 -27 -26 -156 223 -51 98 -133 255 -181 348 -143 274 -149 288 -152
342 -1 27 -5 53 -8 59 -19 35 -16 43 30 73 26 16 62 46 81 65 19 19 38 33 42
30 5 -3 156 -175 336 -382z m-6533 346 c11 -41 7 -55 -9 -35 -9 13 -20 17 -34
12 -26 -8 -28 12 -3 31 25 19 39 17 46 -8z m5832 5 c22 -29 16 -43 -16 -43
-32 0 -36 9 -20 41 13 24 19 24 36 2z m271 -9 c-7 -7 -37 7 -37 17 0 6 9 5 21
-1 11 -7 19 -14 16 -16z m234 -10 c52 -20 104 -45 116 -56 12 -11 26 -17 32
-13 12 7 30 0 436 -160 309 -123 355 -142 355 -154 0 -12 -99 -174 -119 -194
-20 -21 3 -38 -474 350 -177 144 -197 159 -197 149 0 -2 89 -76 198 -164 359
-291 437 -357 440 -373 1 -8 -33 -53 -76 -99 l-78 -84 -25 19 c-13 10 -51 50
-85 89 -34 39 -188 216 -343 394 -154 178 -281 325 -281 327 0 8 4 7 101 -31z
m-3686 17 c3 -5 1 -12 -5 -16 -5 -3 -10 1 -10 9 0 18 6 21 15 7z m2942 -23
c-3 -7 -5 -2 -5 12 0 14 2 19 5 13 2 -7 2 -19 0 -25z m-6097 -10 c0 -13 -23
-5 -28 10 -2 7 2 10 12 6 9 -3 16 -11 16 -16z m5850 17 c0 -2 -84 -64 -187
-138 -104 -73 -280 -199 -392 -280 -112 -81 -209 -147 -215 -147 -11 0 -17 9
-82 122 -51 90 -51 91 3 116 27 12 156 62 288 112 132 49 314 119 405 154 168
65 180 69 180 61z m-5780 -25 c15 -1 -47 -60 -62 -60 -5 0 -12 10 -17 22 -10
28 14 50 44 43 11 -3 27 -5 35 -5z m380 -23 l75 -23 29 -83 c16 -45 26 -84 23
-87 -4 -4 -193 107 -225 132 -7 5 9 84 16 84 4 0 41 -11 82 -23z m5737 -9 c-3
-7 -5 -2 -5 12 0 14 2 19 5 13 2 -7 2 -19 0 -25z m323 11 c0 -6 -4 -7 -10 -4
-5 3 -10 11 -10 16 0 6 5 7 10 4 6 -3 10 -11 10 -16z m-6371 -74 c22 -47 46
-85 53 -85 9 0 9 3 2 8 -12 8 -79 150 -73 156 2 2 31 1 64 -3 62 -6 66 -10 50
-56 -3 -11 1 -7 10 8 l16 28 32 -20 c29 -19 32 -25 30 -68 l-1 -48 10 38 c5
20 14 37 19 37 4 0 60 -33 124 -73 l115 -73 120 -354 c66 -195 119 -366 118
-380 -3 -21 -16 -29 -86 -57 -46 -17 -92 -33 -104 -35 -24 -4 -24 -5 -212 386
-108 226 -139 300 -139 331 0 22 -2 34 -4 28 -9 -26 -21 -11 -54 62 -18 41
-37 75 -42 75 -5 0 -7 -3 -5 -7 64 -126 88 -185 83 -210 -4 -23 -4 -24 4 -8 8
17 15 7 49 -65 22 -47 90 -191 152 -320 61 -129 114 -247 117 -261 6 -31 7
-30 -107 -54 -96 -19 -116 -19 -125 3 -31 77 -145 430 -145 448 0 12 -4 24 -8
26 -5 2 -27 59 -50 127 -37 111 -40 126 -28 150 7 14 16 37 20 51 3 14 -3 5
-15 -20 l-21 -45 -49 140 c-27 77 -49 145 -49 152 0 9 76 73 87 73 2 0 21 -38
42 -85z m207 63 c-3 -13 -6 -26 -6 -30 0 -14 -17 -9 -46 14 l-28 22 25 7 c49
14 62 11 55 -13z m1730 16 c18 -5 22 -16 28 -66 10 -98 35 -178 82 -266 54
-101 51 -113 -31 -105 -39 4 -60 2 -72 -8 -11 -9 -14 -10 -9 -1 10 17 -10 15
-38 -3 -22 -15 -24 -14 -29 5 -5 18 -9 20 -26 11 -17 -9 -22 -8 -31 10 -10 17
-14 18 -27 8 -12 -11 -17 -10 -28 4 -8 11 -19 15 -30 10 -15 -5 -17 -3 -11 13
31 73 79 216 96 286 11 46 23 89 25 96 5 12 63 16 101 6z m4332 -19 c15 -33
15 -35 -1 -35 -11 0 -37 39 -37 55 0 16 29 1 38 -20z m-3890 -2 c29 -3 51 -9
50 -14 -2 -4 -52 -62 -113 -130 -60 -67 -113 -127 -117 -132 -10 -17 -86 11
-103 37 -24 36 -52 125 -60 188 l-7 57 63 4 c69 5 203 0 287 -10z m800 -12
c18 -12 38 -35 46 -49 15 -31 27 -134 15 -126 -5 3 -6 -2 -3 -11 4 -9 -1 -24
-10 -34 -9 -10 -13 -21 -9 -24 3 -4 0 -7 -7 -7 -7 0 -11 -3 -7 -6 3 -3 -1 -13
-8 -22 -8 -10 -25 -31 -40 -49 -37 -46 -104 -69 -155 -54 -53 16 -123 97 -184
215 l-49 94 22 28 c51 67 316 97 389 45z m2982 -4 c0 -18 -2 -19 -10 -7 -13
20 -13 43 0 35 6 -3 10 -16 10 -28z m-5643 -57 l71 -33 56 -120 c31 -66 55
-121 53 -123 -1 -1 -54 30 -117 70 l-115 73 -27 79 c-33 96 -34 108 -10 96 9
-5 49 -24 89 -42z m5869 15 c23 -56 15 -74 -11 -25 -27 51 -29 60 -14 60 5 0
17 -16 25 -35z m-56 -521 c-1 -297 -4 -555 -8 -574 -9 -42 -23 -45 -159 -35
l-93 7 1 331 c1 183 4 436 8 562 l6 230 113 6 c62 3 115 9 119 12 3 4 8 5 10
3 2 -2 3 -246 3 -542z m-5760 504 c0 -11 -7 -10 -40 7 -40 21 -38 26 5 12 19
-6 35 -14 35 -19z m5479 -7 c-5 -21 -57 -126 -117 -232 -240 -430 -374 -665
-392 -689 l-19 -25 -83 43 c-46 24 -94 52 -107 63 l-24 20 29 39 c27 36 330
388 344 400 3 3 66 75 139 160 114 131 231 260 237 260 1 0 -2 -17 -7 -39z
m-5198 -71 c129 -39 286 -87 349 -106 164 -49 200 -64 200 -79 0 -21 -41 -82
-90 -135 -62 -66 -70 -77 -70 -95 0 -8 -5 -15 -12 -15 -7 0 -27 -14 -44 -31
-25 -25 -35 -29 -46 -20 -7 7 -52 35 -100 64 -48 29 -137 84 -198 122 l-111
70 -59 124 c-33 68 -58 126 -56 128 5 5 553 -248 613 -283 45 -26 63 -30 63
-14 0 6 -6 10 -12 10 -7 0 -85 34 -173 76 -88 41 -234 109 -325 151 -91 42
-171 81 -177 86 -17 13 -16 30 1 24 8 -3 119 -38 247 -77z m5575 -90 c67 -339
164 -858 164 -876 0 -13 -8 -25 -17 -28 -26 -8 -195 -36 -215 -36 -17 0 -18
31 -18 503 0 276 3 526 7 555 l6 53 30 -53 c17 -29 36 -82 43 -118z m-365
-392 c-3 -289 -9 -530 -14 -534 -8 -9 -174 12 -217 28 -26 9 -27 11 -18 56 12
66 237 962 244 974 3 5 7 8 8 6 1 -2 0 -240 -3 -530z m-3413 459 c12 1 22 -3
22 -7 0 -5 17 -30 38 -57 21 -26 51 -83 66 -125 36 -98 33 -154 -10 -192 -48
-43 -91 -51 -191 -37 -112 16 -164 44 -188 103 -29 73 -17 98 103 220 74 75
112 106 122 101 8 -3 25 -6 38 -6z m3262 -459 c-120 -477 -123 -488 -143 -488
-17 0 -106 30 -174 60 -50 21 -51 23 -40 48 6 15 102 187 213 382 111 195 211
375 223 398 12 24 24 42 26 40 2 -2 -45 -200 -105 -440z m-5296 322 l99 -64
89 -185 c50 -102 96 -203 104 -224 l13 -37 -44 -33 c-57 -41 -154 -92 -161
-84 -5 4 -209 600 -239 697 -7 23 -7 24 16 8 13 -8 69 -44 123 -78z m6078
-410 c50 -96 106 -203 125 -238 18 -35 33 -72 33 -82 0 -14 -24 -26 -110 -54
-60 -20 -113 -36 -119 -36 -5 0 -17 33 -25 72 -13 57 -126 650 -152 793 -5 29
43 -58 248 -455z m-3862 410 c0 -5 -5 -10 -11 -10 -5 0 -7 5 -4 10 3 6 8 10
11 10 2 0 4 -4 4 -10z m119 -114 c17 -21 31 -47 31 -57 0 -21 -50 -59 -78 -59
-25 0 -35 14 -55 74 -33 98 35 126 102 42z m-2145 -9 c28 -18 98 -63 156 -100
58 -37 118 -77 134 -90 l30 -24 -35 -31 c-19 -17 -38 -32 -42 -32 -4 0 -33 25
-64 56 -40 41 -58 53 -63 44 -10 -17 10 -49 48 -77 43 -32 46 -58 10 -88 -16
-14 -33 -25 -38 -25 -5 0 -39 62 -76 138 -88 181 -124 262 -117 262 3 0 29
-15 57 -33z m1236 -7 c0 -10 -32 -30 -48 -30 -5 0 -12 9 -15 20 -4 17 0 20 29
20 19 0 34 -4 34 -10z m-72 -95 c-12 -26 -32 -31 -57 -16 -22 14 5 41 40 41
27 0 28 -2 17 -25z m250 -33 c15 -10 5 -42 -13 -42 -7 0 -21 3 -30 6 -14 6
-14 8 1 25 19 21 23 22 42 11z"/>
<path d="M3983 5134 c-7 -18 11 -39 26 -30 17 11 13 46 -4 46 -9 0 -18 -7 -22
-16z"/>
<path d="M4282 5128 c5 -34 38 -37 38 -4 0 20 -5 26 -21 26 -15 0 -20 -5 -17
-22z"/>
<path d="M2440 3880 c-6 -11 -8 -20 -6 -20 3 0 10 9 16 20 6 11 8 20 6 20 -3
0 -10 -9 -16 -20z"/>
<path d="M2365 3753 c-32 -54 -66 -113 -77 -130 -11 -18 -17 -33 -15 -33 4 0
107 169 154 253 2 4 2 7 0 7 -3 0 -30 -44 -62 -97z"/>
<path d="M8767 3778 c-9 -23 -15 -43 -13 -45 2 -2 11 15 20 38 9 23 15 43 13
45 -2 2 -11 -15 -20 -38z"/>
<path d="M8736 3705 c-9 -26 -7 -32 5 -12 6 10 9 21 6 23 -2 3 -7 -2 -11 -11z"/>
<path d="M8706 3630 c-22 -56 -19 -65 5 -11 11 24 18 46 15 48 -2 2 -11 -14
-20 -37z"/>
<path d="M8661 3519 c-12 -29 -20 -54 -18 -56 2 -2 14 20 26 48 12 29 20 54
18 56 -2 2 -14 -20 -26 -48z"/>
<path d="M8601 3374 c-17 -43 -29 -79 -27 -81 2 -2 17 31 35 73 17 43 29 79
27 81 -2 2 -17 -31 -35 -73z"/>
<path d="M8556 3265 c-9 -26 -7 -32 5 -12 6 10 9 21 6 23 -2 3 -7 -2 -11 -11z"/>
<path d="M8501 3129 c-22 -57 -39 -104 -37 -106 2 -2 22 42 45 98 23 56 40
103 38 106 -3 2 -23 -42 -46 -98z"/>
<path d="M3188 2993 c12 -2 30 -2 40 0 9 3 -1 5 -23 4 -22 0 -30 -2 -17 -4z"/>
<path d="M3103 2983 c9 -2 25 -2 35 0 9 3 1 5 -18 5 -19 0 -27 -2 -17 -5z"/>
<path d="M2925 2965 c-44 -7 -64 -13 -45 -13 19 0 73 5 120 12 49 8 68 13 45
13 -22 0 -76 -5 -120 -12z"/>
<path d="M3150 2680 c-37 -13 -43 -17 -20 -13 41 7 111 32 90 32 -8 0 -40 -9
-70 -19z"/>
<path d="M7186 2522 c-175 -31 -314 -58 -308 -60 6 -2 121 15 254 38 314 53
440 78 403 78 -16 0 -173 -25 -349 -56z"/>
<path d="M1471 2169 c-6 -18 -9 -34 -7 -36 2 -2 9 10 15 28 6 18 9 34 7 36 -2
2 -9 -10 -15 -28z"/>
<path d="M1446 2105 c-9 -26 -7 -32 5 -12 6 10 9 21 6 23 -2 3 -7 -2 -11 -11z"/>
<path d="M1078 1854 c-126 -63 -228 -116 -228 -119 0 -3 104 47 230 110 127
63 230 117 230 120 0 7 18 15 -232 -111z"/>
<path d="M1381 1939 c-6 -18 -9 -34 -7 -36 2 -2 9 10 15 28 6 18 9 34 7 36 -2
2 -9 -10 -15 -28z"/>
<path d="M1536 1885 c-3 -9 -6 -22 -5 -28 0 -7 5 -1 10 12 5 13 8 26 5 28 -2
2 -6 -3 -10 -12z"/>
<path d="M1356 1875 c-9 -26 -7 -32 5 -12 6 10 9 21 6 23 -2 3 -7 -2 -11 -11z"/>
<path d="M1506 1754 c-4 -14 -5 -28 -3 -31 3 -2 8 8 11 23 4 14 5 28 3 31 -3
2 -8 -8 -11 -23z"/>
<path d="M1296 1725 c-9 -26 -7 -32 5 -12 6 10 9 21 6 23 -2 3 -7 -2 -11 -11z"/>
<path d="M1837 1678 c-9 -23 -15 -43 -13 -45 2 -2 11 15 20 38 9 23 15 43 13
45 -2 2 -11 -15 -20 -38z"/>
<path d="M1491 1694 c0 -11 3 -14 6 -6 3 7 2 16 -1 19 -3 4 -6 -2 -5 -13z"/>
<path d="M1246 1599 c-20 -50 -35 -93 -33 -95 2 -2 20 37 40 88 20 50 35 93
33 95 -2 2 -20 -37 -40 -88z"/>
<path d="M1475 1630 c-4 -17 -5 -34 -2 -36 2 -3 7 10 11 27 3 18 4 34 2 36 -2
3 -7 -10 -11 -27z"/>
<path d="M1806 1605 c-9 -26 -7 -32 5 -12 6 10 9 21 6 23 -2 3 -7 -2 -11 -11z"/>
<path d="M1430 1450 c-18 -72 -31 -133 -28 -135 2 -3 19 54 36 127 18 72 31
132 29 135 -3 2 -19 -55 -37 -127z"/>
<path d="M1742 1438 c-29 -72 -50 -133 -48 -135 2 -2 27 56 55 128 28 73 50
134 48 136 -2 2 -27 -56 -55 -129z"/>
<path d="M1187 1448 c-9 -23 -15 -43 -13 -45 2 -2 11 15 20 38 9 23 15 43 13
45 -2 2 -11 -15 -20 -38z"/>
<path d="M1965 1460 c-4 -17 -5 -34 -2 -36 2 -3 7 10 11 27 3 18 4 34 2 36 -2
3 -7 -10 -11 -27z"/>
<path d="M1951 1394 c0 -11 3 -14 6 -6 3 7 2 16 -1 19 -3 4 -6 -2 -5 -13z"/>
<path d="M1676 1275 c-9 -26 -7 -32 5 -12 6 10 9 21 6 23 -2 3 -7 -2 -11 -11z"/>
<path d="M2095 1990 c-4 -23 -5 -43 -2 -46 2 -3 7 14 11 37 4 23 5 44 2 46 -2
2 -7 -14 -11 -37z"/>
<path d="M1956 1975 c-9 -26 -7 -32 5 -12 6 10 9 21 6 23 -2 3 -7 -2 -11 -11z"/>
<path d="M2030 1720 c-6 -23 -9 -44 -7 -46 2 -3 9 14 15 38 6 23 9 44 7 46 -2
2 -9 -15 -15 -38z"/>
<path d="M2007 1631 c-4 -17 -3 -21 5 -13 5 5 8 16 6 23 -3 8 -7 3 -11 -10z"/>
</g>
</svg>
