<?xml version="1.0" standalone="no"?>
<!DOCTYPE svg PUBLIC "-//W3C//DTD SVG 20010904//EN"
 "http://www.w3.org/TR/2001/REC-SVG-20010904/DTD/svg10.dtd">
<svg version="1.0" xmlns="http://www.w3.org/2000/svg"
 width="320.000000pt" height="342.000000pt" viewBox="0 0 320.000000 342.000000"
 preserveAspectRatio="xMidYMid meet">

<g transform="translate(0.000000,342.000000) scale(0.100000,-0.100000)"
fill="#000000" stroke="none">
<path d="M1966 3384 c-39 -13 -86 -24 -107 -24 -22 0 -50 -10 -73 -25 -21 -14
-146 -63 -279 -109 -250 -86 -264 -94 -238 -136 9 -12 17 -12 62 3 66 21 75
16 13 -8 -41 -15 -49 -24 -70 -72 -38 -85 -33 -133 37 -329 18 -49 30 -98 26
-107 -6 -16 -56 -17 -672 -17 l-665 0 0 -110 0 -110 673 0 c430 0 685 -4 709
-10 45 -13 68 -44 98 -133 39 -119 73 -75 -508 -664 -284 -288 -619 -629 -744
-758 l-228 -233 0 -218 0 -217 23 21 c12 11 38 22 57 24 33 3 35 5 32 35 -3
31 34 71 718 765 397 403 740 744 762 757 22 14 43 20 48 15 4 -5 19 -45 33
-90 l25 -81 -87 -61 c-469 -332 -762 -840 -826 -1435 l-6 -57 200 0 c176 0
201 2 201 16 0 16 11 16 163 -8 38 -5 70 -8 73 -5 2 2 -45 12 -104 22 -60 9
-115 20 -121 24 -12 8 8 150 30 219 13 40 -30 44 403 -39 170 -33 313 -58 318
-57 5 2 -69 19 -164 37 -443 86 -524 103 -532 111 -4 4 -1 31 9 59 l17 51 201
0 202 0 241 -94 c190 -73 253 -102 297 -136 46 -36 54 -47 46 -62 -12 -21 -15
-21 -99 -3 -36 8 -74 14 -85 14 -21 -1 8 -9 108 -29 l58 -12 -20 -34 c-12 -20
-21 -44 -21 -55 0 -18 8 -19 165 -19 122 0 165 3 165 12 0 9 3 9 12 0 18 -18
355 -15 433 3 58 14 58 14 11 9 -27 -3 -55 -8 -62 -11 -23 -9 -16 13 9 26 12
6 14 9 5 7 -20 -6 -23 10 -8 48 13 34 56 45 75 20 8 -11 13 -24 10 -31 -2 -6
5 -13 16 -16 14 -4 18 -12 15 -34 -3 -29 -3 -29 59 -31 61 -3 62 -3 58 21 -4
18 0 26 16 30 12 3 21 10 21 16 0 7 -8 7 -26 -1 -21 -10 -27 -9 -35 3 -16 26
-9 40 26 55 34 14 51 29 19 17 -15 -5 -15 -3 1 23 13 23 10 21 -15 -8 -18 -21
-35 -38 -39 -38 -5 0 -45 36 -90 81 l-82 80 112 137 c137 167 133 162 126 162
-2 0 -53 -59 -112 -130 -59 -72 -109 -130 -110 -128 -2 2 5 44 15 95 14 66 32
116 66 177 25 47 43 86 40 86 -3 0 -20 -27 -37 -61 -16 -34 -32 -59 -35 -56
-3 2 0 24 5 48 6 24 10 53 10 64 0 11 -11 -25 -23 -80 -16 -71 -35 -123 -67
-180 l-44 -80 -6 70 -5 70 -2 -89 c-2 -80 -4 -87 -19 -81 -10 4 -63 11 -118
14 l-100 6 -5 305 -5 305 -5 -285 -5 -285 -48 99 c-26 54 -50 110 -53 125 -4
14 -12 31 -18 36 -13 12 -346 696 -346 712 0 17 148 69 177 63 5 -1 13 -18 20
-38 l12 -37 -2 45 -2 44 90 18 c50 9 107 17 128 18 l37 0 2 -202 2 -203 6 205
5 205 85 3 c47 2 104 0 128 -3 38 -6 42 -9 42 -36 0 -16 5 -29 10 -29 6 0 10
14 10 31 0 31 0 31 43 24 69 -11 191 -36 200 -42 4 -2 5 -28 2 -56 -4 -48 -4
-49 5 -17 6 19 15 44 21 55 5 12 8 89 7 185 l-3 164 -60 13 c-33 6 -104 17
-157 24 -54 7 -98 15 -98 19 0 4 9 15 20 25 11 10 20 22 20 27 0 14 -318 9
-430 -7 -123 -17 -323 -66 -415 -100 l-65 -25 -16 33 c-10 17 -37 88 -61 156
l-43 124 19 32 18 31 -51 230 -51 229 -50 3 c-27 2 -55 8 -62 13 -7 6 -38 89
-70 185 l-58 174 21 20 c11 12 69 41 129 66 l108 44 22 -20 c26 -24 33 -25 55
-5 15 14 21 9 66 -47 27 -35 50 -76 51 -91 5 -47 21 -69 51 -65 23 3 28 8 30
38 4 42 38 83 63 75 10 -4 28 -1 40 5 17 10 20 18 15 42 -4 20 0 40 12 60 l17
30 -58 54 c-32 30 -64 53 -71 52 -12 -3 -157 114 -164 132 -1 4 15 12 37 18
47 15 62 31 54 60 -7 27 -10 27 -97 -4z m17 -136 c-5 -10 -33 10 -33 23 0 5 9
4 19 -3 11 -7 17 -16 14 -20z m81 -2394 c91 -155 168 -289 172 -298 5 -14 -5
-16 -83 -16 l-89 0 -169 197 c-94 108 -185 216 -203 240 l-33 43 42 37 c23 21
67 57 97 81 l56 43 22 -23 c12 -13 97 -150 188 -304z m-368 94 c65 -68 344
-394 344 -402 0 -3 -53 -6 -118 -6 l-117 0 -121 98 c-193 155 -207 169 -197
185 13 24 146 177 152 177 4 0 29 -24 57 -52z m-193 -180 c18 -12 88 -67 156
-122 l125 -101 -185 -3 c-155 -2 -190 0 -221 14 -21 9 -38 22 -38 27 0 18 115
207 126 207 3 0 20 -10 37 -22z m-158 -218 c3 -5 -1 -10 -10 -10 -9 0 -13 5
-10 10 3 6 8 10 10 10 2 0 7 -4 10 -10z m1626 -180 c-10 -52 -22 -85 -29 -84
-36 3 -42 5 -42 13 0 12 81 163 85 159 2 -2 -4 -41 -14 -88z m-952 -15 c51
-41 95 -75 97 -75 12 0 -4 14 -81 76 -47 37 -85 69 -85 71 0 1 44 3 98 3 l98
0 82 -96 c77 -90 90 -112 76 -127 -8 -8 -134 40 -155 59 -10 9 -22 14 -26 11
-8 -5 -389 135 -401 148 -3 3 42 5 100 5 l105 0 92 -75z m323 25 c16 -28 32
-50 37 -50 5 0 7 -9 4 -20 -3 -11 -9 -20 -14 -20 -5 0 -6 -6 -4 -12 3 -7 -6
-18 -20 -24 -23 -11 -28 -8 -82 55 -31 36 -68 78 -82 94 l-25 27 80 0 79 0 27
-50z m399 -113 c-17 -17 -24 -1 -10 25 12 21 14 21 17 4 2 -10 -1 -23 -7 -29z
m119 15 c0 -10 -22 -32 -32 -32 -5 0 -3 9 4 20 13 20 28 27 28 12z m-2763 -54
c-3 -7 -5 -2 -5 12 0 14 2 19 5 13 2 -7 2 -19 0 -25z m2733 -3 c12 -7 -33 -97
-59 -118 -9 -7 -12 -8 -8 -1 4 6 -7 36 -23 65 -16 30 -30 58 -30 63 0 9 102 2
120 -9z m102 -7 c-7 -7 -12 -8 -12 -2 0 14 12 26 19 19 2 -3 -1 -11 -7 -17z
m-675 -13 c27 -11 34 -18 26 -26 -8 -8 -20 -5 -42 10 -48 34 -42 40 16 16z
m623 -2 c0 -8 -83 -103 -87 -100 -1 2 11 29 28 60 20 38 35 54 44 50 8 -3 15
-7 15 -10z m10 -51 c0 -35 -3 -40 -46 -60 -26 -13 -48 -21 -50 -20 -3 4 87
118 93 118 2 0 3 -17 3 -38z m38 11 c2 -11 -4 -26 -13 -33 -13 -11 -15 -8 -15
25 0 39 22 46 28 8z m122 8 c0 -11 -50 -32 -61 -26 -16 10 -10 21 19 31 28 11
42 9 42 -5z m-95 -10 c3 -5 1 -12 -5 -16 -5 -3 -10 1 -10 9 0 18 6 21 15 7z
m-48 -108 c-3 -10 -5 -2 -5 17 0 19 2 27 5 18 2 -10 2 -26 0 -35z m-20 -20
c-3 -2 -18 2 -33 10 l-28 14 30 16 c28 15 29 15 32 -10 2 -14 1 -27 -1 -30z
m203 47 c-19 -13 -30 -13 -30 0 0 6 10 10 23 10 18 0 19 -2 7 -10z"/>
<path d="M2382 1300 c0 -14 2 -19 5 -12 2 6 2 18 0 25 -3 6 -5 1 -5 -13z"/>
<path d="M2904 1010 c0 -157 2 -221 3 -142 2 78 2 206 0 285 -1 78 -3 14 -3
-143z"/>
<path d="M3152 1270 c0 -14 2 -19 5 -12 2 6 2 18 0 25 -3 6 -5 1 -5 -13z"/>
<path d="M2392 1250 c0 -14 2 -19 5 -12 2 6 2 18 0 25 -3 6 -5 1 -5 -13z"/>
<path d="M3142 1220 c0 -14 2 -19 5 -12 2 6 2 18 0 25 -3 6 -5 1 -5 -13z"/>
<path d="M2401 1204 c0 -11 3 -14 6 -6 3 7 2 16 -1 19 -3 4 -6 -2 -5 -13z"/>
<path d="M3125 1150 c-4 -23 -5 -43 -2 -46 2 -3 7 14 11 37 4 23 5 44 2 46 -2
2 -7 -14 -11 -37z"/>
<path d="M2412 1150 c0 -14 2 -19 5 -12 2 6 2 18 0 25 -3 6 -5 1 -5 -13z"/>
<path d="M2421 1104 c0 -11 3 -14 6 -6 3 7 2 16 -1 19 -3 4 -6 -2 -5 -13z"/>
<path d="M3112 1070 c0 -14 2 -19 5 -12 2 6 2 18 0 25 -3 6 -5 1 -5 -13z"/>
<path d="M2432 1050 c0 -14 2 -19 5 -12 2 6 2 18 0 25 -3 6 -5 1 -5 -13z"/>
<path d="M3102 1020 c0 -14 2 -19 5 -12 2 6 2 18 0 25 -3 6 -5 1 -5 -13z"/>
<path d="M2442 1000 c0 -14 2 -19 5 -12 2 6 2 18 0 25 -3 6 -5 1 -5 -13z"/>
<path d="M3085 950 c-4 -23 -5 -43 -2 -46 2 -3 7 14 11 37 4 23 5 44 2 46 -2
2 -7 -14 -11 -37z"/>
<path d="M2452 950 c0 -14 2 -19 5 -12 2 6 2 18 0 25 -3 6 -5 1 -5 -13z"/>
<path d="M2461 904 c0 -11 3 -14 6 -6 3 7 2 16 -1 19 -3 4 -6 -2 -5 -13z"/>
<path d="M3065 850 c-4 -23 -5 -43 -2 -46 2 -3 7 14 11 37 4 23 5 44 2 46 -2
2 -7 -14 -11 -37z"/>
<path d="M2472 850 c0 -14 2 -19 5 -12 2 6 2 18 0 25 -3 6 -5 1 -5 -13z"/>
<path d="M3170 820 c-11 -22 -18 -40 -15 -40 2 0 14 18 25 40 11 22 18 40 15
40 -2 0 -14 -18 -25 -40z"/>
<path d="M2481 804 c0 -11 3 -14 6 -6 3 7 2 16 -1 19 -3 4 -6 -2 -5 -13z"/>
<path d="M3052 770 c0 -14 2 -19 5 -12 2 6 2 18 0 25 -3 6 -5 1 -5 -13z"/>
<path d="M2492 755 c0 -11 4 -31 8 -45 6 -20 8 -21 8 -5 0 11 -4 31 -8 45 -6
20 -8 21 -8 5z"/>
<path d="M3120 730 c-11 -22 -18 -40 -15 -40 2 0 14 18 25 40 11 22 18 40 15
40 -2 0 -14 -18 -25 -40z"/>
<path d="M3042 720 c0 -14 2 -19 5 -12 2 6 2 18 0 25 -3 6 -5 1 -5 -13z"/>
<path d="M2511 654 c0 -11 3 -14 6 -6 3 7 2 16 -1 19 -3 4 -6 -2 -5 -13z"/>
<path d="M1980 160 c14 -4 36 -8 50 -8 22 0 22 1 -5 8 -16 4 -39 8 -50 8 -16
0 -15 -2 5 -8z"/>
<path d="M2970 60 c-8 -5 -10 -10 -5 -10 6 0 17 5 25 10 8 5 11 10 5 10 -5 0
-17 -5 -25 -10z"/>
</g>
</svg>
